SplineFontDB: 3.2
FontName: Untitled2
FullName: Untitled2
FamilyName: Untitled2
Weight: Regular
Copyright: Copyright (c) 2024, Deepanshu
UComments: "2024-9-11: Created with FontForge (http://fontforge.org)"
Version: 001.000
ItalicAngle: 0
UnderlinePosition: -100
UnderlineWidth: 50
Ascent: 800
Descent: 200
InvalidEm: 0
LayerCount: 2
Layer: 0 0 "Back" 1
Layer: 1 0 "Fore" 0
XUID: [1021 333 -1458125543 12582]
OS2Version: 0
OS2_WeightWidthSlopeOnly: 0
OS2_UseTypoMetrics: 1
CreationTime: 1726030529
ModificationTime: 1726032528
OS2TypoAscent: 0
OS2TypoAOffset: 1
OS2TypoDescent: 0
OS2TypoDOffset: 1
OS2TypoLinegap: 0
OS2WinAscent: 0
OS2WinAOffset: 1
OS2WinDescent: 0
OS2WinDOffset: 1
HheadAscent: 0
HheadAOffset: 1
HheadDescent: 0
HheadDOffset: 1
OS2Vendor: 'PfEd'
DEI: 91125
Encoding: ISO8859-1
UnicodeInterp: none
NameList: AGL For New Fonts
DisplaySize: -48
AntiAlias: 1
FitToEm: 0
WinInfo: 16 16 6
BeginChars: 256 66

StartChar: A
Encoding: 65 65 0
Width: 1000
Flags: H
LayerCount: 2
Back
Fore
SplineSet
871.603515625 -157.765625 m 0
 879.557617188 -151.526367188 901.784179688 -149.48828125 909.387695312 -154.30078125 c 0
 911.670898438 -155.74609375 913.909179688 -163.352539062 914.643554688 -172.159179688 c 0
 915.827148438 -186.36328125 915.353515625 -187.87890625 908.250976562 -192.61328125 c 0
 902.03515625 -196.7578125 897.456054688 -197.350585938 884.103515625 -195.73828125 c 0
 868.478515625 -193.852539062 867.538085938 -193.309570312 865.921875 -185.227539062 c 0
 862.796875 -169.602539062 864.013671875 -163.717773438 871.603515625 -157.765625 c 0
91.6748046875 -153.409179688 m 0
 96.427734375 -147.3359375 99.728515625 -146.022460938 110.239257812 -146.022460938 c 0
 117.341796875 -146.022460938 126.749023438 -147.979492188 131.404296875 -150.42578125 c 0
 139.0078125 -154.420898438 139.78515625 -156.108398438 139.78515625 -168.608398438 c 0
 139.78515625 -181.108398438 138.875976562 -183.071289062 129.984375 -189.772460938 c 0
 121.116210938 -196.456054688 119.046875 -196.905273438 108.250976562 -194.493164062 c 0
 85.5234375 -189.416015625 78.0302734375 -170.84375 91.6748046875 -153.409179688 c 0
131.831054688 -54.9716796875 m 0
 137.831054688 -47.275390625 139.500976562 -46.6748046875 152.28515625 -47.6220703125 c 0
 168.762695312 -48.8427734375 176.716796875 -56.18359375 176.716796875 -70.1708984375 c 0
 176.716796875 -79.8291015625 164.602539062 -94.88671875 156.831054688 -94.88671875 c 0
 149.063476562 -94.88671875 129.166015625 -78.693359375 127.16015625 -70.73828125 c 0
 125.770507812 -65.23046875 126.958007812 -61.2216796875 131.831054688 -54.9716796875 c 0
825.296875 -35.1865234375 m 0
 834.001953125 -27.310546875 836.091796875 -27.140625 854.557617188 -32.80859375 c 0
 861.33203125 -34.8876953125 864.216796875 -38.068359375 867.057617188 -46.5908203125 c 0
 870.27734375 -56.25 870.126953125 -58.6171875 865.880859375 -65.056640625 c 0
 860.635742188 -73.01171875 845.134765625 -83.5224609375 838.6484375 -83.5224609375 c 0
 836.499023438 -83.5224609375 829.841796875 -78.8232421875 824.16015625 -73.2958984375 c 0
 814.78515625 -64.173828125 813.817382812 -61.9775390625 815.2109375 -52.9833984375 c 0
 816.1796875 -46.7333984375 820.014648438 -39.9658203125 825.296875 -35.1865234375 c 0
182.599609375 73.86328125 m 0
 187.034179688 79.5458984375 190.921875 81.25 199.444335938 81.25 c 0
 217.057617188 81.25 224.278320312 77.0810546875 227.98046875 64.7724609375 c 0
 232.283203125 50.4677734375 228.989257812 44.07421875 213.364257812 36.4013671875 c 2
 201.716796875 30.681640625 l 1
 191.34765625 36.6474609375 l 2
 185.666015625 39.9169921875 180.07421875 43.8974609375 178.979492188 45.4541015625 c 0
 174.895507812 51.2578125 176.834960938 66.4775390625 182.599609375 73.86328125 c 0
787.672851562 100.852539062 m 0
 793.102539062 108.197265625 795.041015625 108.936523438 805.551757812 107.670898438 c 0
 813.791015625 106.677734375 819.6796875 103.768554688 825.102539062 98.01171875 c 0
 833.337890625 89.2705078125 834.52734375 83.23828125 830.259765625 71.875 c 0
 825.245117188 58.5224609375 791.90234375 55.6513671875 784.072265625 67.8974609375 c 0
 779.79296875 74.58984375 781.793945312 92.8974609375 787.672851562 100.852539062 c 0
495.182617188 186.221679688 m 0
 500.475585938 189.413085938 509.529296875 192.045898438 515.2109375 192.045898438 c 0
 524.018554688 192.045898438 526.479492188 190.525390625 531.546875 181.959960938 c 0
 534.907226562 176.278320312 537.512695312 167.657226562 537.512695312 162.215820312 c 0
 537.512695312 150.19140625 530.125976562 144.491210938 511.375976562 142.045898438 c 0
 499.728515625 140.526367188 497.813476562 141.08203125 493.762695312 147.159179688 c 0
 491.220703125 150.971679688 488.403320312 159.80078125 487.370117188 167.1875 c 0
 485.583007812 179.971679688 485.834960938 180.5859375 495.182617188 186.221679688 c 0
382.3984375 184.462890625 m 0
 388.081054688 189.70703125 392.86328125 191.80859375 396.745117188 190.766601562 c 0
 399.880859375 189.92578125 405.978515625 189.204101562 409.956054688 189.204101562 c 0
 416.47265625 189.204101562 417.7265625 187.5 420.609375 174.715820312 c 0
 423.620117188 161.36328125 423.375 159.591796875 417.484375 152.130859375 c 0
 413.895507812 147.584960938 408.849609375 143.247070312 405.978515625 142.239257812 c 0
 397.739257812 139.346679688 381.241210938 143.443359375 379.298828125 148.86328125 c 0
 378.383789062 151.420898438 375.646484375 155.965820312 373.482421875 158.522460938 c 0
 368.103515625 164.879882812 371.319335938 174.235351562 382.3984375 184.462890625 c 0
615.353515625 193.30078125 m 0
 620.182617188 195.416992188 624.416992188 197.287109375 624.728515625 197.443359375 c 0
 625.048828125 197.603515625 629.700195312 195.618164062 635.381835938 192.897460938 c 0
 641.631835938 189.904296875 645.466796875 186.069335938 645.466796875 182.8125 c 0
 645.466796875 179.84765625 646.705078125 175.141601562 648.307617188 172.016601562 c 0
 650.313476562 168.106445312 649.979492188 163.63671875 647.171875 156.818359375 c 0
 643.896484375 148.86328125 640.637695312 146.306640625 628.706054688 142.329101562 c 0
 614.500976562 137.594726562 614.022460938 137.622070312 604.2734375 143.75 c 0
 595.486328125 149.2734375 594.331054688 151.420898438 594.331054688 162.215820312 c 0
 594.331054688 176.420898438 601.702148438 187.3203125 615.353515625 193.30078125 c 0
243.194335938 204.829101562 m 0
 251.203125 212.837890625 257.966796875 213.583984375 271.603515625 207.959960938 c 0
 278.748046875 205.013671875 282.149414062 201.278320312 284.671875 193.608398438 c 0
 287.778320312 184.157226562 287.42578125 182.244140625 280.694335938 172.016601562 c 0
 274.5234375 162.641601562 271.671875 160.795898438 263.364257812 160.795898438 c 0
 252.853515625 160.795898438 237.063476562 172.3203125 236.119140625 180.681640625 c 0
 234.868164062 191.76171875 236.833984375 198.46875 243.194335938 204.829101562 c 0
730.41015625 213.068359375 m 2
 736.010742188 215.401367188 746.03515625 217.373046875 752.569335938 217.424804688 c 0
 768.762695312 217.5546875 776.1484375 210.227539062 776.1484375 194.034179688 c 0
 776.1484375 178.907226562 774.728515625 176.938476562 758.819335938 170.015625 c 2
 745.466796875 164.204101562 l 1
 736.091796875 172.016601562 l 2
 729.290039062 177.684570312 725.8203125 183.806640625 723.450195312 194.318359375 c 2
 720.182617188 208.806640625 l 1
 730.41015625 213.068359375 l 2
301.006835938 340.766601562 m 0
 306.97265625 343.233398438 316.28515625 345.21875 322.171875 345.280273438 c 0
 334.435546875 345.407226562 339.877929688 339.204101562 342.45703125 322.159179688 c 0
 343.91796875 312.5 343.286132812 311.180664062 334.671875 305.88671875 c 0
 323.307617188 298.904296875 317.853515625 298.69140625 307.3984375 304.819335938 c 0
 298.997070312 309.745117188 294.696289062 316.477539062 291.966796875 328.977539062 c 0
 290.546875 335.477539062 291.631835938 336.891601562 301.006835938 340.766601562 c 0
697.739257812 354.263671875 m 0
 710.5234375 362.036132812 723.388671875 361.14453125 730.568359375 351.98828125 c 0
 736.592773438 344.305664062 737.521484375 337.784179688 734.653320312 323.295898438 c 0
 733.212890625 316.017578125 731.120117188 314.25390625 720.325195312 311.221679688 c 0
 709.529296875 308.189453125 706.084960938 308.396484375 696.745117188 312.641601562 c 0
 687.209960938 316.9765625 685.677734375 319.034179688 684.790039062 328.693359375 c 0
 683.538085938 342.329101562 685.952148438 347.096679688 697.739257812 354.263671875 c 0
636.944335938 495.3125 m 0
 644.046875 498.86328125 651.559570312 501.388671875 653.84765625 500.994140625 c 0
 656.069335938 500.611328125 662.416992188 494.459960938 667.625976562 487.641601562 c 2
 677.28515625 475 l 1
 665.353515625 463.846679688 l 2
 652.974609375 452.275390625 648.591796875 451.779296875 631.262695312 459.98828125 c 0
 625.264648438 462.829101562 624.16015625 465.340820312 624.16015625 476.13671875 c 0
 624.16015625 488.352539062 624.728515625 489.204101562 636.944335938 495.3125 c 0
366.489257812 500.001953125 m 0
 376.083984375 505.208007812 377.000976562 505.228515625 392.625976562 500.587890625 c 0
 403.421875 497.380859375 405.629882812 495.383789062 408.819335938 485.9375 c 0
 412.272460938 475.709960938 412.098632812 474.557617188 406.137695312 468.181640625 c 0
 392.591796875 453.693359375 371.952148438 449.009765625 363.569335938 458.522460938 c 0
 352.553710938 471.022460938 354.12109375 493.291015625 366.489257812 500.001953125 c 0
433.977539062 634.943359375 m 0
 440.39453125 642.465820312 443.478515625 643.75 455.125976562 643.75 c 0
 467.625976562 643.75 469.259765625 642.9453125 474.728515625 634.090820312 c 0
 483.150390625 620.454101562 482.315429688 610.692382812 471.887695312 600.900390625 c 0
 464.469726562 593.935546875 461.375976562 592.934570312 448.0234375 593.181640625 c 2
 432.682617188 593.465820312 l 1
 429.657226562 605.681640625 l 2
 425.364257812 623.01171875 425.69140625 625.228515625 433.977539062 634.943359375 c 0
567.651367188 654.545898438 m 0
 570.993164062 662.828125 572.456054688 663.63671875 584.103515625 663.63671875 c 0
 601.716796875 663.63671875 610.182617188 659.799804688 613.5625 650.284179688 c 0
 616.114257812 643.1015625 615.43359375 640.625 608.250976562 630.965820312 c 0
 603.814453125 625 598.439453125 618.903320312 596.603515625 617.755859375 c 0
 591.854492188 614.787109375 580.978515625 617.443359375 569.614257812 624.346679688 c 0
 559.63671875 630.408203125 559.397460938 634.090820312 567.651367188 654.545898438 c 0
503.421875 779.248046875 m 0
 513.081054688 784.154296875 527.810546875 783.873046875 532.459960938 778.693359375 c 0
 545.256835938 764.438476562 545.349609375 763.920898438 538.184570312 746.590820312 c 0
 533.720703125 735.795898438 532.331054688 734.659179688 523.591796875 734.659179688 c 0
 508.53515625 734.659179688 494.82421875 740.639648438 492.981445312 748.01171875 c 0
 490.282226562 758.806640625 495.825195312 775.388671875 503.421875 779.248046875 c 0
EndSplineSet
EndChar

StartChar: B
Encoding: 66 66 1
Width: 900
Flags: HW
LayerCount: 2
Fore
SplineSet
456.740234375 -92.857421875 m 0
 465.3984375 -78.5712890625 497.866210938 -78.5712890625 497.866210938 -92.857421875 c 0
 497.866210938 -108.333007812 475.807617188 -119.546875 462.15234375 -111.01171875 c 0
 455.008789062 -106.547851562 452.844726562 -99.2861328125 456.740234375 -92.857421875 c 0
369.344726562 -95.23828125 m 0
 366.637695312 -87.2021484375 372.866210938 -80.9521484375 383.580078125 -80.9521484375 c 0
 394.294921875 -80.9521484375 402.627929688 -89.2861328125 402.627929688 -100 c 0
 402.627929688 -121.529296875 376.963867188 -117.857421875 369.344726562 -95.23828125 c 0
266.329101562 -91.6669921875 m 0
 270.250976562 -85.23828125 277.15234375 -80.9521484375 283.580078125 -80.9521484375 c 0
 300.247070312 -80.9521484375 308.818359375 -102.24609375 295.485351562 -110.526367188 c 0
 280.008789062 -120.137695312 257.744140625 -105.736328125 266.329101562 -91.6669921875 c 0
553.818359375 -76.1904296875 m 0
 567.508789062 -62.5 581.19921875 -67.857421875 581.19921875 -86.904296875 c 0
 581.19921875 -96.4287109375 576.19921875 -104.76171875 570.485351562 -104.76171875 c 0
 555.008789062 -104.76171875 544.043945312 -85.96484375 553.818359375 -76.1904296875 c 0
179.529296875 -83.3330078125 m 0
 175.979492188 -72.5224609375 181.794921875 -68.130859375 196.080078125 -70.8330078125 c 0
 207.985351562 -73.0859375 216.737304688 -80.4697265625 215.127929688 -86.904296875 c 0
 210.635742188 -104.874023438 185.784179688 -102.380859375 179.529296875 -83.3330078125 c 0
640.723632812 -57.142578125 m 0
 640.723632812 -41.6669921875 646.567382812 -32.9306640625 655.008789062 -35.787109375 c 0
 674.056640625 -42.234375 674.056640625 -72.0517578125 655.008789062 -78.498046875 c 0
 646.567382812 -81.35546875 640.723632812 -72.619140625 640.723632812 -57.142578125 c 0
183.03125 3.5712890625 m 0
 191.08984375 16.6669921875 224.056640625 17.623046875 224.056640625 4.76171875 c 0
 224.056640625 -12.408203125 210.9609375 -20.0888671875 193.104492188 -13.392578125 c 0
 183.580078125 -9.8212890625 179.263671875 -2.55078125 183.03125 3.5712890625 c 0
682.682617188 39.2861328125 m 0
 688.530273438 48.8095703125 694.294921875 48.8095703125 703.818359375 39.2861328125 c 0
 713.342773438 29.76171875 713.342773438 22.619140625 703.818359375 13.095703125 c 0
 687.903320312 -2.8203125 670.255859375 19.0478515625 682.682617188 39.2861328125 c 0
182.177734375 96.4287109375 m 0
 191.573242188 111.904296875 208.717773438 112.4765625 217.89453125 97.619140625 c 0
 222.030273438 90.9228515625 216.9140625 82.380859375 206.19921875 78.095703125 c 0
 183.580078125 69.0478515625 171.26171875 78.44921875 182.177734375 96.4287109375 c 0
688.342773438 114.286132812 m 0
 688.342773438 125 696.67578125 133.333007812 707.389648438 133.333007812 c 0
 718.104492188 133.333007812 724.33203125 127.083007812 721.625976562 119.047851562 c 0
 714.006835938 96.4287109375 688.342773438 92.7568359375 688.342773438 114.286132812 c 0
178.104492188 180.952148438 m 0
 175.9609375 187.254882812 183.580078125 192.857421875 194.294921875 192.857421875 c 0
 205.008789062 192.857421875 212.056640625 185.57421875 209.270507812 177.380859375 c 0
 203.655273438 160.86328125 184.17578125 163.095703125 178.104492188 180.952148438 c 0
656.19921875 220.486328125 m 0
 674.056640625 226.961914062 688.342773438 219.973632812 688.342773438 204.76171875 c 0
 688.342773438 198.213867188 677.627929688 192.857421875 664.533203125 192.857421875 c 0
 638.342773438 192.857421875 632.590820312 211.92578125 656.19921875 220.486328125 c 0
588.342773438 277.9765625 m 0
 595.66796875 289.422851562 599.018554688 289.286132812 602.858398438 277.380859375 c 0
 608.619140625 259.5234375 596.760742188 244.655273438 585.768554688 255.952148438 c 0
 581.875976562 259.952148438 583.008789062 269.642578125 588.342773438 277.9765625 c 0
188.342773438 270.23828125 m 0
 188.342773438 279.76171875 196.67578125 288.095703125 206.19921875 288.095703125 c 0
 215.723632812 288.095703125 224.056640625 279.76171875 224.056640625 270.23828125 c 0
 224.056640625 260.713867188 215.723632812 252.380859375 206.19921875 252.380859375 c 0
 196.67578125 252.380859375 188.342773438 260.713867188 188.342773438 270.23828125 c 0
463.818359375 288.095703125 m 0
 461.67578125 294.397460938 469.294921875 300 480.008789062 300 c 0
 490.723632812 300 497.9609375 293.27734375 495.389648438 285.713867188 c 0
 489.622070312 268.75 469.889648438 270.23828125 463.818359375 288.095703125 c 0
373.407226562 288.095703125 m 0
 382.065429688 302.380859375 414.533203125 302.380859375 414.533203125 288.095703125 c 0
 414.533203125 272.619140625 392.473632812 261.40625 378.818359375 269.940429688 c 0
 371.67578125 274.404296875 369.510742188 281.666992188 373.407226562 288.095703125 c 0
289.825195312 289.286132812 m 0
 295.672851562 298.809570312 301.4375 298.809570312 310.9609375 289.286132812 c 0
 320.485351562 279.76171875 320.485351562 272.619140625 310.9609375 263.095703125 c 0
 295.045898438 247.1796875 277.3984375 269.047851562 289.825195312 289.286132812 c 0
563.634765625 325 m 0
 569.482421875 334.5234375 575.247070312 334.5234375 584.770507812 325 c 0
 594.294921875 315.4765625 594.294921875 308.333007812 584.770507812 298.809570312 c 0
 568.85546875 282.89453125 551.208007812 304.76171875 563.634765625 325 c 0
625.247070312 364.286132812 m 0
 638.9375 377.9765625 652.627929688 372.619140625 652.627929688 353.571289062 c 0
 652.627929688 344.047851562 647.627929688 335.713867188 641.9140625 335.713867188 c 0
 626.4375 335.713867188 615.47265625 354.51171875 625.247070312 364.286132812 c 0
182.599609375 359.5234375 m 0
 191.776367188 374.380859375 208.920898438 373.809570312 218.31640625 358.333007812 c 0
 229.232421875 340.354492188 216.9140625 330.952148438 194.294921875 340 c 0
 183.580078125 344.286132812 178.463867188 352.827148438 182.599609375 359.5234375 c 0
652.627929688 436.904296875 m 0
 652.627929688 446.428710938 660.9609375 454.76171875 670.485351562 454.76171875 c 0
 680.008789062 454.76171875 688.342773438 446.428710938 688.342773438 436.904296875 c 0
 688.342773438 427.380859375 680.008789062 419.047851562 670.485351562 419.047851562 c 0
 660.9609375 419.047851562 652.627929688 427.380859375 652.627929688 436.904296875 c 0
188.342773438 450 m 0
 188.342773438 460.713867188 194.592773438 466.942382812 202.627929688 464.235351562 c 0
 225.247070312 456.616210938 228.918945312 430.952148438 207.389648438 430.952148438 c 0
 196.67578125 430.952148438 188.342773438 439.286132812 188.342773438 450 c 0
660.366210938 530.357421875 m 0
 674.354492188 544.345703125 688.342773438 539.286132812 688.342773438 520.23828125 c 0
 688.342773438 510.713867188 680.008789062 502.380859375 670.485351562 502.380859375 c 0
 651.4375 502.380859375 646.377929688 516.369140625 660.366210938 530.357421875 c 0
194.111328125 550 m 0
 198.506835938 557.142578125 205.723632812 561.904296875 212.15234375 561.904296875 c 0
 226.4375 561.904296875 227.377929688 529.630859375 213.342773438 521.024414062 c 0
 199.2734375 512.396484375 184.587890625 534.5234375 194.111328125 550 c 0
605.008789062 591.666992188 m 0
 605.008789062 601.190429688 613.342773438 609.5234375 622.866210938 609.5234375 c 0
 632.389648438 609.5234375 640.723632812 601.190429688 640.723632812 591.666992188 c 0
 640.723632812 582.142578125 632.389648438 573.809570312 622.866210938 573.809570312 c 0
 613.342773438 573.809570312 605.008789062 582.142578125 605.008789062 591.666992188 c 0
539.825195312 634.5234375 m 0
 545.672851562 644.047851562 551.4375 644.047851562 560.9609375 634.5234375 c 0
 570.485351562 625 570.485351562 617.857421875 560.9609375 608.333007812 c 0
 545.045898438 592.41796875 527.3984375 614.286132812 539.825195312 634.5234375 c 0
195.485351562 636.904296875 m 0
 209.770507812 651.190429688 224.056640625 646.428710938 224.056640625 627.380859375 c 0
 224.056640625 617.857421875 215.723632812 609.5234375 206.19921875 609.5234375 c 0
 187.15234375 609.5234375 181.794921875 623.213867188 195.485351562 636.904296875 c 0
450.247070312 639.286132812 m 0
 450.247070312 650 455.849609375 657.619140625 462.15234375 655.4765625 c 0
 480.008789062 649.404296875 482.241210938 629.92578125 465.723632812 624.309570312 c 0
 457.530273438 621.5234375 450.247070312 628.571289062 450.247070312 639.286132812 c 0
346.196289062 642.857421875 m 0
 342.646484375 653.66796875 348.4609375 658.059570312 362.747070312 655.357421875 c 0
 374.65234375 653.104492188 383.403320312 645.720703125 381.794921875 639.286132812 c 0
 377.302734375 621.31640625 352.450195312 623.809570312 346.196289062 642.857421875 c 0
266.329101562 646.428710938 m 0
 270.250976562 652.857421875 277.15234375 657.142578125 283.580078125 657.142578125 c 0
 300.247070312 657.142578125 308.818359375 635.849609375 295.485351562 627.569335938 c 0
 280.008789062 617.95703125 257.744140625 632.359375 266.329101562 646.428710938 c 0
EndSplineSet
EndChar

StartChar: C
Encoding: 67 67 2
Width: 1000
Flags: H
LayerCount: 2
Back
Fore
SplineSet
532.028320312 -141.91796875 m 0
 534.796875 -138.802734375 540.248046875 -136.986328125 546.823242188 -136.986328125 c 0
 555.31640625 -136.986328125 558.51171875 -138.651367188 564.16796875 -146.02734375 c 0
 576.614257812 -162.2578125 567.918945312 -184.409179688 548.193359375 -186.723632812 c 0
 538.705078125 -187.836914062 536.96875 -186.986328125 528.604492188 -177.123046875 c 0
 519.541992188 -166.438476562 519.477539062 -166.178710938 523.53515625 -156.575195312 c 0
 525.850585938 -151.095703125 529.559570312 -144.696289062 532.028320312 -141.91796875 c 0
654.083007812 -131.370117188 m 2
 662.713867188 -124.109375 l 1
 675.31640625 -129.579101562 l 2
 690.758789062 -136.280273438 691.754882812 -137.80859375 691.754882812 -154.794921875 c 0
 691.754882812 -167.397460938 690.975585938 -169.221679688 683.809570312 -173.401367188 c 0
 671.20703125 -180.75390625 660.78515625 -179.38671875 650.557617188 -169.041015625 c 0
 642.87890625 -161.272460938 642.094726562 -159.041015625 643.672851562 -149.452148438 c 0
 644.934570312 -141.78125 647.965820312 -136.516601562 654.083007812 -131.370117188 c 2
405.133789062 -130.684570312 m 0
 410.395507812 -125.040039062 414.494140625 -123.288085938 422.439453125 -123.288085938 c 0
 431.20703125 -123.288085938 434.212890625 -124.931640625 441.48046875 -133.698242188 c 0
 449.4296875 -143.288085938 449.869140625 -144.888671875 447.053710938 -153.97265625 c 0
 441.533203125 -171.78125 413.11328125 -178.892578125 399.973632812 -165.75390625 c 0
 390.2265625 -156.005859375 391.85546875 -144.931640625 405.133789062 -130.684570312 c 0
747.645507812 -91.78125 m 0
 756.221679688 -83.2041015625 767.37109375 -83.013671875 779.700195312 -91.232421875 c 0
 790.662109375 -98.541015625 793.084960938 -110.13671875 786.340820312 -123.013671875 c 0
 782.21484375 -130.889648438 780.795898438 -131.506835938 766.823242188 -131.506835938 c 0
 747.918945312 -131.506835938 741.069335938 -125.604492188 741.069335938 -109.315429688 c 0
 741.069335938 -101.370117188 742.877929688 -96.5478515625 747.645507812 -91.78125 c 0
303.26171875 -70.7158203125 m 0
 310.181640625 -64.216796875 313.809570312 -62.8916015625 322.850585938 -63.5615234375 c 0
 331.891601562 -64.2314453125 335.087890625 -66.0830078125 340.111328125 -73.5615234375 c 0
 345.815429688 -82.0546875 345.978515625 -83.3330078125 342.302734375 -90.6845703125 c 0
 340.111328125 -95.068359375 335.13671875 -100.65625 331.20703125 -103.150390625 c 0
 325.045898438 -107.060546875 322.713867188 -107.19140625 313.946289062 -104.123046875 c 0
 292.576171875 -96.6435546875 288.66796875 -84.421875 303.26171875 -70.7158203125 c 0
832.302734375 -11.0498046875 m 0
 838.947265625 -6.6201171875 844.220703125 -5.470703125 854.083007812 -6.3017578125 c 0
 861.20703125 -6.9013671875 867.779296875 -8.0791015625 868.604492188 -8.904296875 c 0
 869.4453125 -9.74609375 870.836914062 -17.123046875 871.754882812 -25.6162109375 c 0
 873.32421875 -40.13671875 873.00390625 -41.19140625 864.631835938 -49.0263671875 c 0
 852.576171875 -60.306640625 837.333007812 -60.900390625 829.0625 -50.4111328125 c 0
 817.181640625 -35.3427734375 818.418945312 -20.3056640625 832.302734375 -11.0498046875 c 0
197.5078125 49.0185546875 m 0
 202.19921875 52.681640625 209.014648438 54.794921875 216.138671875 54.794921875 c 0
 225.727539062 54.794921875 228.473632812 53.4111328125 234.905273438 45.3427734375 c 0
 242.439453125 35.890625 242.439453125 35.890625 237.923828125 24.6572265625 c 0
 232.966796875 12.3291015625 228.741210938 9.1142578125 216.412109375 8.2919921875 c 0
 203.53515625 7.43359375 202.720703125 7.8671875 196.440429688 18.904296875 c 0
 188.334960938 33.150390625 188.65234375 42.103515625 197.5078125 49.0185546875 c 0
158.604492188 187.5625 m 0
 171.754882812 193.33203125 180.922851562 192.409179688 190.932617188 184.305664062 c 0
 195.864257812 180.313476562 200.471679688 176.622070312 201.069335938 176.184570312 c 0
 203.439453125 174.450195312 195.041992188 152.602539062 190.111328125 147.670898438 c 0
 181.3828125 138.942382812 165.791015625 140.547851562 155.516601562 151.232421875 c 0
 147.631835938 159.432617188 146.9765625 161.370117188 148.466796875 172.0546875 c 0
 149.84375 181.91796875 151.493164062 184.442382812 158.604492188 187.5625 c 0
137.876953125 310.411132812 m 0
 150.1328125 324.423828125 182.086914062 308.21875 178.39453125 289.86328125 c 0
 177.458007812 285.205078125 176.686523438 279.76171875 176.686523438 277.80859375 c 0
 176.686523438 272.012695312 161.891601562 265.75390625 148.193359375 265.75390625 c 0
 138.604492188 265.75390625 134.9296875 267.092773438 131.659179688 271.78125 c 0
 124.350585938 282.255859375 126.854492188 297.80859375 137.876953125 310.411132812 c 0
140.248046875 435.291015625 m 0
 154.768554688 447.272460938 166.178710938 446.838867188 174.91796875 433.97265625 c 0
 180.315429688 426.02734375 181.15625 422.51171875 179.243164062 415.890625 c 0
 175.733398438 403.740234375 169.5625 398.197265625 155.590820312 394.643554688 c 0
 148.741210938 392.900390625 143.005859375 391.872070312 142.685546875 392.329101562 c 0
 127.130859375 414.520507812 126.591796875 424.021484375 140.248046875 435.291015625 c 0
185.434570312 543.013671875 m 2
 188.741210938 553.97265625 l 1
 202.439453125 552.41015625 l 2
 221.618164062 550.221679688 229.989257812 543.456054688 231.017578125 529.315429688 c 0
 232.18359375 513.275390625 222.987304688 504.109375 205.727539062 504.109375 c 0
 195.590820312 504.109375 192.400390625 505.375976562 187.786132812 511.232421875 c 0
 181.310546875 519.452148438 180.72265625 527.397460938 185.434570312 543.013671875 c 2
245.727539062 646.795898438 m 0
 256.03515625 655.509765625 260.521484375 654.583007812 276.686523438 640.403320312 c 2
 289.014648438 629.588867188 l 1
 280.833984375 617.80859375 l 2
 271.130859375 603.8359375 264.8671875 601.1875 251.754882812 605.513671875 c 0
 244.631835938 607.86328125 240.786132812 611.430664062 237.913085938 618.356445312 c 0
 233.025390625 630.13671875 235.14453125 637.849609375 245.727539062 646.795898438 c 0
830.932617188 653.232421875 m 0
 842.439453125 659.521484375 850.254882812 658.44140625 859.262695312 649.315429688 c 0
 866.48046875 642.001953125 867.430664062 639.452148438 866.09765625 630.958984375 c 0
 864.028320312 617.763671875 857.782226562 611.725585938 842.987304688 608.6171875 c 0
 831.48046875 606.200195312 830.241210938 606.501953125 824.395507812 613.150390625 c 0
 813.23828125 625.838867188 816.412109375 645.295898438 830.932617188 653.232421875 c 0
759.700195312 706.711914062 m 0
 765.1796875 709.600585938 773.61328125 712.118164062 778.055664062 712.19140625 c 0
 785.010742188 712.307617188 787.053710938 710.684570312 791.336914062 701.643554688 c 0
 798.21484375 687.123046875 795.444335938 677.208984375 781.891601562 667.845703125 c 0
 771.20703125 660.462890625 770.70703125 660.380859375 761.891601562 664.544921875 c 0
 750.111328125 670.111328125 741.72265625 686.96875 746.430664062 695.616210938 c 0
 748.124023438 698.7265625 754.220703125 703.82421875 759.700195312 706.711914062 c 0
337.782226562 734.68359375 m 0
 341.891601562 738.702148438 347.005859375 741.357421875 349.2890625 740.65625 c 0
 373.125 733.340820312 372.815429688 733.571289062 375.864257812 720.822265625 c 0
 378.681640625 709.041015625 378.385742188 707.59375 371.334960938 698.629882812 c 0
 359.239257812 683.254882812 337.401367188 684.657226562 328.681640625 701.370117188 c 0
 323.146484375 711.977539062 326.275390625 723.428710938 337.782226562 734.68359375 c 0
679.15234375 767.743164062 m 0
 699.15234375 770.848632812 714.965820312 758.751953125 712.1953125 742.465820312 c 0
 709.259765625 725.205078125 704.333007812 720.547851562 689.014648438 720.547851562 c 0
 676.959960938 720.547851562 675.16796875 721.358398438 671.450195312 728.493164062 c 0
 666.352539062 738.274414062 666.182617188 742.465820312 670.317382812 756.438476562 c 0
 672.42578125 763.561523438 675.215820312 767.131835938 679.15234375 767.743164062 c 0
462.713867188 778.361328125 m 0
 476.138671875 784.51171875 489.014648438 785.313476562 489.014648438 780 c 0
 489.014648438 777.926757812 491.34375 774.024414062 494.083007812 771.506835938 c 0
 498.055664062 767.856445312 498.751953125 764.657226562 497.301757812 756.711914062 c 0
 494.100585938 739.177734375 487.848632812 732.234375 475.041992188 731.993164062 c 0
 465.727539062 731.817382812 462.436523438 733.27734375 455.766601562 740.547851562 c 0
 442.596679688 754.904296875 445.453125 770.454101562 462.713867188 778.361328125 c 0
577.5078125 784.989257812 m 0
 590.384765625 790.62890625 603.178710938 790.12109375 606.5546875 783.8359375 c 0
 611.8515625 773.97265625 610.07421875 759.141601562 602.713867188 751.78125 c 0
 589.2578125 738.325195312 562.987304688 745.75390625 562.987304688 763.013671875 c 0
 562.987304688 773.424804688 567.828125 780.75 577.5078125 784.989257812 c 0
EndSplineSet
EndChar

StartChar: F
Encoding: 70 70 3
Width: 1000
Flags: H
LayerCount: 2
Fore
SplineSet
217.06640625 -120.040039062 m 0
 231.755859375 -112.833984375 235.159179688 -113.373046875 245.75390625 -124.576171875 c 0
 253.95703125 -133.25 252.680664062 -145.197265625 242.073242188 -159.0390625 c 0
 236.1953125 -166.708984375 233.733398438 -167.88671875 225.823242188 -166.807617188 c 0
 212.625976562 -165.0078125 203.997070312 -153.955078125 203.881835938 -138.700195312 c 0
 203.793945312 -127.0703125 204.354492188 -126.276367188 217.06640625 -120.040039062 c 0
222.999023438 -1.6953125 m 0
 228.245117188 3.955078125 231.998046875 5.73046875 236.134765625 4.51953125 c 0
 239.2421875 3.6103515625 244.01953125 2.30078125 246.4453125 1.6953125 c 0
 248.98046875 1.0615234375 253.259765625 -4.51953125 256.19140625 -11.0166015625 c 0
 261.162109375 -22.0341796875 261.169921875 -23.0537109375 256.356445312 -31.9208984375 c 0
 247.086914062 -48.99609375 223.010742188 -48.0224609375 214.434570312 -30.2255859375 c 0
 209.403320312 -19.7841796875 210.932617188 -14.689453125 222.999023438 -1.6953125 c 0
221.869140625 102.395507812 m 0
 229.630859375 105.530273438 232.038085938 105.64453125 243.055664062 103.40234375 c 0
 254.966796875 100.977539062 260.9765625 89.5478515625 258.508789062 74.01171875 c 0
 256.221679688 59.607421875 245.59765625 52.9814453125 229.213867188 55.740234375 c 0
 205.202148438 59.7822265625 199.891601562 93.5205078125 221.869140625 102.395507812 c 0
217.9140625 215.577148438 m 0
 229.778320312 218.966796875 235.15625 218.315429688 245.879882812 212.1875 c 2
 256.33203125 206.21484375 l 1
 253.790039062 189.971679688 l 2
 251.490234375 175.282226562 250.3828125 173.41796875 242.208007812 170.48046875 c 0
 237.201171875 168.680664062 229.072265625 167.231445312 223.987304688 167.231445312 c 0
 216.08203125 167.231445312 214.213867188 168.64453125 210.53515625 177.401367188 c 0
 204.247070312 192.373046875 208.1953125 212.80078125 217.9140625 215.577148438 c 0
649.834960938 323.46875 m 0
 669.043945312 326.481445312 672.022460938 325.676757812 678.129882812 315.819335938 c 0
 685.830078125 303.389648438 685.504882812 298.833007812 676.209960938 288.983398438 c 0
 670.934570312 283.393554688 664.665039062 280.252929688 656.473632812 279.095703125 c 0
 644.609375 277.420898438 644.3984375 277.5390625 638.53515625 289.124023438 c 0
 632.817382812 300.423828125 632.782226562 301.235351562 637.546875 311.58203125 c 0
 641.059570312 319.208984375 644.616210938 322.649414062 649.834960938 323.46875 c 0
540.795898438 321.221679688 m 0
 556.897460938 328.154296875 566.311523438 325.967773438 572.5703125 313.841796875 c 0
 578.40234375 302.541992188 577.614257812 291.610351562 570.412109375 283.8984375 c 0
 559.5078125 272.22265625 541.76953125 277.401367188 532.677734375 294.915039062 c 0
 526.518554688 306.779296875 529.470703125 316.345703125 540.795898438 321.221679688 c 0
426.106445312 318.124023438 m 0
 440.23046875 327.728515625 446.828125 327.1953125 458.080078125 315.537109375 c 2
 467.349609375 305.932617188 l 1
 460.65625 292.655273438 l 2
 451.68359375 274.858398438 447.513671875 272.60546875 432.603515625 277.494140625 c 0
 419.362304688 281.834960938 415.654296875 287.005859375 415.654296875 301.129882812 c 0
 415.654296875 309.4140625 417.349609375 312.169921875 426.106445312 318.124023438 c 0
307.412109375 315.537109375 m 0
 312.676757812 326.723632812 315.936523438 327.373046875 334.581054688 320.955078125 c 0
 345.879882812 317.064453125 348.278320312 314.848632812 350.682617188 306.073242188 c 0
 353.391601562 296.186523438 353.100585938 295.385742188 343.620117188 286.58203125 c 0
 335.861328125 279.376953125 331.33203125 277.401367188 322.575195312 277.401367188 c 0
 312.970703125 277.401367188 310.817382812 278.541992188 307.110351562 285.592773438 c 0
 301.494140625 296.278320312 301.563476562 303.107421875 307.412109375 315.537109375 c 0
211.465820312 315.537109375 m 0
 215.853515625 324.663085938 217.208007812 325.413085938 229.072265625 325.282226562 c 0
 239.2421875 325.170898438 243.989257812 323.401367188 251.8125 316.807617188 c 2
 261.69921875 308.474609375 l 1
 255.060546875 295.904296875 l 2
 250.5859375 287.4296875 245.661132812 282.374023438 239.948242188 280.388671875 c 0
 227.518554688 276.0703125 215.088867188 276.553710938 215.088867188 281.35546875 c 0
 215.088867188 283.46484375 213.112304688 286.944335938 210.8515625 288.811523438 c 0
 205.267578125 293.423828125 205.490234375 303.107421875 211.465820312 315.537109375 c 0
220.456054688 427.614257812 m 0
 231.482421875 437.486328125 241.078125 437.639648438 253.506835938 428.140625 c 0
 264.91015625 419.42578125 266.184570312 408.474609375 257.272460938 395.762695312 c 0
 252.299804688 388.668945312 249.693359375 387.5703125 237.829101562 387.5703125 c 0
 229.072265625 387.5703125 222.905273438 389.099609375 220.739257812 391.807617188 c 0
 218.930664062 394.067382812 215.635742188 396.044921875 213.676757812 396.044921875 c 0
 211.141601562 396.044921875 210.266601562 399.717773438 210.8515625 407.909179688 c 0
 211.498046875 416.94921875 213.784179688 421.640625 220.456054688 427.614257812 c 0
217.349609375 552.750976562 m 0
 230.34375 561.299804688 230.34375 561.299804688 243.337890625 553.987304688 c 0
 264.893554688 541.856445312 262.264648438 515 239.100585938 510.696289062 c 0
 222.999023438 507.704101562 214.106445312 510.8828125 208.169921875 521.750976562 c 0
 201.237304688 534.442382812 204.072265625 544.015625 217.349609375 552.750976562 c 0
211.275390625 641.94921875 m 0
 220.59765625 651.029296875 223.563476562 652.39453125 232.038085938 651.506835938 c 0
 244.122070312 650.240234375 251.8125 641.525390625 251.8125 629.095703125 c 0
 251.8125 614.971679688 249.270507812 610.734375 240.795898438 610.734375 c 0
 236.55859375 610.734375 231.913085938 609.478515625 230.34375 607.909179688 c 0
 226.909179688 604.475585938 208.282226562 616.666992188 203.583007812 625.423828125 c 0
 200.772460938 630.662109375 201.670898438 632.59375 211.275390625 641.94921875 c 0
760.287109375 749.858398438 m 0
 760.287109375 751 765.372070312 751.977539062 771.303710938 751.977539062 c 0
 783.55859375 751.977539062 788.583007812 747.740234375 795.087890625 731.920898438 c 0
 799.038085938 722.31640625 798.932617188 721.3515625 793.196289062 714.547851562 c 0
 789.883789062 710.619140625 783.591796875 705.09765625 779.354492188 702.401367188 c 0
 772.116210938 697.794921875 770.739257812 697.78515625 759.157226562 702.259765625 c 0
 748.987304688 706.189453125 746.409179688 708.654296875 744.9765625 715.819335938 c 0
 741.5859375 732.768554688 742.879882812 737.901367188 751.8125 742.950195312 c 0
 756.614257812 745.6640625 760.287109375 748.658203125 760.287109375 749.858398438 c 0
567.349609375 752.348632812 m 0
 574.584960938 755.212890625 575.541015625 755.099609375 585.993164062 750.15625 c 0
 593.055664062 746.81640625 596.370117188 743.05859375 597.595703125 737.005859375 c 0
 600.33984375 723.446289062 599.708984375 720.857421875 591.92578125 713.704101562 c 0
 582.603515625 705.138671875 561.044921875 703.891601562 555.229492188 711.58203125 c 0
 547 722.465820312 554.354492188 747.204101562 567.349609375 752.348632812 c 0
457.461914062 751.186523438 m 0
 469.068359375 755.829101562 469.609375 755.65625 482.321289062 743.236328125 c 0
 493.620117188 732.197265625 493.830078125 731.65234375 490.936523438 720.904296875 c 0
 488.502929688 711.864257812 486.069335938 709.1015625 477.376953125 705.508789062 c 0
 467.598632812 701.466796875 465.795898438 701.553710938 453.930664062 706.638671875 c 0
 443.479492188 711.118164062 441.078125 713.465820312 441.078125 719.208984375 c 0
 441.078125 731.920898438 449.270507812 747.909179688 457.461914062 751.186523438 c 0
333.16796875 751.416992188 m 0
 347.575195312 755.42578125 359.5546875 753.021484375 366.967773438 744.6328125 c 0
 374.802734375 735.766601562 374.938476562 729.37890625 367.596679688 714.971679688 c 0
 362.557617188 705.084960938 360.91015625 703.955078125 351.530273438 703.955078125 c 0
 340.23046875 703.955078125 325.010742188 712.092773438 322.474609375 719.491210938 c 0
 321.681640625 721.802734375 321.470703125 729.37890625 322.009765625 736.158203125 c 0
 322.931640625 747.740234375 323.692382812 748.780273438 333.16796875 751.416992188 c 0
220.739257812 751.083984375 m 0
 229.384765625 755.546875 237.405273438 753.901367188 252.376953125 744.594726562 c 0
 260.004882812 739.853515625 263.125976562 736.147460938 261.981445312 733.192382812 c 0
 261.063476562 730.8203125 259.506835938 725.706054688 258.583984375 722.034179688 c 0
 255.037109375 707.909179688 221.692382812 701.141601562 214.049804688 712.994140625 c 0
 204.213867188 728.249023438 206.9765625 743.981445312 220.739257812 751.083984375 c 0
663.39453125 751.553710938 m 0
 671.021484375 755.266601562 675.764648438 755.991210938 679.778320312 754.0546875 c 0
 688.252929688 749.966796875 698.139648438 740.177734375 698.139648438 735.875976562 c 0
 698.139648438 728.171875 684.297851562 710.185546875 676.388671875 707.611328125 c 0
 664.2421875 703.659179688 661.243164062 704.698242188 651.901367188 716.1015625 c 0
 643.337890625 726.553710938 643.337890625 726.553710938 647.999023438 736.440429688 c 0
 650.942382812 742.685546875 656.614257812 748.252929688 663.39453125 751.553710938 c 0
EndSplineSet
EndChar

StartChar: G
Encoding: 71 71 4
Width: 1000
Flags: H
LayerCount: 2
Back
Fore
SplineSet
627.337890625 -136.97265625 m 0
 634.5546875 -131.916015625 653.690429688 -131.84375 658.65234375 -136.85546875 c 0
 664.265625 -142.525390625 666.536132812 -155.66015625 662.708007812 -160.309570312 c 0
 658.302734375 -165.658203125 646.15234375 -171.649414062 639.708984375 -171.649414062 c 0
 624.502929688 -171.649414062 615.172851562 -145.497070312 627.337890625 -136.97265625 c 0
513.162109375 -119.05859375 m 0
 515.401367188 -118.366210938 521.41015625 -118.26171875 526.306640625 -118.830078125 c 0
 548.987304688 -121.462890625 555.874023438 -140.234375 539.193359375 -153.956054688 c 0
 530.172851562 -161.376953125 520.227539062 -163.5546875 517.24609375 -158.762695312 c 0
 516.291015625 -157.227539062 512.647460938 -154.805664062 509.296875 -153.479492188 c 0
 504.34765625 -151.520507812 503.111328125 -149.2265625 503.111328125 -142.010742188 c 0
 503.111328125 -131.185546875 507.6796875 -120.752929688 513.162109375 -119.05859375 c 0
721.41015625 -114.123046875 m 0
 729.657226562 -111.982421875 737.3359375 -112.34375 738.916992188 -114.948242188 c 0
 739.74609375 -116.3125 742.543945312 -117.525390625 744.86328125 -117.525390625 c 0
 756.9765625 -117.525390625 757.909179688 -141.763671875 746.15234375 -151.024414062 c 0
 737.61328125 -157.750976562 729.399414062 -157.571289062 718.317382812 -150.413085938 c 0
 711.616210938 -146.0859375 709.296875 -142.732421875 709.296875 -137.37109375 c 0
 709.296875 -127.834960938 715.6640625 -115.615234375 721.41015625 -114.123046875 c 0
381.71875 -93.388671875 m 0
 392.286132812 -90.642578125 408.739257812 -91.998046875 413.162109375 -95.9794921875 c 0
 424.083007812 -105.80859375 415.482421875 -133.194335938 401.564453125 -132.90625 c 0
 392.028320312 -132.708984375 378.557617188 -124.354492188 376.765625 -117.525390625 c 0
 374.1953125 -107.732421875 376.880859375 -94.6455078125 381.71875 -93.388671875 c 0
801.435546875 -90.8505859375 m 0
 803.885742188 -90.220703125 810.713867188 -89.5732421875 816.383789062 -89.4326171875 c 0
 824.889648438 -89.22265625 828.158203125 -90.5830078125 834.0390625 -96.7783203125 c 0
 839.943359375 -102.999023438 840.9765625 -105.927734375 839.72265625 -112.88671875 c 0
 836.936523438 -128.350585938 831.818359375 -132.989257812 817.543945312 -132.989257812 c 0
 801.372070312 -132.989257812 796.92578125 -127.319335938 796.92578125 -106.701171875 c 0
 796.92578125 -94.845703125 797.795898438 -91.7861328125 801.435546875 -90.8505859375 c 0
269.86328125 -23.931640625 m 0
 276.306640625 -22.2294921875 289.537109375 -24.0546875 292.543945312 -27.0615234375 c 0
 296.118164062 -30.6357421875 299.6640625 -50 297.971679688 -56.701171875 c 0
 296.66015625 -61.896484375 294.34765625 -63.1748046875 283.5234375 -64.6904296875 c 0
 271.66796875 -66.3505859375 270.0390625 -65.9228515625 263.162109375 -59.3505859375 c 0
 250.306640625 -47.0615234375 253.883789062 -28.154296875 269.86328125 -23.931640625 c 0
798.987304688 1.1337890625 m 0
 806.922851562 7.3603515625 812.131835938 7.525390625 823.729492188 1.9169921875 c 0
 831.540039062 -1.859375 832.604492188 -3.6083984375 833.5234375 -14.1748046875 c 0
 834.352539062 -23.7109375 833.408203125 -27.1904296875 828.696289062 -31.958984375 c 0
 819.999023438 -40.7587890625 805.322265625 -39.9482421875 796.028320312 -30.154296875 c 0
 789.920898438 -23.71875 789.16796875 -21.3916015625 790.611328125 -13.40234375 c 0
 791.587890625 -7.9892578125 795.078125 -1.9326171875 798.987304688 1.1337890625 c 0
200.018554688 87.37109375 m 0
 205.146484375 92.4990234375 209.0390625 93.814453125 219.08984375 93.814453125 c 0
 234.811523438 93.814453125 239.361328125 90.2802734375 240.983398438 76.8037109375 c 0
 242.099609375 67.525390625 241.291992188 65.0322265625 235.327148438 59.3515625 c 0
 226.016601562 50.484375 213.935546875 50.458984375 202.337890625 59.2841796875 c 0
 191.512695312 67.5205078125 190.647460938 78 200.018554688 87.37109375 c 0
801.564453125 103.674804688 m 0
 809.193359375 108.157226562 813.419921875 108.943359375 822.698242188 107.603515625 c 0
 829.141601562 106.672851562 834.46875 105.813476562 834.682617188 105.669921875 c 0
 834.896484375 105.52734375 835.875976562 100 836.874023438 93.298828125 c 0
 838.524414062 82.216796875 838.025390625 80.52734375 831.01171875 73.453125 c 0
 817.665039062 59.9931640625 801.928710938 63.66015625 792.299804688 82.474609375 c 0
 788.166992188 90.5498046875 791.254882812 97.6162109375 801.564453125 103.674804688 c 0
806.9765625 218.380859375 m 0
 826.822265625 223.73828125 842.450195312 213.880859375 839.795898438 197.680664062 c 0
 837.895507812 186.08203125 834.296875 182.068359375 822.698242188 178.61328125 c 0
 814.708984375 176.233398438 812.034179688 176.512695312 806.204101562 180.33203125 c 0
 795.817382812 187.13671875 793.301757812 196.133789062 798.543945312 207.732421875 c 0
 800.873046875 212.88671875 804.748046875 217.779296875 806.9765625 218.380859375 c 0
726.822265625 228.61328125 m 0
 730.688476562 229.18359375 734.983398438 229.810546875 736.487304688 230.025390625 c 0
 738.004882812 230.2421875 742.252929688 225.7734375 746.163085938 219.845703125 c 0
 753.50390625 208.71484375 753.540039062 203.608398438 746.356445312 192.267578125 c 0
 737.64453125 178.514648438 709.296875 189.948242188 709.296875 207.216796875 c 0
 709.296875 216.495117188 718.1796875 227.33984375 726.822265625 228.61328125 c 0
613.866210938 228.866210938 m 0
 617.611328125 233.403320312 633.622070312 229.896484375 638.579101562 223.453125 c 0
 645.379882812 214.612304688 645.576171875 207.732421875 639.349609375 196.391601562 c 0
 633.83203125 186.33984375 632.306640625 185.309570312 622.956054688 185.309570312 c 0
 615.482421875 185.309570312 610.485351562 187.258789062 604.786132812 192.396484375 c 0
 597.504882812 198.961914062 597.030273438 200.38671875 598.342773438 211.7265625 c 0
 599.506835938 221.778320312 600.775390625 224.107421875 605.430664062 224.7421875 c 0
 608.5234375 225.1640625 612.357421875 227.038085938 613.866210938 228.866210938 c 0
494.08984375 227.202148438 m 2
 500.791015625 232.474609375 l 1
 515.868164062 227.448242188 l 2
 530.043945312 222.723632812 531.053710938 221.829101562 532.75 212.5 c 0
 534.203125 204.510742188 533.575195312 201.598632812 529.528320312 197.551757812 c 0
 526.693359375 194.716796875 524.053710938 191.177734375 523.471679688 189.432617188 c 0
 522.904296875 187.732421875 517.801757812 185.763671875 512.131835938 185.05859375 c 0
 485.584960938 181.7578125 473.174804688 210.748046875 494.08984375 227.202148438 c 2
168.059570312 233.846679688 m 0
 173.729492188 236.083984375 190.868164062 233.857421875 195.12109375 230.331054688 c 0
 200.018554688 226.26953125 200.212890625 201.150390625 195.37890625 197.122070312 c 0
 193.525390625 195.577148438 186.616210938 193.581054688 179.915039062 192.654296875 c 0
 169.60546875 191.228515625 166.841796875 191.884765625 161.358398438 197.05859375 c 0
 150.744140625 207.07421875 154.657226562 228.557617188 168.059570312 233.846679688 c 0
161.100585938 372.760742188 m 0
 170.12109375 377.640625 192.013671875 377.591796875 196.92578125 372.680664062 c 0
 198.342773438 371.262695312 200.083007812 365.463867188 200.791015625 359.793945312 c 0
 201.88671875 351.03125 201.036132812 348.440429688 195.12109375 342.525390625 c 0
 189.08984375 336.495117188 186.616210938 335.741210938 176.564453125 336.875 c 0
 161.616210938 338.560546875 153.6484375 346.022460938 153.193359375 358.762695312 c 0
 152.899414062 367.010742188 153.967773438 368.90234375 161.100585938 372.760742188 c 0
215.740234375 505.154296875 m 0
 234.885742188 524.30078125 264.584960938 495.618164062 247.764648438 474.2265625 c 0
 239.591796875 463.833984375 225.845703125 464.690429688 214.6875 476.2890625 c 0
 204.876953125 486.485351562 205.172851562 494.587890625 215.740234375 505.154296875 c 0
809.5546875 576.787109375 m 0
 816.770507812 578.810546875 834.053710938 575.478515625 838.935546875 571.122070312 c 0
 841.703125 568.65234375 844.817382812 564.174804688 846.096679688 560.825195312 c 0
 849.006835938 553.208007812 843.059570312 538.67578125 835.327148438 534.509765625 c 0
 822.956054688 527.84375 799.502929688 538.491210938 799.502929688 550.7734375 c 0
 799.502929688 560.309570312 805.421875 575.62890625 809.5546875 576.787109375 c 0
309.811523438 615.159179688 m 0
 321.15234375 620.775390625 331.857421875 619.110351562 340.997070312 610.309570312 c 0
 347.6171875 603.935546875 347.807617188 603.092773438 344.901367188 593.041015625 c 0
 340.715820312 578.559570312 329.657226562 571.923828125 313.677734375 574.303710938 c 0
 302.853515625 575.916015625 302.046875 576.581054688 301.583984375 584.278320312 c 0
 300.064453125 609.536132812 300.30859375 610.453125 309.811523438 615.159179688 c 0
738.677734375 639.055664062 m 0
 748.987304688 643.556640625 748.987304688 643.556640625 757.75 636.224609375 c 0
 772.182617188 624.147460938 773.092773438 606.658203125 759.5546875 601.552734375 c 0
 745.89453125 596.400390625 738.8671875 598.37109375 729.248046875 610.051757812 c 2
 720.12109375 621.133789062 l 1
 725.404296875 628.350585938 l 2
 728.301757812 632.307617188 734.296875 637.142578125 738.677734375 639.055664062 c 0
415.997070312 673.635742188 m 0
 422.237304688 679.508789062 437.131835938 680.609375 447.440429688 675.959960938 c 0
 453.3046875 673.315429688 454.141601562 671.391601562 454.141601562 660.567382812 c 0
 454.141601562 645.103515625 446.8359375 638.797851562 431.71875 641.216796875 c 0
 426.306640625 642.08203125 419.331054688 642.783203125 416.125976562 642.783203125 c 0
 410.854492188 642.783203125 410.327148438 643.943359375 410.327148438 655.541015625 c 0
 410.327148438 665.334960938 411.64453125 669.5390625 415.997070312 673.635742188 c 0
646.516601562 687.11328125 m 0
 655.001953125 695.974609375 667.028320312 696.73046875 676.822265625 689.017578125 c 0
 691.30078125 677.615234375 681.9765625 653.092773438 663.162109375 653.092773438 c 0
 641.770507812 653.092773438 632.358398438 672.329101562 646.516601562 687.11328125 c 0
524.245117188 701.639648438 m 0
 532.647460938 706.987304688 533.78125 706.951171875 551.822265625 700.770507812 c 0
 560.659179688 697.743164062 560.829101562 697.422851562 560.177734375 685.051757812 c 0
 559.092773438 664.432617188 558.36328125 663.40234375 544.86328125 663.40234375 c 0
 537.389648438 663.40234375 529.541992188 665.375976562 524.374023438 668.556640625 c 0
 516.94921875 673.125976562 515.997070312 675 515.997070312 685.051757812 c 0
 515.997070312 695.103515625 516.934570312 696.98828125 524.245117188 701.639648438 c 0
EndSplineSet
EndChar

StartChar: H
Encoding: 72 72 5
Width: 1000
Flags: H
LayerCount: 2
Back
Fore
SplineSet
796.232421875 -82.80078125 m 0
 800.655273438 -81.216796875 804.69140625 -79.7958984375 804.955078125 -79.7294921875 c 0
 805.223632812 -79.6630859375 810.974609375 -80.779296875 817.608398438 -82.1865234375 c 0
 829.6484375 -84.740234375 829.787109375 -84.8759765625 831.34765625 -95.5771484375 c 0
 833.067382812 -107.37109375 832.381835938 -109.336914062 822.435546875 -121.129882812 c 2
 816.01171875 -128.747070312 l 1
 804.709960938 -123.693359375 l 2
 790.212890625 -117.2109375 786.11328125 -110.92578125 787.172851562 -96.8056640625 c 0
 787.927734375 -86.732421875 788.733398438 -85.4873046875 796.232421875 -82.80078125 c 0
195.126953125 -80.8310546875 m 0
 201.063476562 -79.0380859375 206.611328125 -88.943359375 207.791015625 -103.439453125 c 0
 209.442382812 -123.745117188 204.217773438 -128.50390625 182.350585938 -126.612304688 c 0
 174.48828125 -125.932617188 164.415039062 -115.125976562 164.415039062 -107.37109375 c 0
 164.415039062 -96.314453125 173.43359375 -84.91796875 183.579101562 -83.1533203125 c 0
 188.493164062 -82.298828125 193.798828125 -81.2314453125 195.126953125 -80.8310546875 c 0
176.208007812 3.5556640625 m 0
 188.493164062 10.685546875 197.1484375 10.4013671875 202.173828125 2.703125 c 0
 204.418945312 -0.7373046875 207.805664062 -3.439453125 209.869140625 -3.439453125 c 0
 214.374023438 -3.439453125 214.291992188 -8.353515625 209.684570312 -14.49609375 c 0
 207.841796875 -16.953125 206.18359375 -21.259765625 206.18359375 -23.5869140625 c 0
 206.18359375 -33.8466796875 186.52734375 -36.169921875 173.750976562 -27.419921875 c 0
 166.434570312 -22.4091796875 165.71484375 -20.884765625 166.379882812 -11.7939453125 c 0
 167.009765625 -3.1943359375 168.447265625 -0.9482421875 176.208007812 3.5556640625 c 0
803.235351562 11.087890625 m 0
 811.661132812 14.1640625 813.5546875 14.154296875 822.645507812 10.9921875 c 0
 832.088867188 7.7080078125 835.176757812 2.45703125 835.176757812 -10.3193359375 c 0
 835.176757812 -23.849609375 831.245117188 -27.9228515625 816.749023438 -29.4150390625 c 0
 802.744140625 -30.857421875 801.18359375 -30.0400390625 792.954101562 -16.953125 c 2
 786.7734375 -7.125 l 1
 791.932617188 0.8603515625 l 2
 794.791015625 5.2822265625 799.833007812 9.845703125 803.235351562 11.087890625 c 0
172.31640625 98.0341796875 m 0
 174.009765625 101.291015625 177.682617188 102.2109375 188.984375 102.2109375 c 0
 196.846679688 102.2109375 203.930664062 101.368164062 204.463867188 100.368164062 c 0
 205.005859375 99.3515625 206.217773438 90.541015625 207.166015625 80.712890625 c 2
 208.88671875 62.8994140625 l 1
 193.0390625 62.8994140625 l 2
 177.559570312 62.8994140625 177.0703125 63.1044921875 171.98828125 71.744140625 c 0
 166.859375 80.462890625 166.950195312 87.71484375 172.31640625 98.0341796875 c 0
797.875 98.0341796875 m 0
 804.918945312 105.594726562 805.692382812 105.759765625 817.977539062 102.3359375 c 0
 827.506835938 99.6806640625 835.176757812 89.4345703125 835.176757812 79.361328125 c 0
 835.176757812 69.4140625 823.874023438 60.4423828125 811.34375 60.4423828125 c 0
 801.961914062 60.4423828125 800.365234375 61.4248046875 793.779296875 71.2529296875 c 0
 785.833007812 83.1123046875 786.198242188 85.50390625 797.875 98.0341796875 c 0
796.6015625 192.607421875 m 0
 803.206054688 197.372070312 806.4296875 198.024414062 816.749023438 196.682617188 c 0
 823.627929688 195.7890625 829.358398438 194.815429688 829.770507812 194.471679688 c 0
 830.176757812 194.1328125 831.108398438 188.452148438 831.845703125 181.818359375 c 0
 833.592773438 166.09375 826.747070312 156.265625 814.045898438 156.265625 c 0
 788.739257812 156.265625 777.8046875 179.044921875 796.6015625 192.607421875 c 0
173.259765625 197.419921875 m 0
 175.90625 201.672851562 178.911132812 202.948242188 186.282226562 202.948242188 c 0
 202.498046875 202.948242188 207.672851562 199.157226562 210.4296875 185.2578125 c 0
 212.719726562 173.709960938 212.537109375 173.021484375 205.9375 168.395507812 c 0
 198.30859375 163.045898438 182.596679688 162.219726562 172.768554688 166.65234375 c 0
 166.872070312 169.311523438 166.512695312 170.393554688 168.100585938 180.712890625 c 0
 169.044921875 186.85546875 171.370117188 194.3828125 173.259765625 197.419921875 c 0
611.958007812 283.90625 m 0
 616.690429688 286.802734375 624.365234375 288.943359375 630.016601562 288.943359375 c 0
 638.885742188 288.943359375 640.376953125 287.9609375 645.30078125 278.870117188 c 0
 651.541015625 267.349609375 650.41015625 263.830078125 637.633789062 255.013671875 c 0
 621.45703125 243.850585938 608.418945312 249.876953125 605.158203125 270.024414062 c 0
 603.845703125 278.1328125 604.412109375 279.2890625 611.958007812 283.90625 c 0
707.658203125 289.19921875 m 0
 714.537109375 294.594726562 714.537109375 294.594726562 728.296875 291.188476562 c 0
 738.125 288.755859375 739.516601562 287.5234375 740.827148438 280.098632812 c 0
 741.627929688 275.563476562 741.571289062 267.813476562 740.704101562 263.14453125 c 2
 739.107421875 254.545898438 l 1
 725.102539062 254.545898438 l 2
 704.955078125 254.545898438 699.091796875 259.159179688 700.748046875 273.709960938 c 0
 701.643554688 281.572265625 703.639648438 286.046875 707.658203125 289.19921875 c 0
518.71484375 292.153320312 m 0
 528.541992188 296.145507812 545.33984375 290.486328125 550.118164062 281.572265625 c 0
 551.491210938 279.012695312 552.62109375 273.46484375 552.62109375 269.287109375 c 0
 552.62109375 253.5625 523.616210938 245.74609375 513.416015625 258.72265625 c 0
 510.712890625 262.162109375 508.39453125 267.83203125 508.39453125 271.0078125 c 0
 508.39453125 278.1328125 514.376953125 290.390625 518.71484375 292.153320312 c 0
418.71484375 294.016601562 m 0
 422.891601562 295.040039062 426.724609375 295.9375 427.559570312 296.0859375 c 0
 431.573242188 296.802734375 441.6328125 281.572265625 442.5 273.46484375 c 0
 444.47265625 255.037109375 421.607421875 244.329101562 405.692382812 256.2265625 c 0
 398.026367188 261.958007812 396.661132812 266.338867188 398.865234375 278.1328125 c 0
 400.484375 286.793945312 405.446289062 290.764648438 418.71484375 294.016601562 c 0
284.5625 287.1015625 m 2
 298.321289062 300.0234375 306.818359375 299.874023438 319.495117188 286.486328125 c 0
 324.845703125 280.834960938 329.034179688 275.442382812 329.034179688 274.201171875 c 0
 329.034179688 272.956054688 325.225585938 269.09375 320.311523438 265.356445312 c 0
 314.116210938 260.64453125 307.780273438 258.40234375 298.444335938 257.6171875 c 2
 285.298828125 256.510742188 l 1
 279.893554688 267.076171875 l 1
 274.48828125 277.641601562 l 1
 284.5625 287.1015625 l 2
796.478515625 292.751953125 m 0
 803.087890625 298.311523438 805.815429688 299.047851562 815.151367188 297.7890625 c 0
 821.048828125 296.993164062 827.556640625 296.314453125 829.279296875 296.314453125 c 0
 834.087890625 296.314453125 836.384765625 275.67578125 832.587890625 266.584960938 c 0
 828.834960938 257.600585938 823.3828125 254.545898438 811.09765625 254.545898438 c 0
 799.880859375 254.545898438 792.619140625 262.408203125 790.21875 277.149414062 c 0
 788.899414062 285.2578125 789.575195312 286.944335938 796.478515625 292.751953125 c 0
168.6875 297.54296875 m 0
 174.184570312 305.127929688 183.333984375 305.307617188 197.830078125 298.115234375 c 0
 208.88671875 292.62890625 208.88671875 292.62890625 207.780273438 281.6953125 c 0
 206.985351562 273.833007812 204.880859375 269.201171875 200.287109375 265.20703125 c 0
 191.626953125 257.676757812 187.01953125 258.013671875 174.734375 267.078125 c 0
 166.134765625 273.423828125 164.415039062 276.10546875 164.415039062 283.169921875 c 0
 164.415039062 287.837890625 166.333984375 294.295898438 168.6875 297.54296875 c 0
799.853515625 387.469726562 m 0
 806.036132812 398.771484375 810.606445312 401.172851562 810.606445312 393.120117188 c 0
 810.606445312 391.244140625 813.063476562 389.680664062 816.01171875 389.680664062 c 0
 818.907226562 389.680664062 824.611328125 386.620117188 828.296875 383.08984375 c 0
 848.657226562 363.583007812 822.399414062 336.208007812 800.778320312 354.400390625 c 0
 791.228515625 362.434570312 790.982421875 371.252929688 799.853515625 387.469726562 c 0
168.032226562 395.33203125 m 0
 170.123046875 402.91015625 169.57421875 402.803710938 187.510742188 399.131835938 c 0
 204.955078125 395.561523438 210.400390625 387.975585938 206.287109375 372.97265625 c 0
 204.03125 364.748046875 202.498046875 363.314453125 193.407226562 360.93359375 c 0
 185.298828125 358.810546875 181.71875 358.922851562 176.69921875 361.458007812 c 0
 166.625976562 366.546875 160.985351562 374.0078125 163.349609375 379.115234375 c 0
 164.487304688 381.572265625 165.561523438 384.629882812 165.765625 385.995117188 c 0
 165.963867188 387.311523438 167.015625 391.646484375 168.032226562 395.33203125 c 0
810.115234375 490.545898438 m 0
 815.029296875 491.5390625 820.109375 492.50390625 821.171875 492.645507812 c 0
 824.009765625 493.0234375 833.127929688 471.252929688 832.189453125 466.338867188 c 0
 830.946289062 459.833007812 815.765625 451.10546875 805.692382812 451.10546875 c 0
 797.583984375 451.10546875 795.676757812 452.252929688 791.196289062 459.828125 c 0
 786.544921875 467.690429688 786.392578125 469.228515625 789.65234375 475.4296875 c 0
 794.5234375 484.697265625 799.549804688 488.41015625 810.115234375 490.545898438 c 0
172.522460938 495.435546875 m 0
 176.9453125 498.141601562 181.997070312 500.24609375 184.0703125 500.24609375 c 0
 190.950195312 500.24609375 204.609375 495.334960938 206.625 492.137695312 c 0
 209.814453125 487.07421875 208.926757812 474.447265625 204.79296875 466.09375 c 0
 201.495117188 459.428710938 199.795898438 458.4765625 191.196289062 458.4765625 c 0
 178.665039062 458.4765625 172.900390625 461.547851562 168.137695312 470.76171875 c 0
 162.041015625 482.555664062 163.331054688 489.8125 172.522460938 495.435546875 c 0
801.760742188 589.149414062 m 0
 818.22265625 591.446289062 822.362304688 590.853515625 827.233398438 585.50390625 c 0
 833.12890625 579.02734375 835.431640625 570.515625 833.678710938 561.670898438 c 0
 832.268554688 554.55078125 822.154296875 549.385742188 809.623046875 549.385742188 c 0
 801.515625 549.385742188 790.999023438 559.1875 790.642578125 567.076171875 c 0
 789.965820312 582.063476562 792.913085938 587.915039062 801.760742188 589.149414062 c 0
173.505859375 589.521484375 m 0
 193.8984375 598.02734375 208.640625 591.393554688 208.640625 573.709960938 c 0
 208.640625 556.265625 194.094726562 547.108398438 177.436523438 554.06640625 c 0
 171.4140625 556.58203125 169.252929688 559.458984375 167.108398438 567.813476562 c 0
 163.009765625 583.784179688 163.466796875 585.333984375 173.505859375 589.521484375 c 0
801.024414062 677.88671875 m 0
 805.37109375 681.477539062 808.88671875 682.200195312 816.2578125 681.015625 c 0
 830.999023438 678.646484375 834.591796875 675.813476562 836.428710938 665.110351562 c 0
 838.495117188 653.071289062 836.252929688 645.208984375 830.75390625 645.208984375 c 0
 828.5625 645.208984375 823.505859375 644.012695312 819.329101562 642.505859375 c 0
 812.905273438 640.189453125 810.483398438 640.592773438 802.375 645.33203125 c 0
 793.227539062 650.677734375 792.956054688 651.228515625 794.14453125 662.0390625 c 0
 794.981445312 669.65625 797.173828125 674.706054688 801.024414062 677.88671875 c 0
167.459960938 682.063476562 m 0
 170.40625 691.412109375 171.048828125 691.891601562 180.630859375 691.891601562 c 0
 194.881835938 691.891601562 205.362304688 687.709960938 207.107421875 681.327148438 c 0
 210.400390625 669.287109375 208.759765625 659.875 202.252929688 653.465820312 c 0
 196.715820312 648.013671875 194.389648438 647.3359375 184.807617188 648.38671875 c 0
 165.564453125 650.498046875 160.568359375 660.196289062 167.459960938 682.063476562 c 0
EndSplineSet
EndChar

StartChar: E
Encoding: 69 69 6
Width: 1000
Flags: H
LayerCount: 2
Back
Fore
SplineSet
429.786132812 -152.79296875 m 0
 437.8125 -143.161132812 440.028320312 -142.651367188 453.71484375 -147.286132812 c 0
 469.357421875 -152.58203125 473.622070312 -157.897460938 472.026367188 -170.111328125 c 0
 469.034179688 -193.016601562 448.58203125 -201.650390625 431.369140625 -187.275390625 c 0
 420.131835938 -177.891601562 419.543945312 -165.083984375 429.786132812 -152.79296875 c 0
547.03125 -149.720703125 m 0
 558.596679688 -137.647460938 573.176757812 -137.989257812 582.775390625 -150.55859375 c 0
 589.698242188 -159.624023438 589.864257812 -160.614257812 586.430664062 -172.346679688 c 0
 582.1796875 -186.87109375 572.4296875 -193.002929688 557.905273438 -190.288085938 c 0
 538.91015625 -186.736328125 532.93359375 -164.438476562 547.03125 -149.720703125 c 0
323.268554688 -144.18359375 m 0
 332.765625 -138.075195312 352.876953125 -136.333984375 352.876953125 -141.620117188 c 0
 352.876953125 -143.448242188 354.78125 -147.067382812 357.067382812 -149.581054688 c 0
 360.16796875 -152.991210938 360.821289062 -157.821289062 359.581054688 -168.15625 c 0
 358.005859375 -181.28515625 357.250976562 -182.404296875 347.010742188 -186.807617188 c 0
 333.603515625 -192.572265625 327.948242188 -192.724609375 320.474609375 -187.518554688 c 0
 304.84375 -176.630859375 306.229492188 -155.142578125 323.268554688 -144.18359375 c 0
761.453125 -141.899414062 m 0
 769.15234375 -133.64453125 784.44140625 -133.721679688 794.497070312 -142.065429688 c 0
 800.467773438 -147.020507812 802.213867188 -151.1171875 802.876953125 -161.731445312 c 0
 803.627929688 -173.743164062 802.87109375 -175.694335938 795.614257812 -180.46875 c 0
 776.340820312 -193.149414062 757.556640625 -189.092773438 752.828125 -171.229492188 c 0
 750.091796875 -160.893554688 753.018554688 -150.942382812 761.453125 -141.899414062 c 0
657.346679688 -139.525390625 m 0
 657.346679688 -136.157226562 659.022460938 -135.604492188 664.888671875 -137.03515625 c 0
 675.938476562 -139.73046875 683.663085938 -145.250976562 692.40625 -156.704101562 c 0
 699.870117188 -166.48046875 699.956054688 -167.03125 695.469726562 -176.536132812 c 0
 690.505859375 -187.055664062 681.927734375 -191.620117188 667.123046875 -191.620117188 c 0
 659.53125 -191.620117188 656.865234375 -189.944335938 652.015625 -182.123046875 c 0
 644.219726562 -169.552734375 644.0859375 -150.995117188 651.759765625 -146.86328125 c 0
 654.83203125 -145.208007812 657.346679688 -141.90625 657.346679688 -139.525390625 c 0
197.290039062 -136.53515625 m 0
 213.491210938 -128.356445312 214.909179688 -128.564453125 226.108398438 -140.782226562 c 0
 236.651367188 -152.284179688 237.610351562 -157.262695312 231.541992188 -168.994140625 c 0
 221.862304688 -187.709960938 202.897460938 -190.76171875 189.888671875 -175.698242188 c 0
 182.853515625 -167.552734375 182.138671875 -165.083984375 183.743164062 -154.469726562 c 0
 185.34765625 -143.854492188 186.922851562 -141.76953125 197.290039062 -136.53515625 c 0
203.03125 -18.15625 m 2
 212.932617188 -5.0283203125 l 1
 223.547851562 -8.6591796875 l 2
 229.413085938 -10.666015625 235.473632812 -14.7900390625 237.094726562 -17.876953125 c 0
 238.708007812 -20.9501953125 241.708007812 -25.474609375 243.76171875 -27.9326171875 c 0
 249.212890625 -34.4580078125 242.821289062 -51.419921875 233.603515625 -54.8896484375 c 0
 222.150390625 -59.201171875 206.129882812 -58.0283203125 201.161132812 -52.513671875 c 0
 191.944335938 -42.28515625 192.497070312 -32.123046875 203.03125 -18.15625 c 2
199.36328125 89.9443359375 m 0
 203.981445312 94.880859375 208.32421875 96.08984375 221.452148438 96.08984375 c 0
 237.094726562 96.08984375 238.043945312 95.666015625 243.659179688 86.1728515625 c 0
 249.112304688 76.955078125 249.219726562 75.6669921875 245.1953125 67.876953125 c 0
 242.7421875 63.12890625 241.5546875 58.408203125 242.456054688 56.9833984375 c 0
 244.294921875 54.076171875 224.106445312 45.8095703125 215.16796875 45.8095703125 c 0
 205.782226562 45.8095703125 197.186523438 53.072265625 193.677734375 63.966796875 c 0
 190.080078125 75.1396484375 191.474609375 81.51171875 199.36328125 89.9443359375 c 0
210.139648438 212.290039062 m 2
 220.1953125 218.15625 l 1
 229.971679688 212.553710938 l 2
 245.055664062 203.91015625 245.055664062 203.91015625 241.133789062 185.75390625 c 0
 237.936523438 170.950195312 236.536132812 168.65234375 229.133789062 166.061523438 c 0
 224.478515625 164.431640625 216.28515625 163.12890625 210.698242188 163.12890625 c 0
 202.318359375 163.12890625 200.037109375 164.501953125 197.010742188 171.369140625 c 0
 194.981445312 175.973632812 192.708984375 183.798828125 191.860351562 189.106445312 c 0
 190.231445312 199.286132812 192.262695312 201.862304688 210.139648438 212.290039062 c 2
213.770507812 331.560546875 m 0
 226.620117188 334.083007812 229.166992188 333.36328125 239.749023438 324.21875 c 2
 250.642578125 314.8046875 l 1
 245.334960938 303.072265625 l 2
 242.428710938 296.6484375 237.500976562 289.555664062 234.44140625 287.39453125 c 0
 226.899414062 282.067382812 204.83203125 281.885742188 204.83203125 287.150390625 c 0
 204.83203125 289.236328125 202.876953125 292.671875 200.642578125 294.51171875 c 0
 190.583007812 302.795898438 199.8046875 328.818359375 213.770507812 331.560546875 c 0
293.0078125 327.653320312 m 0
 297.9296875 337.58203125 300.36328125 337.969726562 320.474609375 332.02734375 c 0
 334.720703125 327.818359375 335.34765625 327.2109375 337.094726562 315.921875 c 0
 338.737304688 305.307617188 338.112304688 303.4609375 330.530273438 296.532226562 c 0
 319.357421875 286.322265625 298.84375 284.741210938 292.1796875 293.575195312 c 0
 287.333007812 300 287.747070312 317.0390625 293.0078125 327.653320312 c 0
666.28515625 335.1953125 m 0
 671.3125 337.0234375 676.518554688 338.696289062 677.737304688 338.874023438 c 0
 683.2109375 339.67578125 690.206054688 332.9609375 694.95703125 322.346679688 c 0
 699.958984375 311.172851562 699.946289062 310.709960938 694.427734375 303.3515625 c 0
 687.720703125 294.409179688 671.3125 287.595703125 662.094726562 289.92578125 c 0
 657.916015625 290.982421875 653.549804688 295.669921875 650.502929688 302.374023438 c 0
 645.8046875 312.709960938 645.837890625 313.493164062 651.340820312 322.486328125 c 0
 654.588867188 327.79296875 661.056640625 333.293945312 666.28515625 335.1953125 c 0
557.486328125 337.150390625 m 0
 562.513671875 337.76953125 567.1875 338.443359375 567.9609375 338.661132812 c 0
 570.594726562 339.401367188 581.33984375 329.330078125 584.471679688 323.184570312 c 0
 595.1015625 302.328125 576.061523438 282.9140625 553.71484375 291.82421875 c 0
 540.866210938 296.947265625 535.650390625 317.674804688 544.137695312 329.888671875 c 0
 546.633789062 333.48046875 552.178710938 336.498046875 557.486328125 337.150390625 c 0
426.899414062 335.16796875 m 0
 438.3515625 340.223632812 438.3515625 340.223632812 450.921875 328.530273438 c 2
 462.374023438 317.876953125 l 1
 456.248046875 304.749023438 l 2
 448.817382812 288.827148438 442.69140625 285.036132812 428.295898438 287.452148438 c 0
 414.888671875 289.703125 408.274414062 296.844726562 407.87890625 309.497070312 c 0
 407.529296875 320.694335938 414.049804688 329.49609375 426.899414062 335.16796875 c 0
208.743164062 436.008789062 m 0
 218.208984375 444.091796875 233.603515625 444.42578125 243.379882812 436.760742188 c 0
 247.290039062 433.694335938 252.083984375 431.28515625 254.2734375 431.28515625 c 0
 258.556640625 431.28515625 257.3125 424.581054688 250.541015625 411.172851562 c 0
 248.424804688 406.983398438 246.731445312 401.209960938 246.731445312 398.184570312 c 0
 246.731445312 393.412109375 244.916015625 392.82421875 232.067382812 393.435546875 c 0
 223.966796875 393.821289062 213.401367188 396.197265625 208.463867188 398.743164062 c 0
 200.198242188 403.004882812 199.578125 404.330078125 200.223632812 416.340820312 c 0
 200.763671875 426.396484375 202.6875 430.837890625 208.743164062 436.008789062 c 0
207.067382812 563.92578125 m 0
 212.653320312 567.571289062 219.711914062 570.75390625 222.4296875 570.852539062 c 0
 231.643554688 571.185546875 244.366210938 562.290039062 248.259765625 552.79296875 c 0
 251.578125 544.69921875 251.459960938 542.178710938 247.290039062 532.123046875 c 2
 242.541992188 520.669921875 l 1
 226.620117188 520.669921875 l 2
 209.022460938 520.669921875 201.701171875 525.1796875 196.237304688 539.385742188 c 0
 192.34765625 549.499023438 195.334960938 556.268554688 207.067382812 563.92578125 c 0
196.591796875 660.334960938 m 0
 203.295898438 666.2109375 210.051757812 671.290039062 211.256835938 671.362304688 c 0
 217.123046875 671.712890625 232.840820312 662.811523438 235.661132812 657.541992188 c 0
 239.3984375 650.55859375 236.713867188 629.66015625 231.927734375 628.48046875 c 0
 230.081054688 628.025390625 224.24609375 626.209960938 218.938476562 624.44140625 c 0
 210.279296875 621.5546875 208.4375 621.89453125 200.782226562 627.79296875 c 0
 196.033203125 631.452148438 190.469726562 637.6953125 188.211914062 641.899414062 c 0
 184.298828125 649.1875 184.581054688 649.80859375 196.591796875 660.334960938 c 0
220.1953125 764.462890625 m 0
 230.250976562 766.903320312 231.353515625 766.638671875 241.145507812 759.431640625 c 0
 246.452148438 755.524414062 252.58203125 751.27734375 254.552734375 750.139648438 c 0
 257.579101562 748.393554688 257.579101562 746.08984375 254.552734375 736.3125 c 0
 252.564453125 729.888671875 249.46875 724.581054688 247.708984375 724.581054688 c 0
 245.916992188 724.581054688 242.76953125 721.927734375 240.586914062 718.575195312 c 0
 236.9765625 713.032226562 235.837890625 712.83984375 225.782226562 716.083984375 c 0
 209.301757812 721.400390625 202.0390625 729.125976562 202.0390625 741.340820312 c 0
 202.0390625 752.234375 209.626953125 761.897460938 220.1953125 764.462890625 c 0
325.223632812 764.8671875 m 0
 331.295898438 769.916015625 337.094726562 772.067382812 344.63671875 772.067382812 c 0
 353.854492188 772.067382812 356.0625 770.790039062 360.090820312 763.12890625 c 0
 364.9375 753.91015625 364.161132812 738.37109375 358.513671875 731.564453125 c 0
 350.905273438 722.393554688 326.100585938 725.698242188 318.674804688 736.87109375 c 0
 313.515625 744.634765625 316.564453125 757.666992188 325.223632812 764.8671875 c 0
779.413085938 773.532226562 m 0
 794.497070312 778.879882812 800.2421875 778.318359375 809.022460938 770.635742188 c 0
 822.974609375 758.427734375 817.9609375 738.322265625 798.6875 729.1875 c 0
 784.720703125 722.567382812 781.02734375 723.51171875 771.908203125 736.033203125 c 0
 765.1953125 745.250976562 764.068359375 749.015625 765.471679688 757.541992188 c 0
 767.4921875 769.819335938 766.84375 769.075195312 779.413085938 773.532226562 c 0
669.916015625 770.115234375 m 0
 678.295898438 775.858398438 681.049804688 776.395507812 689.189453125 773.87109375 c 0
 698.6875 770.927734375 707.625976562 760.030273438 707.625976562 751.396484375 c 0
 707.625976562 743.567382812 695.893554688 730.430664062 687.234375 728.5625 c 0
 682.881835938 727.624023438 674.8046875 727.655273438 669.776367188 728.630859375 c 0
 661.794921875 730.1796875 660.153320312 731.84375 658.610351562 739.944335938 c 0
 655.896484375 754.190429688 659.081054688 762.688476562 669.916015625 770.115234375 c 0
442.262695312 775.698242188 m 0
 454.552734375 780.614257812 475.782226562 768.23046875 475.782226562 756.145507812 c 0
 475.782226562 732.123046875 442.513671875 716.43359375 432.543945312 735.75390625 c 0
 424.6171875 751.1171875 429.33984375 770.529296875 442.262695312 775.698242188 c 0
564.609375 776.43359375 m 0
 568.798828125 778.197265625 573.392578125 778.934570312 574.944335938 778.092773438 c 0
 584.44140625 772.936523438 594.2578125 764.03125 597.598632812 757.541992188 c 0
 601.221679688 750.502929688 600.893554688 749.162109375 592.681640625 737.4296875 c 0
 584.07421875 725.133789062 583.603515625 724.89453125 571.033203125 726.455078125 c 0
 553.435546875 728.638671875 545.614257812 736.2265625 545.614257812 751.1171875 c 0
 545.614257812 763.596679688 550.921875 770.669921875 564.609375 776.43359375 c 0
EndSplineSet
EndChar

StartChar: D
Encoding: 68 68 7
Width: 1000
Flags: H
LayerCount: 2
Back
Fore
SplineSet
390.170898438 -130.166992188 m 0
 394.2734375 -127.975585938 401.709960938 -126.147460938 406.837890625 -126.068359375 c 0
 414.4140625 -125.952148438 417.13671875 -127.635742188 421.815429688 -135.327148438 c 0
 427.880859375 -145.298828125 429.033203125 -155.981445312 424.359375 -158.903320312 c 0
 422.850585938 -159.845703125 421.946289062 -162.962890625 422.436523438 -165.52734375 c 0
 423.389648438 -170.512695312 406.125976562 -180.056640625 396.154296875 -180.056640625 c 0
 390.067382812 -180.056640625 379.73046875 -168.090820312 377.202148438 -158.120117188 c 0
 374.818359375 -148.717773438 381.203125 -134.95703125 390.170898438 -130.166992188 c 0
254.095703125 -133.048828125 m 0
 258.83203125 -127.635742188 263.993164062 -123.077148438 265.384765625 -123.077148438 c 0
 271.84765625 -123.077148438 286.893554688 -131.338867188 293.400390625 -138.461914062 c 0
 300.12890625 -145.826171875 300.276367188 -146.723632812 296.866210938 -159.543945312 c 0
 294.896484375 -166.951171875 292.287109375 -173.953125 291.026367188 -175.213867188 c 0
 289.782226562 -176.45703125 282.336914062 -178.205078125 274.64453125 -179.059570312 c 0
 261.25390625 -180.547851562 260.151367188 -180.166015625 252.8203125 -171.509765625 c 0
 242.203125 -158.974609375 242.62890625 -146.154296875 254.095703125 -133.048828125 c 0
105.270507812 -127.84765625 m 0
 116.952148438 -120.573242188 126.947265625 -122.016601562 138.034179688 -132.581054688 c 0
 149.385742188 -143.396484375 150.446289062 -149.857421875 143.254882812 -164.387695312 c 0
 139.447265625 -172.080078125 136.040039062 -174.814453125 128.34765625 -176.353515625 c 0
 122.934570312 -177.435546875 116.422851562 -177.95703125 114.102539062 -177.493164062 c 0
 106.6875 -176.009765625 97.0966796875 -164.672851562 94.0986328125 -153.845703125 c 0
 90.7060546875 -141.595703125 93.4501953125 -135.209960938 105.270507812 -127.84765625 c 0
551.994140625 -126.723632812 m 2
 565.384765625 -115.713867188 595.583984375 -120.29296875 595.583984375 -133.333007812 c 0
 595.583984375 -135.612304688 596.805664062 -137.322265625 598.43359375 -137.322265625 c 0
 602.942382812 -137.322265625 601.90625 -145.014648438 595.786132812 -156.98046875 c 0
 589.548828125 -169.176757812 579.344726562 -173.314453125 562.8203125 -170.348632812 c 0
 554.095703125 -168.782226562 553.090820312 -167.37890625 548.860351562 -150.854492188 c 2
 544.302734375 -133.048828125 l 1
 551.994140625 -126.723632812 l 2
695.299804688 -85.3271484375 m 0
 702.856445312 -73.3623046875 704.967773438 -71.794921875 713.533203125 -71.794921875 c 0
 723.7890625 -71.794921875 740.883789062 -83.1904296875 740.883789062 -90.0283203125 c 0
 740.883789062 -91.8876953125 738.93359375 -100.142578125 736.610351562 -108.120117188 c 0
 732.4609375 -122.364257812 731.971679688 -122.845703125 719.80078125 -124.630859375 c 0
 706.41015625 -126.594726562 689.6015625 -120.497070312 689.6015625 -113.674804688 c 0
 689.6015625 -111.794921875 688.959960938 -107.692382812 688.176757812 -104.55859375 c 0
 687.336914062 -101.19921875 690.260742188 -93.3046875 695.299804688 -85.3271484375 c 0
101.282226562 -5.4130859375 m 2
 109.551757812 3.5859375 112.678710938 5.1279296875 122.649414062 5.1279296875 c 0
 138.604492188 5.1279296875 144.758789062 1.31640625 147.951171875 -10.541015625 c 0
 150.635742188 -20.5126953125 149.297851562 -31.9091796875 145.44140625 -31.9091796875 c 0
 144.341796875 -31.9091796875 139.744140625 -35.166015625 135.185546875 -39.173828125 c 0
 129.047851562 -44.5703125 124.359375 -46.21875 116.952148438 -45.583984375 c 0
 108.263671875 -44.83984375 105.990234375 -42.8779296875 99.2880859375 -30.341796875 c 2
 91.595703125 -15.9541015625 l 1
 101.282226562 -5.4130859375 l 2
807.265625 16.3310546875 m 0
 823.504882812 21.060546875 829.909179688 19.8701171875 839.744140625 10.2939453125 c 0
 844.872070312 5.30078125 849.145507812 -1.0615234375 849.145507812 -3.7041015625 c 0
 849.145507812 -10.7373046875 833.475585938 -31.1591796875 826.353515625 -33.408203125 c 0
 817.430664062 -36.2255859375 806.0234375 -30.484375 798.467773438 -19.373046875 c 0
 792.5234375 -10.6318359375 792.186523438 -8.546875 795.014648438 1.994140625 c 0
 797.61328125 11.6806640625 799.705078125 14.12890625 807.265625 16.3310546875 c 0
112.393554688 124.625976562 m 0
 127.787109375 134.45703125 141.375976562 130.19921875 148.251953125 113.390625 c 0
 153.194335938 101.30859375 150 92.4990234375 136.89453125 82.0654296875 c 2
 125.784179688 73.2197265625 l 1
 114.387695312 80.73828125 l 2
 101.342773438 89.3447265625 98.7890625 94.8720703125 101.407226562 108.83203125 c 0
 102.689453125 115.669921875 106.141601562 120.633789062 112.393554688 124.625976562 c 0
864.815429688 140.265625 m 0
 871.083007812 142.564453125 876.595703125 144.53125 877.065429688 144.637695312 c 0
 878.629882812 144.990234375 893.435546875 134.7578125 895.483398438 131.909179688 c 0
 901.79296875 123.126953125 893.020507812 99.0419921875 881.624023438 93.861328125 c 0
 869.943359375 88.5517578125 862.006835938 90.119140625 851.994140625 99.7109375 c 0
 835.948242188 115.083984375 841.16796875 131.595703125 864.815429688 140.265625 c 0
879.344726562 252.973632812 m 0
 885.328125 255.744140625 891.771484375 258.190429688 893.3046875 258.272460938 c 0
 897.9609375 258.521484375 911.708984375 245.014648438 914.627929688 237.322265625 c 0
 919.6328125 224.134765625 909.829101562 208.8984375 894.444335938 205.952148438 c 0
 885.453125 204.23046875 882.90625 205.112304688 873.7890625 213.10546875 c 0
 865.8125 220.099609375 863.390625 224.279296875 863.390625 231.053710938 c 0
 863.390625 242.989257812 866.239257812 246.903320312 879.344726562 252.973632812 c 0
100.997070312 270.298828125 m 0
 114.672851562 276.482421875 114.163085938 276.430664062 124.928710938 272.734375 c 0
 131.727539062 270.400390625 134.17578125 267.236328125 136.89453125 257.264648438 c 0
 140.002929688 245.869140625 139.741210938 243.796875 134.017578125 234.47265625 c 0
 125.8515625 221.170898438 116.952148438 217.6640625 102.421875 222.022460938 c 0
 93.0205078125 224.84375 90.853515625 227.065429688 88.3359375 236.466796875 c 0
 83.53125 254.416015625 87.1279296875 264.02734375 100.997070312 270.298828125 c 0
878.141601562 377.493164062 m 0
 885.088867188 384.908203125 898.1484375 386.280273438 910.114257812 380.852539062 c 0
 915.901367188 378.227539062 917.521484375 375.499023438 917.521484375 368.375976562 c 0
 917.521484375 349.288085938 914.461914062 341.8359375 904.701171875 337.151367188 c 0
 891.880859375 330.997070312 887.21875 331.442382812 879.060546875 339.6015625 c 0
 869.798828125 348.862304688 869.33203125 368.090820312 878.141601562 377.493164062 c 0
112.108398438 405.35546875 m 0
 121.145507812 411.703125 128.91796875 410.697265625 141.73828125 401.522460938 c 0
 153.147460938 393.356445312 153.365234375 392.877929688 151.095703125 380.912109375 c 0
 147.421875 361.538085938 146.1171875 359.83203125 132.051757812 355.99609375 c 0
 120.940429688 352.965820312 117.94921875 353.077148438 112.393554688 356.731445312 c 0
 97.86328125 366.288085938 97.6943359375 395.23046875 112.108398438 405.35546875 c 0
853.989257812 510.602539062 m 0
 865.669921875 516.987304688 870.134765625 516.205078125 881.338867188 505.811523438 c 0
 891.416015625 496.462890625 891.565429688 496.01171875 889.88671875 480.056640625 c 0
 888.38671875 465.811523438 887.336914062 463.603515625 881.338867188 462.077148438 c 0
 869.373046875 459.03125 851.168945312 462.836914062 845.7578125 469.515625 c 0
 836.198242188 481.315429688 840.598632812 503.282226562 853.989257812 510.602539062 c 0
102.70703125 525.30078125 m 0
 116.096679688 530.19921875 116.096679688 530.19921875 130.057617188 520.592773438 c 0
 139.744140625 513.926757812 142.592773438 510.217773438 142.592773438 504.2734375 c 0
 142.592773438 494.380859375 141.16796875 492.5390625 126.068359375 482.908203125 c 0
 110.96875 473.27734375 102.728515625 474.928710938 90.533203125 490.028320312 c 2
 82.478515625 500 l 1
 87.607421875 510.826171875 l 2
 91.2509765625 518.518554688 95.6220703125 522.708007812 102.70703125 525.30078125 c 0
822.649414062 623.094726562 m 0
 829.84765625 627.354492188 834.045898438 626.991210938 842.592773438 621.370117188 c 0
 853.133789062 614.4375 858.908203125 599.54296875 854.302734375 591.16796875 c 0
 852.421875 587.749023438 850.797851562 583.216796875 850.728515625 581.196289062 c 0
 850.413085938 571.930664062 831.766601562 569.206054688 817.806640625 576.385742188 c 0
 803.822265625 583.577148438 802.314453125 589.743164062 810.567382812 605.982421875 c 0
 814.62109375 613.959960938 819.9375 621.489257812 822.649414062 623.094726562 c 0
104.701171875 650.6640625 m 0
 110.168945312 655.74609375 115.2421875 657.549804688 124.07421875 657.549804688 c 0
 140.598632812 657.549804688 148.291015625 649.857421875 148.291015625 633.333007812 c 0
 148.291015625 621.3671875 147.53125 620.129882812 136.89453125 614.771484375 c 0
 118.946289062 605.728515625 107.942382812 607.583007812 101.130859375 620.797851562 c 0
 94.9638671875 632.763671875 96.154296875 642.71875 104.701171875 650.6640625 c 0
723.7890625 714.530273438 m 0
 731.65234375 722.393554688 745.44140625 721.682617188 758.262695312 712.75390625 c 0
 767.94921875 706.008789062 768.68359375 704.581054688 767.323242188 695.15625 c 0
 765.739257812 684.180664062 756.837890625 674.450195312 743.163085938 668.745117188 c 0
 731.543945312 663.897460938 716.94140625 672.934570312 715.674804688 685.754882812 c 0
 714.409179688 698.575195312 716.990234375 707.731445312 723.7890625 714.530273438 c 0
604.53515625 764.95703125 m 0
 613.012695312 774.006835938 626.923828125 773.573242188 638.319335938 763.904296875 c 0
 646.19140625 757.224609375 647.05859375 754.985351562 646.296875 743.3046875 c 0
 645.516601562 731.338867188 644.512695312 729.741210938 634.7578125 724.928710938 c 0
 625.641601562 720.430664062 622.5703125 720.15625 613.818359375 723.056640625 c 0
 597.86328125 728.342773438 592.579101562 752.193359375 604.53515625 764.95703125 c 0
102.70703125 780.989257812 m 0
 113.248046875 788.176757812 130.037109375 787.200195312 138.319335938 778.916992188 c 0
 147.579101562 769.658203125 147.365234375 757.264648438 137.75 745.869140625 c 0
 131.22265625 738.133789062 128.6328125 736.982421875 120.655273438 738.2734375 c 0
 106.98046875 740.485351562 91.310546875 753.516601562 91.310546875 762.677734375 c 0
 91.310546875 771.375 93.3046875 774.579101562 102.70703125 780.989257812 c 0
483.618164062 784.221679688 m 0
 496.55859375 795.629882812 521.860351562 792.592773438 525.435546875 779.202148438 c 0
 528.783203125 766.666992188 527.008789062 759.909179688 517.657226562 749.572265625 c 0
 508.120117188 739.03125 508.120117188 739.03125 496.439453125 742.494140625 c 0
 475.356445312 748.745117188 468.540039062 770.9296875 483.618164062 784.221679688 c 0
242.307617188 789.592773438 m 0
 254.84375 794.205078125 277.498046875 788.783203125 282.1484375 780.056640625 c 0
 290.303710938 764.754882812 276.2109375 744.828125 254.84375 741.448242188 c 0
 244.302734375 739.78125 242.41796875 740.490234375 235.53125 748.717773438 c 0
 222.803710938 763.923828125 226.068359375 783.618164062 242.307617188 789.592773438 c 0
359.686523438 792.672851562 m 0
 374.216796875 799.157226562 390.243164062 797.0546875 397.22265625 787.749023438 c 2
 402.9921875 780.056640625 l 1
 396.416015625 766.096679688 l 2
 388.096679688 748.432617188 378.336914062 744.969726562 364.245117188 754.6796875 c 0
 351.709960938 763.317382812 350.5703125 765.2421875 350.5703125 777.77734375 c 0
 350.5703125 787.1796875 351.76953125 789.139648438 359.686523438 792.672851562 c 0
EndSplineSet
EndChar

StartChar: I
Encoding: 73 73 8
Width: 1000
Flags: H
LayerCount: 2
Back
Fore
SplineSet
482.732421875 -109.358398438 m 0
 498.869140625 -101.223632812 510.587890625 -105.112304688 517.509765625 -120.899414062 c 0
 521.801757812 -130.6875 521.833007812 -131.838867188 517.916992188 -136.243164062 c 0
 515.565429688 -138.888671875 513.684570312 -142.298828125 513.684570312 -143.915039062 c 0
 513.684570312 -147.689453125 501.514648438 -149.1953125 491.7265625 -146.633789062 c 0
 480.751953125 -143.760742188 474.330078125 -135.185546875 474.4375 -123.544921875 c 0
 474.516601562 -115.079101562 475.826171875 -112.838867188 482.732421875 -109.358398438 c 0
485.1640625 -15.6083984375 m 0
 494.795898438 -5.63671875 493.314453125 -6.0166015625 504.424804688 -10.669921875 c 0
 514.7421875 -14.9912109375 522.864257812 -28.1748046875 520.66796875 -37.037109375 c 0
 518.791992188 -44.609375 508.658203125 -49.2060546875 493.842773438 -49.2060546875 c 0
 485.11328125 -49.2060546875 481.5234375 -47.9501953125 479.486328125 -44.1796875 c 0
 474.337890625 -34.65625 476.299804688 -24.7861328125 485.1640625 -15.6083984375 c 0
479.954101562 84.2587890625 m 0
 487.860351562 94.8408203125 489.381835938 95.703125 498.869140625 94.9736328125 c 0
 504.954101562 94.505859375 510.1640625 92.443359375 511.568359375 89.947265625 c 0
 512.907226562 87.56640625 515.626953125 85.7138671875 517.78515625 85.7138671875 c 0
 520.133789062 85.7138671875 521.62109375 83.201171875 521.62109375 79.232421875 c 0
 521.62109375 75.7939453125 522.862304688 71.9892578125 524.266601562 71.1279296875 c 0
 533.370117188 65.5419921875 519.768554688 55.0439453125 499.927734375 52.3427734375 c 0
 489.610351562 50.9375 487.751953125 51.5810546875 479.954101562 59.2587890625 c 0
 475.192382812 63.9482421875 471.356445312 68.845703125 471.356445312 70.23828125 c 0
 471.356445312 71.625 475.2109375 77.91015625 479.954101562 84.2587890625 c 0
485.377929688 192.801757812 m 0
 491.991210938 198.7265625 502.619140625 199.80859375 508.658203125 195.171875 c 0
 510.619140625 193.666015625 514.477539062 191.583007812 516.859375 190.745117188 c 0
 525.40625 187.736328125 523.737304688 164.724609375 514.477539062 157.911132812 c 0
 508.836914062 153.760742188 494.901367188 153.560546875 486.170898438 157.504882812 c 0
 474.795898438 162.64453125 474.33984375 182.9140625 485.377929688 192.801757812 c 0
482.203125 295.954101562 m 0
 493.971679688 305.897460938 506.284179688 304.232421875 516.859375 291.26953125 c 0
 522.690429688 284.12109375 522.802734375 277.77734375 517.247070312 269.3125 c 0
 507.930664062 255.114257812 487.27734375 255.8203125 478.5234375 270.634765625 c 0
 471.958007812 281.74609375 472.877929688 288.076171875 482.203125 295.954101562 c 0
487.494140625 408.068359375 m 2
 492.520507812 409.473632812 497.013671875 410.698242188 497.678710938 410.846679688 c 0
 498.328125 410.991210938 504.16015625 409.126953125 510.509765625 406.74609375 c 0
 521.885742188 402.48046875 522.123046875 402.134765625 520.959960938 391.534179688 c 0
 520.291992188 385.450195312 518.317382812 377.66796875 516.461914062 373.809570312 c 0
 513.444335938 367.532226562 511.96484375 367.03515625 499.53125 368.122070312 c 0
 492.123046875 368.768554688 485.000976562 370.157226562 483.922851562 371.1640625 c 0
 482.825195312 372.1875 481.168945312 380.291015625 480.21875 389.286132812 c 2
 478.499023438 405.555664062 l 1
 487.494140625 408.068359375 l 2
492.520507812 515.471679688 m 0
 515.006835938 525.133789062 534.8359375 502.793945312 518.93359375 485.713867188 c 0
 506.961914062 472.857421875 479.181640625 481.74609375 479.248046875 498.413085938 c 0
 479.28515625 507.741210938 481.673828125 510.811523438 492.520507812 515.471679688 c 0
489.875 627.078125 m 0
 493.578125 628.803710938 497.419921875 630.264648438 498.60546875 630.399414062 c 0
 501.779296875 630.76171875 526.37890625 617.810546875 528.20703125 614.814453125 c 0
 529.099609375 613.352539062 528.579101562 607.671875 527.043945312 602.116210938 c 0
 524.923828125 594.444335938 522.041992188 590.998046875 514.875 587.56640625 c 0
 509.583984375 585.032226562 503.2890625 583.068359375 500.45703125 583.068359375 c 0
 491.461914062 583.068359375 482.048828125 594.1796875 479.612304688 607.671875 c 0
 477.224609375 620.899414062 477.42578125 621.280273438 489.875 627.078125 c 0
486.657226562 724.07421875 m 0
 492.50390625 730.559570312 502.837890625 729.69921875 514.477539062 721.7578125 c 0
 523.451171875 715.635742188 524.266601562 714.021484375 524.266601562 702.380859375 c 0
 524.266601562 689.947265625 524.051757812 689.618164062 513.94921875 686.586914062 c 0
 500.45703125 682.540039062 496.25 682.7734375 488.287109375 688.013671875 c 0
 475.895507812 696.169921875 475.20703125 711.375976562 486.657226562 724.07421875 c 0
EndSplineSet
EndChar

StartChar: J
Encoding: 74 74 9
Width: 1000
Flags: H
LayerCount: 2
Back
Fore
SplineSet
461.741210938 -145.43359375 m 0
 469.518554688 -142.864257812 473.379882812 -143.02734375 481.045898438 -146.25 c 0
 486.32421875 -148.467773438 491.12890625 -150.764648438 491.741210938 -151.361328125 c 0
 493.697265625 -153.268554688 494.545898438 -171.388671875 492.795898438 -173.888671875 c 0
 489.536132812 -178.546875 475.907226562 -183.333007812 465.907226562 -183.333007812 c 0
 457.57421875 -183.333007812 455.515625 -181.944335938 451.498046875 -173.611328125 c 0
 444.935546875 -160 448.66015625 -149.75390625 461.741210938 -145.43359375 c 0
571.462890625 -127.029296875 m 0
 578.685546875 -123.344726562 580.518554688 -123.295898438 585.212890625 -126.666992188 c 0
 588.268554688 -128.860351562 592.688476562 -130.555664062 595.3515625 -130.555664062 c 0
 602.291015625 -130.555664062 605.009765625 -150 599.546875 -160.555664062 c 0
 592.213867188 -174.72265625 575.961914062 -176.499023438 562.57421875 -164.598632812 c 0
 546.4296875 -150.248046875 549.241210938 -138.3671875 571.462890625 -127.029296875 c 0
376.741210938 -103.905273438 m 0
 388.129882812 -98.9384765625 390.81640625 -98.9951171875 401.462890625 -104.424804688 c 0
 417.018554688 -112.358398438 417.2109375 -112.767578125 412.448242188 -127.77734375 c 0
 409.540039062 -136.944335938 406.224609375 -141.900390625 402.295898438 -142.955078125 c 0
 371.462890625 -151.231445312 348.5390625 -116.202148438 376.741210938 -103.905273438 c 0
643.360351562 -71.6669921875 m 0
 650.087890625 -63.11328125 650.907226562 -62.927734375 665.07421875 -66.7568359375 c 0
 677.09765625 -70.005859375 681.185546875 -75.8330078125 681.185546875 -89.72265625 c 0
 681.185546875 -115 652.684570312 -122.751953125 639.315429688 -101.111328125 c 0
 632.825195312 -90.6044921875 633.748046875 -83.888671875 643.360351562 -71.6669921875 c 0
312.295898438 -52.79296875 m 0
 324.795898438 -45.23828125 331.072265625 -45.857421875 340.294921875 -55.5556640625 c 0
 350.008789062 -65.7705078125 350.169921875 -77.5 340.747070312 -88.611328125 c 0
 330.720703125 -100.435546875 319.241210938 -100.099609375 305.3515625 -87.57421875 c 0
 296.741210938 -79.80859375 295.307617188 -77.134765625 297.57421875 -73.0556640625 c 0
 299.1171875 -70.27734375 300.96875 -65.8955078125 301.741210938 -63.1943359375 c 0
 302.498046875 -60.54296875 307.295898438 -55.8154296875 312.295898438 -52.79296875 c 0
267.991210938 20.27734375 m 0
 272.991210938 20.8935546875 277.76171875 21.5751953125 278.685546875 21.8056640625 c 0
 279.611328125 22.037109375 284.795898438 18.2099609375 290.3515625 13.1943359375 c 0
 297.668945312 6.5888671875 300.798828125 1.111328125 302.018554688 -7.22265625 c 2
 303.685546875 -18.611328125 l 1
 287.8515625 -21.77734375 l 2
 260.629882812 -27.22265625 257.333007812 -26.4921875 252.243164062 -13.888671875 c 0
 246.521484375 0.27734375 246.578125 1.6669921875 253.26171875 11.111328125 c 0
 256.9453125 16.31640625 262.157226562 19.5595703125 267.991210938 20.27734375 c 0
693.685546875 42.4052734375 m 0
 705.907226562 45.2509765625 709.98046875 44.134765625 717.671875 35.8330078125 c 0
 724.938476562 27.990234375 725.809570312 25.27734375 725.07421875 12.77734375 c 2
 724.241210938 -1.388671875 l 1
 709.795898438 -3.7119140625 l 2
 691.462890625 -6.6611328125 682.954101562 -1.6728515625 678.825195312 14.4443359375 c 0
 676.263671875 24.4443359375 676.65234375 26.7646484375 682.018554688 33.47265625 c 0
 685.3515625 37.638671875 690.655273438 41.69921875 693.685546875 42.4052734375 c 0
708.962890625 164.583007812 m 0
 714.241210938 167.22265625 719.447265625 169.444335938 720.3515625 169.444335938 c 0
 723.732421875 169.444335938 738.890625 150.833007812 740.260742188 145 c 0
 742.040039062 137.424804688 731.185546875 123.100585938 720.629882812 119.09375 c 0
 711.625 115.67578125 702.369140625 121.666992188 696.053710938 135 c 0
 691.711914062 144.166992188 691.62109375 146.05859375 695.212890625 152.5 c 0
 697.399414062 156.420898438 703.685546875 161.944335938 708.962890625 164.583007812 c 0
698.685546875 276.666992188 m 0
 704.192382812 285.176757812 706.045898438 286.111328125 717.435546875 286.111328125 c 0
 724.379882812 286.111328125 732.514648438 284.296875 735.491210938 282.083007812 c 0
 738.545898438 279.811523438 739.877929688 277.995117188 738.545898438 277.916992188 c 0
 737.287109375 277.842773438 738.064453125 274.861328125 740.212890625 271.52734375 c 0
 742.640625 267.760742188 743.744140625 261.25 742.991210938 255.138671875 c 0
 741.918945312 246.448242188 740.212890625 244.305664062 731.045898438 240.138671875 c 0
 721.32421875 235.719726562 719.392578125 235.668945312 709.795898438 239.583007812 c 0
 701 243.170898438 698.685546875 245.833007812 695.907226562 255.555664062 c 0
 692.891601562 266.111328125 693.15625 268.122070312 698.685546875 276.666992188 c 0
707.8515625 405.87109375 m 0
 716.747070312 409.359375 723.129882812 408.498046875 732.8515625 402.49609375 c 0
 741.171875 397.360351562 742.295898438 395.27734375 742.295898438 385 c 0
 742.295898438 371.591796875 737.295898438 365.592773438 723.685546875 362.668945312 c 0
 712.8515625 360.341796875 702.205078125 366.547851562 698.71875 377.22265625 c 0
 695.635742188 386.666992188 700.88671875 403.139648438 707.8515625 405.87109375 c 0
704.518554688 512.702148438 m 0
 715.048828125 520.086914062 725.57421875 517.77734375 737.09765625 505.555664062 c 0
 742.859375 499.444335938 749.07421875 494.444335938 750.907226562 494.444335938 c 0
 755.9375 494.444335938 740.907226562 479.379882812 730.07421875 473.563476562 c 0
 718.04296875 467.103515625 708.365234375 469.72265625 699.106445312 481.944335938 c 0
 692.372070312 490.833007812 692.038085938 492.392578125 695.212890625 500.138671875 c 0
 697.1484375 504.861328125 701.267578125 510.421875 704.518554688 512.702148438 c 0
707.57421875 625.592773438 m 0
 713.407226562 626.794921875 739.064453125 620.456054688 742.8515625 616.876953125 c 0
 746.293945312 613.625 730.3515625 584.828125 724.518554688 583.760742188 c 0
 712.8515625 581.626953125 700.75390625 586.24609375 696.54296875 594.444335938 c 0
 688.694335938 609.72265625 693.271484375 622.645507812 707.57421875 625.592773438 c 0
698.268554688 733.055664062 m 2
 704.379882812 738.528320312 710.625976562 741.436523438 716.462890625 741.52734375 c 0
 723.88671875 741.643554688 726.748046875 739.583007812 733.82421875 729.02734375 c 0
 742.016601562 716.805664062 742.147460938 716.16015625 737.767578125 709.444335938 c 0
 732.095703125 700.748046875 725.629882812 697.22265625 715.3515625 697.22265625 c 0
 705.252929688 697.22265625 699.67578125 701.666992188 693.73828125 714.444335938 c 2
 688.962890625 724.72265625 l 1
 698.268554688 733.055664062 l 2
EndSplineSet
EndChar

StartChar: K
Encoding: 75 75 10
Width: 1000
Flags: H
LayerCount: 2
Back
Fore
SplineSet
747.678710938 -112.600585938 m 0
 751.463867188 -104.557617188 752.7890625 -103.688476562 758.939453125 -105.21484375 c 0
 785.48046875 -111.799804688 797.931640625 -135.684570312 780.38671875 -146.360351562 c 0
 769.663085938 -152.885742188 761.313476562 -153.119140625 751.1640625 -147.178710938 c 0
 744.78515625 -143.444335938 743.389648438 -140.750976562 743.389648438 -132.171875 c 0
 743.389648438 -126.541992188 745.369140625 -117.508789062 747.678710938 -112.600585938 c 0
221.94140625 -95.205078125 m 0
 224.920898438 -93.99609375 231.59375 -92.9833984375 236.955078125 -92.92578125 c 0
 247.947265625 -92.8076171875 251.188476562 -96.900390625 248.50390625 -107.506835938 c 0
 247.60546875 -111.056640625 248.6171875 -117.426757812 250.762695312 -121.715820312 c 0
 254.532226562 -129.254882812 254.381835938 -129.706054688 245.802734375 -136.594726562 c 0
 237.818359375 -143.006835938 235.8828125 -143.4609375 225.962890625 -141.256835938 c 0
 209.073242188 -137.50390625 203.909179688 -131.543945312 206.01171875 -118.23046875 c 0
 207.831054688 -106.702148438 213.3828125 -98.6787109375 221.94140625 -95.205078125 c 0
665.10546875 -22.1220703125 m 0
 667.630859375 -21.451171875 674.623046875 -20.7919921875 680.7890625 -20.6435546875 c 0
 691.431640625 -20.38671875 692.217773438 -20.9111328125 698.885742188 -32.7080078125 c 2
 705.856445312 -45.0400390625 l 1
 700.305664062 -55.763671875 l 2
 692.813476562 -70.2412109375 684.676757812 -73.615234375 670.19921875 -68.2490234375 c 0
 659.962890625 -64.4541015625 658.760742188 -63.0029296875 656.97265625 -52.279296875 c 0
 654.649414062 -38.337890625 658.552734375 -23.8623046875 665.10546875 -22.1220703125 c 0
219.260742188 24.974609375 m 0
 230.520507812 32.1650390625 235.91796875 31.6328125 245.266601562 22.4091796875 c 0
 252.448242188 15.322265625 253.376953125 12.734375 252.102539062 3.3515625 c 0
 251.301757812 -2.546875 248.668945312 -9.6494140625 246.338867188 -12.1982421875 c 0
 243.887695312 -14.87890625 242.795898438 -17.63671875 243.791992188 -18.6328125 c 0
 244.764648438 -19.60546875 240.440429688 -20.375 234.005859375 -20.375 c 0
 224.086914062 -20.375 221.1875 -18.9912109375 213.228515625 -10.4560546875 c 0
 205.229492188 -1.876953125 204.196289062 0.75 205.587890625 8.9814453125 c 0
 206.494140625 14.3427734375 208.07421875 18.791015625 209.20703125 19.1689453125 c 0
 210.346679688 19.548828125 214.703125 22.064453125 219.260742188 24.974609375 c 0
569.663085938 63.8408203125 m 0
 577.169921875 69.068359375 595.787109375 69.2275390625 603.174804688 64.1259765625 c 0
 608.108398438 60.7197265625 608.985351562 57.640625 608.537109375 45.30859375 c 0
 608.040039062 31.6357421875 607.396484375 30.2763671875 599.689453125 26.6220703125 c 0
 584.676757812 19.50390625 573.737304688 21.8544921875 567.626953125 33.51171875 c 0
 561.584960938 45.0400390625 562.512695312 58.8603515625 569.663085938 63.8408203125 c 0
209.743164062 143.700195312 m 2
 218.0546875 151.521484375 222.697265625 153.98828125 226.901367188 152.815429688 c 0
 230.06640625 151.931640625 235.749023438 151.206054688 239.501953125 151.206054688 c 0
 244.888671875 151.206054688 247.025390625 149.330078125 249.577148438 142.359375 c 0
 253.895507812 130.563476562 251.154296875 117.14453125 243.389648438 112.071289062 c 0
 239.661132812 109.635742188 232.666015625 108.361328125 225.6953125 108.84765625 c 0
 215.359375 109.568359375 213.348632812 110.857421875 206.2578125 121.313476562 c 2
 198.349609375 132.975585938 l 1
 209.743164062 143.700195312 l 2
484.676757812 158.728515625 m 0
 493.791992188 163.951171875 504.317382812 162.358398438 513.094726562 154.426757812 c 0
 520.826171875 147.440429688 521.26953125 146.112304688 519.453125 135.388671875 c 0
 517.137695312 121.715820312 509.916992188 113.711914062 499.958007812 113.77734375 c 0
 487.505859375 113.860351562 475.29296875 127.614257812 475.29296875 141.5546875 c 0
 475.29296875 150.938476562 477.211914062 154.451171875 484.676757812 158.728515625 c 0
410.950195312 241.546875 m 0
 416.043945312 243.297851562 421.0078125 244.833007812 421.807617188 244.90625 c 0
 422.620117188 244.98046875 429.060546875 239.142578125 436.151367188 231.903320312 c 0
 444.029296875 223.860351562 447.875976562 218.090820312 446.0703125 217.024414062 c 0
 444.498046875 216.094726562 443.12109375 212.466796875 443.12109375 209.249023438 c 0
 443.12109375 204.940429688 440.440429688 201.94140625 433.73828125 198.751953125 c 0
 414.875 189.775390625 402.2265625 195.442382812 398.638671875 214.477539062 c 0
 395.91015625 228.954101562 399.911132812 237.751953125 410.950195312 241.546875 c 0
206.001953125 273.190429688 m 0
 207.239257812 277.727539062 209.609375 278.552734375 221.405273438 278.552734375 c 0
 239.904296875 278.552734375 246.99609375 273.293945312 248.885742188 258.176757812 c 0
 250.159179688 247.989257812 249.409179688 245.375 243.389648438 239.0078125 c 0
 238.095703125 233.408203125 233.872070312 231.635742188 225.829101562 231.635742188 c 0
 216.298828125 231.635742188 214.692382812 232.708007812 209.768554688 242.359375 c 0
 204.43359375 252.815429688 203.200195312 262.915039062 206.001953125 273.190429688 c 0
312.55859375 322.602539062 m 0
 325.962890625 331.176757812 335.9296875 329.71484375 344.19140625 317.962890625 c 0
 350.221679688 309.383789062 350.826171875 306.774414062 348.662109375 298.659179688 c 0
 345.159179688 285.522460938 339.153320312 279.892578125 328.64453125 279.892578125 c 0
 317.8125 279.892578125 310.379882812 286.86328125 306.6328125 300.536132812 c 0
 302.590820312 315.28125 302.897460938 316.422851562 312.55859375 322.602539062 c 0
222.350585938 407.23828125 m 0
 224.627929688 413.006835938 226.499023438 412.374023438 240.440429688 401.11328125 c 0
 251.1640625 392.452148438 252.772460938 389.859375 252.772460938 381.233398438 c 0
 252.772460938 370.596679688 244.73046875 361.772460938 232.129882812 358.583984375 c 0
 216.497070312 354.62890625 206.515625 363.270507812 203.18359375 383.646484375 c 0
 201.341796875 394.90625 201.526367188 395.270507812 211.083984375 399.330078125 c 0
 216.446289062 401.606445312 221.5390625 405.181640625 222.350585938 407.23828125 c 0
418.993164062 411.697265625 m 0
 430.252929688 414.541992188 431.438476562 414.31640625 436.776367188 408.310546875 c 0
 439.635742188 405.09375 443.734375 401.934570312 446.338867188 400.938476562 c 0
 450.592773438 399.311523438 450.57421875 398.2578125 446.0703125 385.12109375 c 0
 443.405273438 377.345703125 440.46484375 370.265625 439.501953125 369.302734375 c 0
 438.532226562 368.333007812 431.995117188 367.025390625 424.756835938 366.353515625 c 0
 412.424804688 365.209960938 411.374023438 365.637695312 404.381835938 374.665039062 c 0
 397.396484375 383.681640625 397.19921875 384.71875 400.630859375 394.370117188 c 0
 404.5390625 405.362304688 408.423828125 409.02734375 418.993164062 411.697265625 c 0
499.48046875 489.0078125 m 0
 508.181640625 498.391601562 518.4609375 499.560546875 525.403320312 491.95703125 c 0
 535.978515625 480.375 536.323242188 479.356445312 534.025390625 466.48828125 c 0
 531.10546875 450.133789062 530.87109375 449.8359375 519.529296875 448.009765625 c 0
 506.392578125 445.89453125 497.2109375 449.9765625 493.043945312 459.78515625 c 0
 488.489257812 470.509765625 490.408203125 479.224609375 499.48046875 489.0078125 c 0
208.268554688 519.180664062 m 0
 219.809570312 528.624023438 250.091796875 517.426757812 249.990234375 503.752929688 c 0
 249.922851562 494.637695312 238.493164062 477.481445312 230.7890625 474.930664062 c 0
 220.869140625 471.645507812 205.279296875 478.635742188 201.784179688 487.935546875 c 0
 198.055664062 497.85546875 201.298828125 513.477539062 208.268554688 519.180664062 c 0
589.234375 568.348632812 m 0
 593.791992188 570.333007812 599.01953125 571.904296875 601.298828125 571.975585938 c 0
 607.397460938 572.166015625 616.471679688 556.299804688 618.236328125 542.359375 c 0
 619.762695312 530.294921875 619.592773438 529.930664062 610.4140625 525.603515625 c 0
 605.3203125 523.202148438 598.702148438 521.1796875 595.936523438 521.1796875 c 0
 590.401367188 521.1796875 574.48828125 539.678710938 574.48828125 546.112304688 c 0
 574.48828125 554.69140625 581.236328125 564.8671875 589.234375 568.348632812 c 0
215.775390625 633.733398438 m 0
 229.716796875 639.275390625 243.3125 634.009765625 247.5 621.447265625 c 0
 250.315429688 613.002929688 249.91796875 610.9921875 243.522460938 601.340820312 c 0
 236.370117188 590.547851562 235.078125 589.874023438 223.282226562 590.78125 c 0
 215.775390625 591.359375 205.510742188 599.731445312 203.106445312 607.23828125 c 0
 200.787109375 614.477539062 208.638671875 630.896484375 215.775390625 633.733398438 c 0
681.19140625 644.797851562 m 0
 690.306640625 653.619140625 690.306640625 653.619140625 698.6171875 647.088867188 c 0
 702.37109375 644.140625 707.20703125 641.823242188 709.609375 641.823242188 c 0
 713.01171875 641.823242188 713.899414062 638.60546875 713.899414062 626.2734375 c 0
 713.899414062 606.970703125 708.97265625 601.409179688 690.306640625 599.637695312 c 0
 678.2421875 598.493164062 677.02734375 598.905273438 675.426757812 604.69140625 c 0
 674.4765625 608.127929688 673.684570312 617.024414062 673.684570312 624.262695312 c 0
 673.684570312 635.254882812 674.973632812 638.78125 681.19140625 644.797851562 c 0
768.858398438 729.653320312 m 0
 777.569335938 737.227539062 783.3359375 737.366210938 792.451171875 730.220703125 c 0
 807.790039062 718.197265625 802.907226562 690.080078125 785.48046875 690.080078125 c 0
 780.87109375 690.080078125 772.74609375 692.623046875 767.919921875 695.576171875 c 0
 759.581054688 700.6796875 759.044921875 701.876953125 760.4140625 712.33203125 c 0
 761.396484375 719.838867188 764.211914062 725.61328125 768.858398438 729.653320312 c 0
213.899414062 737.96875 m 0
 222.623046875 742.762695312 231.861328125 741.58984375 242.584960938 734.325195312 c 0
 257.1328125 724.470703125 254.91796875 708.61328125 237.491210938 697.853515625 c 0
 229.448242188 692.887695312 227.4296875 692.616210938 220.333007812 695.55078125 c 0
 199.421875 704.196289062 195.806640625 728.02734375 213.899414062 737.96875 c 0
EndSplineSet
EndChar

StartChar: L
Encoding: 76 76 11
Width: 1000
Flags: H
LayerCount: 2
Back
Fore
SplineSet
208.836914062 -129.049804688 m 0
 216.513671875 -120.390625 218.045898438 -119.770507812 226.1953125 -122.013671875 c 0
 245.748046875 -127.39453125 247.704101562 -129.634765625 247.704101562 -146.6484375 c 0
 247.704101562 -161.172851562 247.084960938 -162.642578125 239.044921875 -167.2265625 c 0
 225.916015625 -174.709960938 215.802734375 -173.4921875 207.32421875 -163.408203125 c 0
 197.708007812 -151.96875 198.1875 -141.061523438 208.836914062 -129.049804688 c 0
753.918945312 -124.301757812 m 0
 758.521484375 -118.165039062 762.228515625 -116.201171875 769.211914062 -116.201171875 c 0
 781.782226562 -116.201171875 792.079101562 -121.54296875 796.671875 -130.447265625 c 0
 802.350585938 -141.45703125 801.876953125 -144.133789062 792.126953125 -156.145507812 c 0
 785.09765625 -164.8046875 782.061523438 -166.48046875 773.40234375 -166.48046875 c 0
 760.83203125 -166.48046875 757.9765625 -164.712890625 752.186523438 -153.3515625 c 0
 746.065429688 -141.340820312 746.491210938 -134.206054688 753.918945312 -124.301757812 c 0
666.418945312 -117.59375 m 0
 683.939453125 -107.935546875 698.325195312 -117.876953125 701.184570312 -141.620117188 c 0
 702.731445312 -154.469726562 702.731445312 -154.469726562 691.55859375 -159.357421875 c 0
 685.413085938 -162.045898438 677.494140625 -163.515625 673.9609375 -162.623046875 c 0
 664.463867188 -160.225585938 652.731445312 -150.162109375 652.731445312 -144.413085938 c 0
 652.731445312 -134.357421875 659.27734375 -121.53125 666.418945312 -117.59375 c 0
457.201171875 -118.575195312 m 0
 462.5546875 -115.745117188 472.28515625 -113.408203125 478.708984375 -113.408203125 c 0
 489.8828125 -113.408203125 490.576171875 -113.900390625 493.266601562 -123.743164062 c 0
 496.244140625 -134.63671875 492.748046875 -155.307617188 487.927734375 -155.307617188 c 0
 486.513671875 -155.307617188 483.51953125 -157.262695312 481.083984375 -159.776367188 c 0
 477.836914062 -163.12890625 473.9609375 -163.755859375 465.581054688 -162.28515625 c 0
 451.385742188 -159.794921875 445.43359375 -151.396484375 446.580078125 -135.474609375 c 0
 447.303710938 -125.418945312 448.821289062 -123.004882812 457.201171875 -118.575195312 c 0
345.46875 -115.473632812 m 0
 347.790039062 -114.638671875 353.708984375 -113.841796875 358.737304688 -113.6875 c 0
 366 -113.463867188 368.932617188 -115.223632812 373.40234375 -122.486328125 c 0
 376.49609375 -127.513671875 378.98828125 -135.614257812 378.98828125 -140.642578125 c 0
 378.98828125 -148.090820312 377.033203125 -151 368.094726562 -156.84765625 c 0
 354.966796875 -165.436523438 345.346679688 -164.01171875 336.9453125 -152.234375 c 0
 326.897460938 -138.149414062 330.944335938 -120.697265625 345.46875 -115.473632812 c 0
582.061523438 -113.827148438 m 0
 584.854492188 -112.197265625 587.213867188 -110.83203125 587.368164062 -110.75390625 c 0
 587.522460938 -110.677734375 590.982421875 -115.642578125 595.057617188 -121.788085938 c 0
 609.966796875 -144.270507812 601.614257812 -163.6875 577.033203125 -163.6875 c 0
 567.536132812 -163.6875 554.966796875 -153.026367188 554.966796875 -144.971679688 c 0
 554.966796875 -142.190429688 557.087890625 -134.078125 559.71484375 -126.815429688 c 0
 563.857421875 -115.36328125 565.265625 -113.8828125 570.748046875 -115.223632812 c 0
 574.100585938 -116.04296875 579.379882812 -115.390625 582.061523438 -113.827148438 c 0
214.603515625 -10.0556640625 m 0
 221.028320312 -5.4111328125 228.436523438 -1.67578125 231.223632812 -1.67578125 c 0
 237.78125 -1.67578125 249.469726562 -16.201171875 251.90234375 -27.3740234375 c 0
 253.6328125 -35.3193359375 252.731445312 -37.34375 243.79296875 -45.5947265625 c 0
 232.620117188 -55.9091796875 224.544921875 -57.1298828125 214.184570312 -50.0703125 c 0
 204.37890625 -43.390625 203.010742188 -40.7822265625 203.010742188 -28.7705078125 c 0
 203.010742188 -19.8056640625 204.547851562 -17.3251953125 214.603515625 -10.0556640625 c 0
227.033203125 127.234375 m 0
 227.96875 128.715820312 231.36328125 127.975585938 234.71484375 125.55859375 c 0
 237.91796875 123.25 243.653320312 119.73046875 247.005859375 118.016601562 c 0
 252.243164062 115.33984375 253.290039062 112.5703125 253.290039062 101.396484375 c 0
 253.290039062 90.5029296875 251.875976562 86.6708984375 245.748046875 80.9609375 c 0
 234.55859375 70.5341796875 222.28515625 71.4501953125 209.994140625 83.6298828125 c 0
 199.1875 94.33984375 198.413085938 97.765625 203.579101562 112.010742188 c 0
 206.212890625 119.2734375 208.876953125 121.584960938 216.139648438 122.905273438 c 0
 221.16796875 123.819335938 226.119140625 125.787109375 227.033203125 127.234375 c 0
222.564453125 255.586914062 m 0
 222.564453125 259.2734375 224.240234375 258.91015625 236.530273438 252.557617188 c 0
 242.396484375 249.526367188 248.743164062 244.477539062 250.282226562 241.620117188 c 0
 256.599609375 229.888671875 251.697265625 206.500976562 242.396484375 203.99609375 c 0
 239.98046875 203.345703125 233.178710938 201.958984375 227.591796875 200.977539062 c 0
 218.073242188 199.305664062 216.694335938 200 210.133789062 209.776367188 c 0
 205.635742188 216.48046875 203.010742188 224.301757812 203.010742188 231.005859375 c 0
 203.010742188 240.223632812 204.297851562 242.374023438 212.788085938 247.346679688 c 0
 218.094726562 250.455078125 222.564453125 254.221679688 222.564453125 255.586914062 c 0
211.111328125 371.724609375 m 0
 224.51953125 380.705078125 234.821289062 380.16796875 242.017578125 370.111328125 c 0
 249.287109375 359.952148438 249.3828125 348.8828125 242.298828125 337.4296875 c 0
 236.490234375 328.0390625 235.413085938 327.90234375 215.022460938 333.9609375 c 0
 205.509765625 336.787109375 199.03515625 348.044921875 200.657226562 358.938476562 c 0
 201.192382812 362.528320312 205.8046875 368.169921875 211.111328125 371.724609375 c 0
208.458007812 495.390625 m 2
 213.20703125 499.989257812 219.571289062 503.91015625 222.28515625 503.91015625 c 0
 245.748046875 503.91015625 256.033203125 492.590820312 250.201171875 473.184570312 c 0
 245.250976562 456.71484375 239.8828125 453.048828125 222.28515625 454.124023438 c 2
 207.48046875 455.028320312 l 1
 203.569335938 470.950195312 l 1
 199.659179688 486.87109375 l 1
 208.458007812 495.390625 l 2
210.133789062 628.630859375 m 0
 215.920898438 634.418945312 218.932617188 635.421875 226.1953125 633.984375 c 0
 238.209960938 631.60546875 246.78515625 622.067382812 248.961914062 608.659179688 c 0
 250.640625 598.32421875 250.064453125 596.924804688 241.279296875 589.998046875 c 0
 225.357421875 577.444335938 219.3125 577.330078125 208.731445312 589.385742188 c 0
 202.356445312 596.6484375 200.157226562 601.46484375 201.334960938 605.586914062 c 0
 202.29296875 608.938476562 203.010742188 613.607421875 203.010742188 616.48046875 c 0
 203.010742188 619.241210938 206.223632812 624.720703125 210.133789062 628.630859375 c 0
218.374023438 751.7734375 m 0
 224.51953125 755.252929688 232.1875 758.100585938 235.413085938 758.100585938 c 0
 242.865234375 758.100585938 250.647460938 746.6484375 252.495117188 732.9609375 c 0
 255.362304688 711.731445312 232.3828125 699.401367188 213.346679688 711.953125 c 0
 197.783203125 722.213867188 200.217773438 741.4921875 218.374023438 751.7734375 c 0
EndSplineSet
EndChar

StartChar: M
Encoding: 77 77 12
Width: 1000
Flags: H
LayerCount: 2
Back
Fore
SplineSet
888.732421875 -119.90625 m 0
 903.297851562 -114.5234375 905.681640625 -114.961914062 915.903320312 -124.907226562 c 0
 929.635742188 -138.268554688 928.508789062 -149.827148438 912.26171875 -162.250976562 c 2
 902.458007812 -169.748046875 l 1
 889.852539062 -162.325195312 l 1
 877.248046875 -154.90234375 l 1
 878.087890625 -139.215820312 l 2
 878.8984375 -124.08984375 879.278320312 -123.400390625 888.732421875 -119.90625 c 0
80.609375 -112.477539062 m 0
 85.265625 -109.090820312 98.255859375 -109.955078125 108.620117188 -114.33984375 c 0
 117.740234375 -118.198242188 118.424804688 -119.328125 118.424804688 -130.532226562 c 0
 118.424804688 -137.53515625 116.079101562 -146.387695312 112.822265625 -151.680664062 c 0
 108.153320312 -159.266601562 105.5390625 -160.784179688 97.1357421875 -160.784179688 c 0
 82.2900390625 -160.784179688 70.8056640625 -151.62109375 70.8056640625 -139.776367188 c 0
 70.8056640625 -129.69140625 75.70703125 -116.04296875 80.609375 -112.477539062 c 0
896.85546875 4.92578125 m 0
 900.77734375 5.8935546875 904.78515625 6.787109375 905.5390625 6.8623046875 c 0
 906.29296875 6.9384765625 911.981445312 2.3486328125 917.864257812 -3.0810546875 c 2
 928.788085938 -13.1650390625 l 1
 922.206054688 -25.2099609375 l 2
 916.37109375 -35.8857421875 914.22265625 -37.470703125 903.297851562 -39.158203125 c 0
 886.771484375 -41.7099609375 877.528320312 -37.3095703125 877.528320312 -26.890625 c 0
 877.528320312 -22.689453125 876.09765625 -17.6171875 874.446289062 -15.966796875 c 0
 870.470703125 -11.990234375 885.651367188 2.162109375 896.85546875 4.92578125 c 0
86.2119140625 5.443359375 m 0
 98.5361328125 11.814453125 107.227539062 10.93359375 115.030273438 2.521484375 c 0
 121.325195312 -4.265625 121.548828125 -5.6025390625 118.309570312 -17.0869140625 c 0
 113.805664062 -33.052734375 109.103515625 -37.53515625 96.85546875 -37.53515625 c 0
 82.5703125 -37.53515625 70.8056640625 -28.173828125 70.8056640625 -16.806640625 c 0
 70.8056640625 -6.1572265625 74.7265625 -0.494140625 86.2119140625 5.443359375 c 0
880.889648438 120.16796875 m 0
 885.337890625 124.616210938 890.973632812 126.740234375 899.096679688 127.03125 c 0
 909.180664062 127.390625 912.090820312 126.05078125 919.469726562 117.647460938 c 0
 930.104492188 105.53515625 930.169921875 103.361328125 920.28125 90.4765625 c 0
 914.046875 82.3525390625 910.635742188 80.3681640625 902.73828125 80.267578125 c 0
 891.533203125 80.1259765625 889.55078125 81.232421875 880.922851562 92.4365234375 c 0
 872.942382812 102.80078125 872.931640625 112.209960938 880.889648438 120.16796875 c 0
76.4775390625 123.529296875 m 0
 87.6474609375 139.776367188 98.7177734375 140.81640625 112.24609375 126.890625 c 0
 119.865234375 119.047851562 120.969726562 116.331054688 119.5390625 108.963867188 c 0
 117.158203125 96.69921875 107.5 88.5029296875 94.89453125 88.048828125 c 0
 86.4912109375 87.74609375 82.9677734375 89.37109375 76.267578125 96.638671875 c 0
 71.619140625 101.680664062 68.00390625 106.828125 68.00390625 108.403320312 c 0
 68.00390625 109.931640625 71.85546875 116.806640625 76.4775390625 123.529296875 c 0
493.7578125 197.19921875 m 0
 498.903320312 205.663085938 500.357421875 206.372070312 511.000976562 205.602539062 c 0
 519.684570312 204.974609375 523.995117188 202.918945312 528.036132812 197.478515625 c 0
 539.064453125 182.6328125 532.149414062 155.7421875 517.303710938 155.7421875 c 0
 513.3828125 155.7421875 504.978515625 159.725585938 499.096679688 164.372070312 c 0
 486.466796875 174.349609375 485.07421875 182.913085938 493.7578125 197.19921875 c 0
884.250976562 246.022460938 m 0
 885.9453125 247.208984375 892.374023438 248.1796875 898.536132812 248.1796875 c 0
 912.822265625 248.1796875 925.288085938 237.018554688 925.131835938 224.370117188 c 0
 924.997070312 213.586914062 914.22265625 200.965820312 903.297851562 198.794921875 c 0
 892.374023438 196.624023438 878.76171875 203.900390625 876.415039062 213.165039062 c 0
 874.427734375 221.008789062 879.620117188 242.78125 884.250976562 246.022460938 c 0
82.8505859375 253.530273438 m 0
 100.4765625 264.801757812 117.28515625 258.263671875 120.368164062 238.935546875 c 0
 121.842773438 229.69140625 121.015625 227.204101562 114.083007812 220.028320312 c 0
 107.620117188 213.338867188 103.858398438 211.764648438 94.3349609375 211.764648438 c 0
 79.6318359375 211.764648438 73.6064453125 218.767578125 73.6064453125 235.854492188 c 0
 73.6064453125 245.938476562 74.9267578125 248.463867188 82.8505859375 253.530273438 c 0
561.510742188 292.716796875 m 0
 572.00390625 307.14453125 580.609375 307.889648438 595.455078125 295.655273438 c 0
 604.069335938 288.556640625 605.819335938 285.293945312 605.819335938 276.330078125 c 0
 605.819335938 267.3671875 604.092773438 264.24609375 595.595703125 257.842773438 c 2
 585.37109375 250.139648438 l 1
 572.765625 256.862304688 l 2
 564.642578125 261.1953125 558.916015625 266.72265625 556.659179688 272.409179688 c 0
 553.4140625 280.586914062 553.76953125 282.073242188 561.510742188 292.716796875 c 0
435.791015625 302.03515625 m 0
 437.610351562 303.208007812 444.615234375 304.202148438 451.057617188 304.202148438 c 0
 461.421875 304.202148438 463.671875 303.041992188 468.4453125 295.23828125 c 0
 479.770507812 276.7265625 471.365234375 256.583007812 452.318359375 256.583007812 c 0
 440.2734375 256.583007812 426.547851562 267.920898438 426.547851562 277.87109375 c 0
 426.547851562 285.994140625 431.666992188 299.377929688 435.791015625 302.03515625 c 0
886.412109375 361.625 m 0
 894.947265625 371.40625 896.155273438 371.89453125 907.919921875 370.30859375 c 0
 914.642578125 369.401367188 921.159179688 367.853515625 922.065429688 366.947265625 c 0
 922.993164062 366.01953125 923.74609375 357.983398438 923.74609375 349.01953125 c 0
 923.74609375 320.728515625 909.513671875 313.663085938 887.051757812 330.8046875 c 0
 875.1015625 339.924804688 874.924804688 348.458984375 886.412109375 361.625 c 0
81.169921875 378.155273438 m 0
 94.89453125 387.552734375 111.155273438 387.943359375 115.958007812 378.991210938 c 0
 117.76171875 375.629882812 121.046875 371.516601562 123.186523438 369.942382812 c 0
 130.090820312 364.859375 120.10546875 347.786132812 105.819335938 340.248046875 c 0
 95.455078125 334.780273438 92.7578125 334.350585938 86.4912109375 337.170898438 c 0
 79.0556640625 340.517578125 75.986328125 345.938476562 72.48828125 361.904296875 c 0
 70.7314453125 369.924804688 71.6455078125 371.635742188 81.169921875 378.155273438 c 0
628.788085938 392.260742188 m 0
 636.581054688 397.704101562 651.477539062 397.875976562 661.561523438 392.63671875 c 0
 674.834960938 385.7421875 675.297851562 366.38671875 662.565429688 350.700195312 c 0
 655.907226562 342.497070312 643.07421875 344.1015625 631.58984375 354.572265625 c 0
 624.020507812 361.473632812 622.625976562 364.706054688 622.625976562 375.350585938 c 0
 622.625976562 385.154296875 623.995117188 388.912109375 628.788085938 392.260742188 c 0
360.44140625 389.635742188 m 0
 369.34765625 398.54296875 383.41015625 399.103515625 393.774414062 390.965820312 c 0
 403.858398438 383.047851562 404.21875 365.822265625 394.505859375 356.022460938 c 0
 385.973632812 347.4140625 376.967773438 347.2578125 364.642578125 355.502929688 c 0
 351.7578125 364.122070312 349.913085938 379.107421875 360.44140625 389.635742188 c 0
898.536132812 493.409179688 m 0
 904.454101562 495.461914062 915.623046875 491.369140625 922.90625 484.48046875 c 0
 929.1484375 478.575195312 929.868164062 476.190429688 927.940429688 467.787109375 c 0
 924.53515625 452.94140625 917.78125 447.05859375 904.138671875 447.05859375 c 0
 886.689453125 447.05859375 882.31640625 451.8203125 881.240234375 471.989257812 c 0
 880.359375 488.515625 880.58203125 489.130859375 888.032226562 490.755859375 c 0
 892.233398438 491.672851562 897.008789062 492.87890625 898.536132812 493.409179688 c 0
695.595703125 489.635742188 m 0
 702.646484375 496.572265625 705.6796875 497.74609375 712.961914062 496.358398438 c 0
 717.723632812 495.451171875 721.915039062 494.35546875 722.065429688 493.977539062 c 0
 722.223632812 493.583984375 725.090820312 489.35546875 728.620117188 484.313476562 c 0
 736.463867188 473.109375 736.279296875 468.814453125 727.514648438 458.54296875 c 0
 721.33984375 451.307617188 718.14453125 449.876953125 708.33984375 449.959960938 c 0
 692.374023438 450.094726562 687.051757812 454.971679688 687.051757812 469.467773438 c 0
 687.051757812 478.991210938 688.678710938 482.833007812 695.595703125 489.635742188 c 0
315.342773438 494.529296875 m 0
 321.786132812 495.837890625 327.614257812 497.045898438 328.228515625 497.19921875 c 0
 330.065429688 497.658203125 336.904296875 488.235351562 339.817382812 481.232421875 c 0
 343.047851562 473.463867188 338.032226562 459.677734375 329.068359375 451.690429688 c 0
 321.463867188 444.9140625 310.581054688 447.197265625 296.85546875 458.450195312 c 0
 287.612304688 466.028320312 286.854492188 467.61328125 289.852539062 473.109375 c 0
 291.686523438 476.470703125 292.924804688 480.799804688 292.578125 482.6328125 c 0
 291.77734375 486.8671875 300.77734375 491.5703125 315.342773438 494.529296875 c 0
89.8525390625 509.626953125 m 0
 97.6962890625 511.69140625 98.255859375 511.658203125 106.099609375 508.668945312 c 0
 133.211914062 498.337890625 127.948242188 461.064453125 99.376953125 461.064453125 c 0
 85.0908203125 461.064453125 77.419921875 466.98046875 75.4052734375 479.551757812 c 0
 73.5205078125 491.31640625 81.2255859375 507.356445312 89.8525390625 509.626953125 c 0
747.8359375 575.670898438 m 0
 758.423828125 584.413085938 760.721679688 584.614257812 777.248046875 578.25 c 0
 790.279296875 573.232421875 791.057617188 553.500976562 778.744140625 540.3359375 c 0
 769.80859375 530.783203125 751.122070312 531.372070312 743.240234375 541.45703125 c 0
 733.888671875 553.418945312 735.510742188 565.495117188 747.8359375 575.670898438 c 0
246.715820312 580.489257812 m 0
 253.999023438 582.450195312 260.506835938 584.033203125 261.28125 584.033203125 c 0
 262.053710938 584.033203125 265.57421875 577.87109375 269.125 570.30859375 c 0
 275.041015625 557.703125 275.227539062 555.919921875 271.411132812 548.458984375 c 0
 264.69140625 535.326171875 260.161132812 532.954101562 245.875 535.08984375 c 0
 233.830078125 536.890625 233.139648438 537.498046875 230.329101562 548.739257812 c 0
 228.71875 555.181640625 226.80859375 562.53125 226.107421875 564.986328125 c 0
 224.325195312 571.22265625 231.029296875 576.265625 246.715820312 580.489257812 c 0
892.374023438 617.999023438 m 0
 906.379882812 626.596679688 914.995117188 625.168945312 924.919921875 612.60546875 c 0
 933.329101562 601.9609375 933.444335938 601.4296875 929.416992188 591.876953125 c 0
 924.065429688 579.180664062 915.342773438 573.109375 902.458007812 573.109375 c 0
 887.89453125 573.109375 881.129882812 584.313476562 882.669921875 605.8828125 c 0
 882.94921875 609.787109375 886.771484375 614.560546875 892.374023438 617.999023438 c 0
79.4892578125 621.895507812 m 0
 85.0146484375 626.5 91.533203125 629.131835938 97.416015625 629.131835938 c 0
 108.33984375 629.131835938 124.026367188 617.408203125 124.026367188 609.244140625 c 0
 124.026367188 602.80078125 116.2734375 586.737304688 111.702148438 583.706054688 c 0
 104.611328125 579.005859375 91.25390625 581.857421875 81.169921875 590.22265625 c 0
 67.7236328125 601.377929688 67.1796875 611.637695312 79.4892578125 621.895507812 c 0
808.48046875 667.647460938 m 0
 814.000976562 673.529296875 819.749023438 676.750976562 824.7265625 676.750976562 c 0
 830.263671875 676.750976562 834.291992188 674.229492188 839.05078125 667.787109375 c 0
 848.982421875 654.341796875 849.669921875 650.5 843.868164062 640.896484375 c 0
 837.5078125 630.370117188 827.387695312 627.298828125 813.102539062 631.559570312 c 0
 803.334960938 634.47265625 802.354492188 635.713867188 801.197265625 646.638671875 c 0
 800.099609375 657.002929688 801.04296875 659.721679688 808.48046875 667.647460938 c 0
177.80859375 679.236328125 m 0
 186.360351562 682.391601562 192.654296875 680.330078125 202.458007812 671.163085938 c 0
 209.399414062 664.671875 210.861328125 661.064453125 210.861328125 650.419921875 c 0
 210.861328125 639.215820312 210.112304688 637.53515625 205.119140625 637.53515625 c 0
 202.038085938 637.53515625 198.663085938 635.587890625 197.8359375 633.333007812 c 0
 196.822265625 630.569335938 192.654296875 629.131835938 185.651367188 629.131835938 c 0
 177.248046875 629.131835938 173.473632812 630.959960938 167.723632812 637.815429688 c 0
 163.73046875 642.577148438 160.44140625 649.28125 160.44140625 652.661132812 c 0
 160.44140625 661.064453125 170.572265625 676.56640625 177.80859375 679.236328125 c 0
90.693359375 742.314453125 m 0
 97.4970703125 748.006835938 102.318359375 749.580078125 112.961914062 749.580078125 c 0
 120.525390625 749.580078125 127.310546875 748.337890625 128.26953125 746.778320312 c 0
 131.368164062 741.736328125 130.892578125 710.5078125 127.66796875 707.283203125 c 0
 125.967773438 705.583007812 119.125 703.134765625 112.40234375 701.8203125 c 0
 101.197265625 699.630859375 99.4736328125 700.154296875 90.9736328125 708.317382812 c 0
 78.6484375 720.154296875 78.5498046875 732.153320312 90.693359375 742.314453125 c 0
883.970703125 753.76953125 m 0
 896.295898438 759.119140625 902.048828125 758.749023438 905.544921875 752.380859375 c 0
 907.1953125 749.375 911.28125 746.778320312 914.362304688 746.778320312 c 0
 918.95703125 746.778320312 919.768554688 745.518554688 918.424804688 740.4765625 c 0
 917.490234375 736.974609375 916.744140625 730.8125 916.744140625 726.610351562 c 0
 916.744140625 717.505859375 905.5390625 710.364257812 891.25390625 710.364257812 c 0
 866.04296875 710.364257812 860.471679688 743.569335938 883.970703125 753.76953125 c 0
EndSplineSet
EndChar

StartChar: N
Encoding: 78 78 13
Width: 1000
Flags: H
LayerCount: 2
Back
Fore
SplineSet
140.689453125 -124.594726562 m 0
 152.374023438 -116.7734375 163.134765625 -116.864257812 172.482421875 -124.862304688 c 0
 181.087890625 -132.225585938 181.892578125 -141.84765625 175.198242188 -157.336914062 c 0
 170.889648438 -167.305664062 170.716796875 -167.391601562 154.956054688 -167.391601562 c 0
 139.194335938 -167.391601562 139.018554688 -167.30078125 134.298828125 -156.793945312 c 0
 127.5859375 -141.84765625 129.52734375 -132.065429688 140.689453125 -124.594726562 c 0
837.700195312 -110.081054688 m 0
 858.624023438 -105.083007812 871.939453125 -111.73046875 871.939453125 -127.173828125 c 0
 871.939453125 -145.923828125 857.696289062 -158.451171875 840.145507812 -155.135742188 c 0
 828.463867188 -152.9296875 823.026367188 -144.565429688 823.026367188 -128.8046875 c 0
 823.026367188 -115.217773438 824.598632812 -113.2109375 837.700195312 -110.081054688 c 0
745.30859375 -32.5712890625 m 0
 760.911132812 -19.12109375 784.982421875 -27.7177734375 784.982421875 -46.7392578125 c 0
 784.982421875 -61.1416015625 780.91796875 -68.3330078125 771.124023438 -71.2548828125 c 0
 760.797851562 -74.3359375 746.694335938 -71.7021484375 741.708007812 -65.7607421875 c 0
 739.959960938 -63.677734375 738.331054688 -56.7939453125 738.107421875 -50.5439453125 c 0
 737.768554688 -41.0322265625 738.96875 -38.037109375 745.30859375 -32.5712890625 c 0
144.765625 23.5654296875 m 0
 146.380859375 24.634765625 152.374023438 25.5439453125 157.80859375 25.5439453125 c 0
 170.526367188 25.5439453125 179.004882812 15.7607421875 179.004882812 1.0869140625 c 0
 179.004882812 -12.017578125 170.581054688 -19.884765625 154.819335938 -21.498046875 c 0
 136.884765625 -23.3349609375 133.658203125 -21.7392578125 132.231445312 -10.326171875 c 0
 130.974609375 -0.271484375 138.177734375 19.2060546875 144.765625 23.5654296875 c 0
834.7109375 31.0263671875 m 0
 855.15625 43.5263671875 878.53515625 33.423828125 878.841796875 11.9560546875 c 0
 878.993164062 1.33984375 878.189453125 0.0693359375 867.319335938 -6.25 c 0
 857.265625 -12.095703125 854.421875 -12.6240234375 846.939453125 -10.0390625 c 0
 832.80859375 -5.158203125 825.743164062 3.2607421875 825.743164062 15.2177734375 c 0
 825.743164062 23.9130859375 827.159179688 26.4091796875 834.7109375 31.0263671875 c 0
680.90625 62.3671875 m 0
 691.776367188 66.2314453125 698.172851562 65.373046875 708.624023438 58.6435546875 c 0
 714.005859375 55.1787109375 714.623046875 53.2607421875 713.064453125 44.8369140625 c 0
 709.948242188 27.9892578125 690.260742188 16.12109375 677.102539062 23.158203125 c 0
 671.124023438 26.35546875 655.28125 46.939453125 657.80859375 48.2265625 c 0
 658.25390625 48.453125 661.341796875 50.9267578125 664.602539062 53.6689453125 c 0
 667.90625 56.4462890625 675.200195312 60.337890625 680.90625 62.3671875 c 0
601.314453125 154.076171875 m 0
 609.11328125 162.530273438 615.145507812 163.13671875 628.4609375 156.8046875 c 0
 640.8125 150.931640625 644.16015625 136.141601562 636.212890625 122.5546875 c 0
 628.743164062 109.782226562 618.498046875 106.989257812 605.90625 114.291015625 c 0
 589.602539062 123.74609375 587.79296875 139.418945312 601.314453125 154.076171875 c 0
135.254882812 162.3828125 m 0
 137.6796875 163.0546875 145.852539062 163.70703125 153.732421875 163.858398438 c 0
 166.504882812 164.104492188 168.502929688 163.307617188 174.520507812 155.5703125 c 0
 180.015625 148.505859375 180.750976562 145.587890625 178.732421875 138.858398438 c 0
 177.346679688 134.239257812 173.166992188 127.409179688 169.0859375 123.09765625 c 0
 163.362304688 117.049804688 159.7109375 115.577148438 151.287109375 115.916992188 c 0
 140.19140625 116.365234375 133.046875 122.826171875 128.923828125 136.141601562 c 0
 126.146484375 145.108398438 129.9609375 160.916992188 135.254882812 162.3828125 c 0
845.852539062 175.102539062 m 0
 849.11328125 176.44140625 853.887695312 176.921875 856.993164062 176.22265625 c 0
 859.982421875 175.549804688 864.018554688 174.983398438 865.9609375 174.962890625 c 0
 870.54296875 174.915039062 880.79296875 151.630859375 878.864257812 145.65234375 c 0
 878.051757812 143.1328125 873.297851562 138.254882812 868.40625 134.921875 c 0
 855.79296875 126.327148438 840.481445312 129.34765625 831.9296875 142.119140625 c 0
 828.47265625 147.282226562 825.743164062 152.317382812 825.743164062 153.532226562 c 0
 825.743164062 157.311523438 840.145507812 172.760742188 845.852539062 175.102539062 c 0
526.694335938 240.489257812 m 0
 536.928710938 251.37109375 537.971679688 251.815429688 549.11328125 250.037109375 c 0
 561.817382812 248.010742188 563.387695312 246.467773438 567.962890625 231.521484375 c 0
 570.958007812 221.739257812 570.717773438 220.766601562 563.396484375 213.043945312 c 0
 552.578125 201.630859375 538.787109375 201.766601562 525.471679688 213.416992188 c 0
 520.30859375 217.934570312 515.9609375 223.416015625 515.9609375 225.407226562 c 0
 515.9609375 227.416992188 520.81640625 234.239257812 526.694335938 240.489257812 c 0
136.069335938 303.77734375 m 0
 144.23828125 309.495117188 158.352539062 309.309570312 168.678710938 303.34765625 c 0
 176.159179688 299.029296875 176.696289062 297.690429688 175.200195312 287.092773438 c 0
 174.317382812 280.842773438 171.63671875 271.802734375 169.357421875 267.391601562 c 0
 165.624023438 260.165039062 163.787109375 259.239257812 153.189453125 259.239257812 c 0
 135.254882812 259.239257812 128.329101562 263.452148438 126.390625 275.543945312 c 0
 124.38671875 288.043945312 127.794921875 297.985351562 136.069335938 303.77734375 c 0
835.732421875 304.076171875 m 0
 845.927734375 314.634765625 854.547851562 316.0625 871.939453125 310.0703125 c 0
 880.634765625 307.07421875 881.368164062 305.978515625 880.499023438 297.282226562 c 0
 879.978515625 292.07421875 876.290039062 282.608398438 872.346679688 276.358398438 c 0
 865.83203125 266.032226562 864.084960938 264.934570312 854.004882812 264.83203125 c 0
 841.52734375 264.705078125 836.944335938 268.478515625 830.4375 284.239257812 c 0
 826.287109375 294.293945312 826.287109375 294.293945312 835.732421875 304.076171875 c 0
463.379882812 351.086914062 m 0
 473.454101562 353.704101562 474.21875 353.396484375 484.03125 342.798828125 c 0
 489.567382812 336.8203125 494.221679688 329.434570312 494.221679688 326.630859375 c 0
 494.221679688 307.936523438 469.765625 296.93359375 450.471679688 306.947265625 c 0
 440.872070312 311.9296875 440.134765625 320.380859375 447.829101562 337.228515625 c 0
 451.924804688 346.1953125 454.958984375 348.899414062 463.379882812 351.086914062 c 0
135.916015625 431.793945312 m 0
 140.194335938 437.259765625 143.54296875 438.586914062 153.053710938 438.586914062 c 0
 163.651367188 438.586914062 165.491210938 437.546875 170.838867188 428.532226562 c 0
 180.994140625 411.413085938 181.057617188 403.934570312 171.124023438 394.881835938 c 0
 164.291992188 388.654296875 159.982421875 386.956054688 151.015625 386.956054688 c 0
 137.971679688 386.956054688 135.015625 388.431640625 130.318359375 397.282226562 c 0
 125.928710938 405.556640625 128.685546875 422.5546875 135.916015625 431.793945312 c 0
379.547851562 444.219726562 m 0
 389.331054688 451.939453125 412.700195312 450.650390625 412.700195312 442.391601562 c 0
 412.700195312 440.245117188 414.12109375 436.27734375 415.9609375 433.288085938 c 0
 418.638671875 428.9375 418.2734375 425.6796875 413.922851562 415.081054688 c 0
 409.4609375 404.211914062 407.122070312 401.833984375 399.11328125 400.020507812 c 0
 384.16796875 396.63671875 377.977539062 399.265625 371.643554688 411.684570312 c 0
 366.79296875 421.1953125 366.458007812 423.999023438 369.357421875 430.842773438 c 0
 371.200195312 435.190429688 375.86328125 441.311523438 379.547851562 444.219726562 c 0
839.874023438 443.75 m 0
 846.831054688 450.271484375 850.471679688 451.696289062 858.081054688 450.874023438 c 0
 871.939453125 449.375976562 877.885742188 446.49609375 876.158203125 442.119140625 c 0
 875.32421875 440.005859375 876.040039062 436.141601562 877.76953125 433.423828125 c 0
 881.698242188 427.25 879.40625 417.391601562 871.831054688 407.880859375 c 0
 864.255859375 398.369140625 852.374023438 398.252929688 840.145507812 407.5703125 c 0
 832.788085938 413.17578125 831.178710938 416.3046875 831.178710938 425 c 0
 831.178710938 433.423828125 832.961914062 437.270507812 839.874023438 443.75 c 0
306.178710938 541.676757812 m 0
 322.859375 551.413085938 342.208007812 538.043945312 342.112304688 516.84765625 c 0
 342.057617188 504.772460938 339.874023438 502.115234375 327.102539062 498.578125 c 0
 311.61328125 494.2890625 304.765625 494.891601562 298.569335938 501.086914062 c 0
 289.194335938 510.461914062 293.678710938 534.380859375 306.178710938 541.676757812 c 0
137.971679688 572.561523438 m 0
 160.526367188 576.098632812 172.006835938 569.6953125 174.529296875 552.173828125 c 0
 175.819335938 543.206054688 174.978515625 541.108398438 168.134765625 536.23046875 c 0
 154.004882812 526.157226562 145.022460938 524.375 135.797851562 529.81640625 c 0
 119.833007812 539.232421875 121.395507812 569.961914062 137.971679688 572.561523438 c 0
839.331054688 593.478515625 m 0
 839.331054688 597.58984375 865.41796875 592.462890625 873.026367188 586.856445312 c 0
 879.943359375 581.759765625 880.508789062 580.163085938 879.247070312 569.293945312 c 0
 877.638671875 555.434570312 871.66796875 549.170898438 855.36328125 544.23828125 c 0
 845.30859375 541.197265625 844.361328125 541.419921875 836.884765625 548.587890625 c 0
 825.743164062 559.26953125 824.095703125 573.1015625 832.735351562 583.423828125 c 0
 836.374023438 587.771484375 839.331054688 592.279296875 839.331054688 593.478515625 c 0
232.265625 628.62109375 m 0
 243.678710938 632.013671875 245.639648438 631.84375 254.819335938 626.661132812 c 0
 267.319335938 619.604492188 267.513671875 602.173828125 255.23046875 589.673828125 c 0
 248.390625 582.712890625 246.66796875 582.227539062 234.982421875 583.967773438 c 0
 224.65625 585.504882812 221.46484375 587.326171875 218.31640625 593.478515625 c 0
 209.8125 610.094726562 215.145507812 623.53125 232.265625 628.62109375 c 0
127.509765625 700.543945312 m 0
 135.061523438 709.208984375 136.884765625 709.94921875 148.026367188 708.875976562 c 0
 159.439453125 707.775390625 177.491210938 698.254882812 175.67578125 694.293945312 c 0
 175.262695312 693.391601562 172.665039062 686.956054688 169.862304688 679.891601562 c 0
 164.178710938 665.563476562 155.634765625 660.76953125 140.145507812 663.21484375 c 0
 132.463867188 664.427734375 129.921875 666.711914062 125.064453125 676.766601562 c 0
 121.913085938 683.288085938 119.221679688 689.359375 119.221679688 689.9453125 c 0
 119.221679688 690.536132812 123.010742188 695.380859375 127.509765625 700.543945312 c 0
840.145507812 720.860351562 m 0
 848.083007812 725.844726562 853.4609375 726.181640625 865.689453125 722.459960938 c 0
 867.49609375 721.91015625 871.494140625 716.440429688 874.65625 710.190429688 c 2
 880.36328125 698.913085938 l 1
 873.297851562 689.673828125 l 2
 865.30859375 679.2265625 858.352539062 676.78125 845.037109375 679.740234375 c 0
 837.030273438 681.51953125 835.322265625 683.423828125 832.2265625 694.021484375 c 0
 827.783203125 709.239257812 829.180664062 713.975585938 840.145507812 720.860351562 c 0
EndSplineSet
EndChar

StartChar: O
Encoding: 79 79 14
Width: 1000
Flags: H
LayerCount: 2
Back
Fore
SplineSet
408.421875 -122.3828125 m 0
 413.408203125 -119.693359375 420.08203125 -117.330078125 423.103515625 -117.18359375 c 0
 429.03515625 -116.896484375 440.1796875 -123.545898438 445.837890625 -130.748046875 c 0
 451.04296875 -137.372070312 449.993164062 -151.5234375 443.702148438 -159.556640625 c 0
 439.243164062 -165.251953125 435.569335938 -166.758789062 426.150390625 -166.758789062 c 0
 411.907226562 -166.758789062 406.29296875 -161.49609375 400.739257812 -142.936523438 c 0
 396.344726562 -128.254882812 396.043945312 -129.060546875 408.421875 -122.3828125 c 0
557.17578125 -122.161132812 m 0
 561.608398438 -117.728515625 567.568359375 -114.126953125 570.47265625 -114.126953125 c 0
 579.059570312 -114.126953125 590.352539062 -120.666992188 593.435546875 -127.423828125 c 0
 603.797851562 -150.138671875 582.283203125 -169.4921875 559.668945312 -157.797851562 c 0
 550.1953125 -152.8984375 549.142578125 -151.24609375 549.142578125 -141.274414062 c 0
 549.142578125 -132.686523438 550.950195312 -128.38671875 557.17578125 -122.161132812 c 0
710.638671875 -53.25 m 0
 718.671875 -49.974609375 719.225585938 -49.966796875 727.258789062 -53.013671875 c 0
 735.0625 -55.9736328125 743.048828125 -71.19140625 743.048828125 -83.1025390625 c 0
 743.048828125 -92.3818359375 738.338867188 -94.7373046875 719.779296875 -94.7373046875 c 0
 708.421875 -94.7373046875 690.416992188 -85.734375 690.416992188 -80.0556640625 c 0
 690.416992188 -74.2080078125 704.267578125 -55.84765625 710.638671875 -53.25 c 0
257.8125 -52.3544921875 m 0
 262.5390625 -46.794921875 264.377929688 -46.6474609375 278.782226562 -50.6767578125 c 0
 291.248046875 -54.1640625 302.60546875 -64.4716796875 302.60546875 -72.298828125 c 0
 302.60546875 -75.376953125 298.399414062 -82.271484375 293.141601562 -87.8115234375 c 0
 281.205078125 -100.390625 271.580078125 -100.536132812 257.17578125 -88.3583984375 c 0
 246.508789062 -79.33984375 246.41796875 -79.0859375 249.973632812 -68.2822265625 c 0
 251.979492188 -62.1884765625 255.452148438 -55.1318359375 257.8125 -52.3544921875 c 0
813.26953125 57.2021484375 m 0
 816.64453125 58.8505859375 822.827148438 59.4384765625 827.536132812 58.5595703125 c 0
 838.0625 56.5947265625 840.000976562 55.37109375 840.000976562 50.6923828125 c 0
 840.000976562 48.6669921875 841.940429688 45.494140625 844.43359375 43.44140625 c 0
 849.782226562 39.0361328125 847.459960938 28.2548828125 839.251953125 19.390625 c 0
 834.455078125 14.2099609375 830.998046875 13.1748046875 820.749023438 13.8505859375 c 0
 809.391601562 14.599609375 807.59765625 15.6953125 802.60546875 24.9306640625 c 0
 797.21484375 34.9033203125 797.203125 35.4384765625 802.189453125 44.7373046875 c 0
 805.01171875 50 809.990234375 55.6005859375 813.26953125 57.2021484375 c 0
141.524414062 56.9248046875 m 0
 146.807617188 64.5263671875 148.034179688 64.9677734375 159.115234375 63.23828125 c 0
 177.674804688 60.3427734375 186.26171875 53.3076171875 186.26171875 40.9970703125 c 0
 186.26171875 34.9033203125 184.045898438 27.73046875 180.998046875 23.9609375 c 0
 176.473632812 18.365234375 173.51953125 17.509765625 159.946289062 17.8671875 c 0
 151.358398438 18.0927734375 142.892578125 19.5458984375 141.38671875 21.052734375 c 0
 139.84765625 22.591796875 138.000976562 29.36328125 137.231445312 36.2880859375 c 0
 136.154296875 45.9833984375 137.108398438 50.5693359375 141.524414062 56.9248046875 c 0
875.3203125 197.091796875 m 0
 881.13671875 201.202148438 886.560546875 204.432617188 887.646484375 204.432617188 c 0
 893.186523438 204.432617188 908.854492188 192.350585938 910.278320312 186.98046875 c 0
 915.463867188 167.416015625 908.69921875 157.443359375 888.754882812 155.250976562 c 0
 872.5234375 153.465820312 864.931640625 160.665039062 864.931640625 177.838867188 c 0
 864.931640625 188.365234375 866.139648438 190.604492188 875.3203125 197.091796875 c 0
88.037109375 209.41796875 m 0
 97.6689453125 223.170898438 133.629882812 212.465820312 133.629882812 195.844726562 c 0
 133.629882812 188.088867188 127.080078125 174.723632812 121.165039062 170.409179688 c 0
 116.127929688 166.735351562 100.112304688 168.205078125 91.8017578125 173.103515625 c 0
 84.81640625 177.221679688 83.7685546875 179.500976562 83.7685546875 190.58203125 c 0
 83.7685546875 197.506835938 85.716796875 206.106445312 88.037109375 209.41796875 c 0
891.248046875 348.224609375 m 0
 905.375 351.435546875 903.990234375 351.577148438 913.408203125 345.95703125 c 0
 920.776367188 341.559570312 921.71875 339.473632812 921.71875 327.5625 c 0
 921.71875 315.374023438 920.844726562 313.536132812 912.30078125 307.755859375 c 0
 907.037109375 304.196289062 898.788085938 301.384765625 893.602539062 301.384765625 c 0
 886.123046875 301.384765625 883.229492188 303.159179688 878.690429688 310.526367188 c 0
 872.375 320.775390625 871.463867188 334.1640625 876.616210938 340.997070312 c 0
 878.569335938 343.586914062 885.153320312 346.83984375 891.248046875 348.224609375 c 0
87.646484375 363.989257812 m 0
 97.896484375 374.23828125 108.318359375 376.30859375 114.137695312 369.251953125 c 0
 115.940429688 367.065429688 120.056640625 365.096679688 122.827148438 365.096679688 c 0
 134.291015625 365.096679688 125.3203125 330.991210938 112.577148438 326.134765625 c 0
 101.219726562 321.805664062 94.0966796875 323.068359375 85.984375 330.849609375 c 0
 75.1904296875 341.204101562 75.7353515625 352.077148438 87.646484375 363.989257812 c 0
861.884765625 477.838867188 m 0
 867.1484375 481.399414062 873.258789062 484.2109375 875.735351562 484.2109375 c 0
 884.342773438 484.2109375 892.099609375 475.900390625 896.936523438 461.49609375 c 2
 901.774414062 447.091796875 l 1
 894.017578125 440.443359375 l 2
 887.681640625 435.012695312 884.4609375 434.150390625 876.427734375 435.734375 c 0
 870.887695312 436.826171875 863.147460938 439.426757812 858.69921875 441.689453125 c 0
 851.568359375 445.317382812 850.884765625 446.953125 851.635742188 458.586914062 c 0
 852.350585938 469.66796875 853.783203125 472.358398438 861.884765625 477.838867188 c 0
131.4140625 522.991210938 m 0
 149.696289062 527.451171875 155.228515625 526.423828125 159.765625 517.728515625 c 0
 162.150390625 513.158203125 164.100585938 504.432617188 164.100585938 498.337890625 c 0
 164.100585938 488.642578125 163.02734375 486.698242188 155.513671875 482.783203125 c 0
 143.325195312 476.43359375 126.057617188 476.592773438 120.979492188 483.102539062 c 0
 112.549804688 493.90625 111.935546875 496.64453125 115.572265625 507.202148438 c 0
 120.056640625 520.221679688 120.056640625 520.221679688 131.4140625 522.991210938 c 0
803.990234375 599.985351562 m 0
 819.225585938 604.315429688 821.71875 603.859375 833.907226562 594.515625 c 0
 845.264648438 585.807617188 845.436523438 585.430664062 841.145507812 578.669921875 c 0
 825.145507812 553.462890625 808.6171875 548.787109375 795.125976562 565.651367188 c 0
 786.926757812 575.900390625 784.967773438 589.486328125 790.970703125 594.470703125 c 0
 792.775390625 595.96875 798.7265625 598.489257812 803.990234375 599.985351562 c 0
204.525390625 641.828125 m 0
 208.485351562 646.537109375 214.499023438 650.392578125 217.840820312 650.364257812 c 0
 228.643554688 650.272460938 246.947265625 640.10546875 248.666992188 633.241210938 c 0
 254.704101562 609.141601562 219.34765625 590.981445312 203.904296875 610.249023438 c 0
 195.466796875 620.775390625 195.673828125 631.301757812 204.525390625 641.828125 c 0
712.0234375 685.002929688 m 0
 721.99609375 690.451171875 733.528320312 690.266601562 743.325195312 684.50390625 c 0
 750.037109375 680.555664062 751.358398438 677.977539062 751.358398438 668.836914062 c 0
 751.358398438 662.465820312 748.87109375 653.90234375 745.403320312 648.337890625 c 0
 739.737304688 639.247070312 738.893554688 638.864257812 728.08984375 640.494140625 c 0
 715.34765625 642.415039062 703.349609375 650.017578125 701.940429688 657.063476562 c 0
 699.779296875 667.8671875 704.475585938 680.879882812 712.0234375 685.002929688 c 0
324.893554688 724.099609375 m 0
 332.564453125 733.333007812 366.317382812 725.208007812 366.317382812 714.126953125 c 0
 366.317382812 711.529296875 367 705.817382812 367.840820312 701.384765625 c 0
 369.146484375 694.499023438 367.979492188 692.474609375 359.668945312 687.21484375 c 0
 345.541015625 678.271484375 335.116210938 679.059570312 326.125976562 689.750976562 c 0
 319.9296875 697.118164062 318.905273438 700.415039062 320.056640625 709.279296875 c 0
 320.8125 715.096679688 323.010742188 721.833007812 324.893554688 724.099609375 c 0
603.159179688 743.490234375 m 0
 610.958007812 751.2890625 617.840820312 751.427734375 638.338867188 744.200195312 c 0
 650.250976562 740.000976562 651.977539062 733.860351562 643.602539062 725.484375 c 0
 640.731445312 722.614257812 637.46484375 717.451171875 636.415039062 714.126953125 c 0
 632.119140625 700.5234375 610.530273438 701.384765625 601.71875 715.512695312 c 0
 594.2890625 727.423828125 594.6796875 735.010742188 603.159179688 743.490234375 c 0
475.874023438 769.529296875 m 0
 481.967773438 773.848632812 487.18359375 777.408203125 487.646484375 777.5625 c 0
 488.106445312 777.715820312 493.186523438 774.046875 499.00390625 769.36328125 c 0
 519.110351562 753.171875 515.34765625 730.717773438 491.801757812 726.38671875 c 0
 484.177734375 724.983398438 480.16796875 726.130859375 470.749023438 732.41015625 c 0
 464.377929688 736.657226562 458.801757812 740.354492188 458.421875 740.58203125 c 0
 458.034179688 740.814453125 459.314453125 745.567382812 461.331054688 751.384765625 c 0
 463.610351562 757.959960938 468.948242188 764.620117188 475.874023438 769.529296875 c 0
EndSplineSet
EndChar

StartChar: P
Encoding: 80 80 15
Width: 1000
Flags: H
LayerCount: 2
Back
Fore
SplineSet
206.399414062 -132.142578125 m 0
 214.40234375 -126.69140625 218.970703125 -125.643554688 230.685546875 -126.571289062 c 0
 244.970703125 -127.703125 245.130859375 -127.8203125 246.828125 -138.428710938 c 0
 247.78515625 -144.408203125 247.40625 -154.571289062 245.970703125 -161.428710938 c 0
 243.42578125 -173.587890625 243.256835938 -173.735351562 229.54296875 -175.713867188 c 0
 219.54296875 -177.157226562 213.37890625 -176.504882812 207.399414062 -173.369140625 c 0
 194.828125 -166.77734375 192.671875 -162.857421875 194.69921875 -150.286132812 c 0
 196.08203125 -141.713867188 199.006835938 -137.178710938 206.399414062 -132.142578125 c 0
210.256835938 24.3955078125 m 0
 225.114257812 30.9365234375 231.510742188 29.6572265625 242.240234375 18 c 0
 249.8671875 9.7138671875 251.620117188 5.8837890625 250.34765625 0.2861328125 c 0
 247.555664062 -12 241.358398438 -19.3203125 230.828125 -22.7724609375 c 0
 216.256835938 -27.55078125 208.954101562 -25.5 201.619140625 -14.5712890625 c 0
 190.6875 1.7138671875 194.142578125 17.30078125 210.256835938 24.3955078125 c 0
205.388671875 164.286132812 m 0
 216.193359375 180.751953125 252.256835938 165.142578125 252.256835938 144 c 0
 252.256835938 136.35546875 250.256835938 133.208984375 241.685546875 127.368164062 c 0
 225.970703125 116.66015625 215.694335938 117.703125 204.495117188 131.142578125 c 0
 194.395507812 143.262695312 194.515625 147.713867188 205.388671875 164.286132812 c 0
317.4765625 297.428710938 m 0
 322.811523438 303.677734375 335.114257812 304.604492188 348.828125 299.788085938 c 0
 358.25 296.48046875 362.4453125 286 360.295898438 271.142578125 c 0
 358.7890625 260.721679688 342.828125 251.34765625 329.970703125 253.33203125 c 0
 313.970703125 255.80078125 310.453125 258.583984375 308.54296875 270.286132812 c 0
 306.81640625 280.857421875 309.004882812 287.50390625 317.4765625 297.428710938 c 0
463.970703125 301.95703125 m 0
 483.685546875 308.827148438 494.471679688 304.104492188 500.422851562 286 c 0
 504.23828125 274.390625 501.399414062 268.365234375 488.256835938 260.17578125 c 0
 474.828125 251.80859375 463.6484375 252.501953125 454.231445312 262.286132812 c 0
 446.419921875 270.40234375 446.338867188 270.857421875 450.256835938 284.571289062 c 0
 453.603515625 296.286132812 455.842773438 299.124023438 463.970703125 301.95703125 c 0
588.970703125 312 m 0
 594.71484375 317.852539062 598.54296875 319.404296875 604.828125 318.428710938 c 0
 609.399414062 317.71875 615.931640625 317.142578125 619.399414062 317.142578125 c 0
 623.95703125 317.142578125 627.124023438 314 630.91796875 305.713867188 c 0
 636.54296875 293.428710938 636.54296875 293.428710938 620.990234375 276.286132812 c 0
 612.319335938 266.727539062 609.399414062 266.673828125 590.54296875 275.725585938 c 2
 575.685546875 282.857421875 l 1
 578.54296875 293.571289062 l 2
 580.142578125 299.571289062 584.731445312 307.6796875 588.970703125 312 c 0
215.114257812 323.422851562 m 0
 235.399414062 326.278320312 251.856445312 315.59375 252.069335938 299.428710938 c 0
 252.219726562 288 249.627929688 283.5 239.114257812 276.928710938 c 0
 230.787109375 271.724609375 227.970703125 271.330078125 219.399414062 274.166015625 c 0
 193.399414062 282.768554688 190.16796875 319.91015625 215.114257812 323.422851562 c 0
706.54296875 357.142578125 m 0
 713.555664062 364.67578125 715.114257812 365.1875 723.685546875 362.7734375 c 0
 736.828125 359.073242188 744.221679688 350.971679688 745.250976562 339.142578125 c 0
 746.224609375 327.942382812 741.970703125 322.553710938 727.970703125 317.248046875 c 0
 720.704101562 314.494140625 717.399414062 314.934570312 706.256835938 320.142578125 c 2
 693.114257812 326.286132812 l 1
 695.970703125 337.571289062 l 2
 697.5625 343.857421875 702.24609375 352.528320312 706.54296875 357.142578125 c 0
763.399414062 462.474609375 m 0
 785.399414062 468.548828125 802.009765625 460.504882812 805.086914062 442.286132812 c 0
 806.920898438 431.428710938 806.338867188 429.66015625 798.970703125 423.713867188 c 0
 794.399414062 420.025390625 788.322265625 417.017578125 785.114257812 416.857421875 c 0
 781.970703125 416.700195312 777.278320312 416.185546875 774.685546875 415.713867188 c 0
 772.141601562 415.251953125 765.828125 417.356445312 760.970703125 420.286132812 c 0
 752.349609375 425.486328125 752.000976562 426.428710938 752.685546875 442.713867188 c 0
 753.393554688 459.571289062 753.483398438 459.737304688 763.399414062 462.474609375 c 0
204.256835938 475.662109375 m 0
 216.256835938 480.84375 224.256835938 480.924804688 236.256835938 475.983398438 c 0
 245.96484375 471.986328125 249.399414062 464 249.399414062 445.428710938 c 0
 249.399414062 436.138671875 240.828125 430.395507812 222.828125 427.625976562 c 0
 214.256835938 426.307617188 210.634765625 427.377929688 203.685546875 433.286132812 c 0
 196.13671875 439.702148438 195.114257812 442.428710938 195.114257812 456.142578125 c 0
 195.114257812 471 195.533203125 471.895507812 204.256835938 475.662109375 c 0
758.470703125 575.713867188 m 0
 763.69921875 582.357421875 765.970703125 583.165039062 774.828125 581.529296875 c 0
 803.685546875 576.202148438 812.78515625 552.172851562 791.399414062 537.768554688 c 0
 780.256835938 530.263671875 763.42578125 529.40234375 756.828125 536 c 0
 747.0078125 545.8203125 747.677734375 562 758.470703125 575.713867188 c 0
202.256835938 614.286132812 m 0
 206.284179688 621.836914062 208.256835938 622.845703125 218.828125 622.763671875 c 0
 233.399414062 622.649414062 245.13671875 613.966796875 247.668945312 601.428710938 c 0
 249.134765625 594.16796875 247.629882812 591 237.828125 580.713867188 c 0
 226.392578125 568.713867188 226.149414062 568.618164062 217.114257812 572.565429688 c 0
 200.828125 579.680664062 196.92578125 584.189453125 197.322265625 595.428710938 c 0
 197.524414062 601.142578125 199.716796875 609.5234375 202.256835938 614.286132812 c 0
716.54296875 681.318359375 m 0
 732.828125 687.26953125 735.915039062 686.84375 744.768554688 677.428710938 c 0
 752.047851562 669.686523438 752.6484375 667.571289062 750.970703125 655.571289062 c 0
 749.333984375 643.857421875 747.96484375 641.806640625 739.399414062 638.23828125 c 0
 724.828125 632.166992188 719.049804688 633.26171875 706.828125 644.408203125 c 0
 696.256835938 654.049804688 695.890625 654.966796875 699.685546875 662.286132812 c 0
 701.907226562 666.571289062 703.685546875 671.586914062 703.685546875 673.571289062 c 0
 703.685546875 675.571289062 704 677.142578125 704.399414062 677.142578125 c 0
 704.79296875 677.142578125 710.256835938 679.022460938 716.54296875 681.318359375 c 0
593.114257812 729.142578125 m 0
 598.256835938 733.482421875 602.506835938 736.919921875 602.828125 737 c 0
 603.1484375 737.080078125 609.685546875 735.813476562 617.685546875 734.12109375 c 0
 632.43359375 731.000976562 633.270507812 730 636.663085938 711.428710938 c 0
 638.405273438 701.895507812 637.685546875 700.579101562 626.828125 693.436523438 c 0
 604.908203125 679.014648438 592.376953125 684.571289062 586.251953125 711.428710938 c 0
 584.166992188 720.571289062 584.754882812 722.08984375 593.114257812 729.142578125 c 0
202.399414062 742.428710938 m 0
 206.708007812 745.796875 214.256835938 748.534179688 219.114257812 748.48828125 c 0
 228.54296875 748.400390625 240.828125 740.203125 240.828125 734 c 0
 240.828125 731.973632812 243.555664062 727.428710938 246.828125 724 c 2
 252.828125 717.713867188 l 1
 240.256835938 710.365234375 l 2
 227.685546875 703.015625 208.848632812 700.444335938 201.685546875 705.099609375 c 0
 199.959960938 706.221679688 197.640625 713.713867188 196.54296875 721.713867188 c 0
 194.69921875 735.142578125 195.159179688 736.767578125 202.399414062 742.428710938 c 0
462.666992188 740 m 2
 467.399414062 751.713867188 l 1
 480.54296875 749.836914062 l 2
 501.399414062 746.857421875 507.704101562 742.872070312 508.762695312 732 c 0
 509.885742188 720.465820312 503.685546875 710.213867188 491.970703125 704.235351562 c 0
 483.970703125 700.151367188 482.463867188 700.142578125 476.399414062 704.142578125 c 0
 472.685546875 706.592773438 467.8984375 708.571289062 465.685546875 708.571289062 c 0
 458.970703125 708.571289062 457.2421875 726.571289062 462.666992188 740 c 2
334.256835938 743.633789062 m 0
 347.114257812 752.571289062 347.114257812 752.571289062 359.114257812 747.513671875 c 0
 371.399414062 742.334960938 378.63671875 732.271484375 374.994140625 725.428710938 c 0
 373.553710938 722.721679688 372.256835938 717.713867188 372.256835938 714.857421875 c 0
 372.256835938 709.200195312 361.685546875 702.857421875 352.256835938 702.857421875 c 0
 342.828125 702.857421875 320.5703125 715.123046875 322.185546875 719.428710938 c 0
 322.985351562 721.561523438 323.685546875 726.428710938 323.685546875 729.857421875 c 0
 323.685546875 734.201171875 327.114257812 738.668945312 334.256835938 743.633789062 c 0
EndSplineSet
EndChar

StartChar: Q
Encoding: 81 81 16
Width: 1000
Flags: H
LayerCount: 2
Back
Fore
SplineSet
797.956054688 -153.126953125 m 0
 806.564453125 -147.961914062 810.875976562 -147.576171875 820.954101562 -151.068359375 c 0
 828.713867188 -153.7578125 834.6484375 -162.532226562 834.6484375 -171.317382812 c 0
 834.6484375 -179.247070312 826.122070312 -187.170898438 815.786132812 -188.846679688 c 0
 807.258789062 -190.229492188 804.946289062 -189.467773438 798.21484375 -183.056640625 c 0
 787.87890625 -173.212890625 787.7578125 -159.245117188 797.956054688 -153.126953125 c 0
750.411132812 -77.7529296875 m 0
 763.84765625 -75.130859375 767.309570312 -76.1640625 773.87109375 -84.7548828125 c 0
 777.424804688 -89.4052734375 780.384765625 -95.630859375 780.384765625 -98.44921875 c 0
 780.384765625 -104.909179688 770.53515625 -117.95703125 767.20703125 -115.904296875 c 0
 765.938476562 -115.122070312 764.881835938 -115.762695312 764.881835938 -117.3125 c 0
 764.881835938 -121.055664062 756.87109375 -120.686523438 746.793945312 -116.479492188 c 0
 740.671875 -113.923828125 737.319335938 -110.077148438 734.907226562 -102.842773438 c 0
 731.720703125 -93.28125 731.892578125 -92.4072265625 738.266601562 -85.7880859375 c 0
 741.999023438 -81.912109375 747.396484375 -78.3408203125 750.411132812 -77.7529296875 c 0
413.9765625 -73.333984375 m 0
 418.627929688 -70.8251953125 424.853515625 -68.6201171875 427.671875 -68.4833984375 c 0
 433.205078125 -68.2158203125 443.600585938 -74.4189453125 448.87890625 -81.13671875 c 0
 453.734375 -87.3154296875 452.754882812 -100.516601562 446.88671875 -108.010742188 c 0
 442.7265625 -113.322265625 439.299804688 -114.728515625 430.514648438 -114.728515625 c 0
 417.227539062 -114.728515625 411.991210938 -109.819335938 406.809570312 -92.5068359375 c 0
 402.7109375 -78.8115234375 402.4296875 -79.5634765625 413.9765625 -73.333984375 c 0
552.736328125 -73.126953125 m 0
 560.885742188 -64.9775390625 566.431640625 -63.9814453125 576.767578125 -68.8134765625 c 0
 588.912109375 -74.490234375 593.705078125 -94.53125 584.778320312 -102.310546875 c 0
 575.627929688 -110.284179688 565.3984375 -111.674804688 555.0625 -106.350585938 c 0
 546.224609375 -101.797851562 545.243164062 -100.258789062 545.243164062 -90.9560546875 c 0
 545.243164062 -82.9453125 546.928710938 -78.9345703125 552.736328125 -73.126953125 c 0
695.888671875 -8.845703125 m 0
 703.3828125 -5.7900390625 703.899414062 -5.783203125 711.392578125 -8.625 c 0
 718.672851562 -11.38671875 726.122070312 -25.5810546875 726.122070312 -36.6923828125 c 0
 726.122070312 -45.3486328125 721.728515625 -47.544921875 704.416015625 -47.544921875 c 0
 693.822265625 -47.544921875 677.026367188 -39.1474609375 677.026367188 -33.8505859375 c 0
 677.026367188 -28.3955078125 689.946289062 -11.26953125 695.888671875 -8.845703125 c 0
273.486328125 -8.0107421875 m 0
 277.89453125 -2.82421875 279.610351562 -2.6865234375 293.046875 -6.4453125 c 0
 304.674804688 -9.6982421875 315.268554688 -19.3134765625 315.268554688 -26.615234375 c 0
 315.268554688 -29.486328125 311.345703125 -35.9169921875 306.44140625 -41.0849609375 c 0
 295.306640625 -52.818359375 286.328125 -52.955078125 272.891601562 -41.5947265625 c 0
 262.94140625 -33.1826171875 262.856445312 -32.9453125 266.173828125 -22.8681640625 c 0
 268.043945312 -17.18359375 271.284179688 -10.6005859375 273.486328125 -8.0107421875 c 0
636.974609375 62.5517578125 m 0
 651.961914062 69.0986328125 666.52734375 64.728515625 667.185546875 53.48828125 c 0
 668.380859375 33.0751953125 662.37890625 22.22265625 649.89453125 22.22265625 c 0
 641.108398438 22.22265625 629.686523438 29.5966796875 625.080078125 38.2431640625 c 0
 621.055664062 45.7958984375 627.155273438 58.26171875 636.974609375 62.5517578125 c 0
791.625976562 94.1865234375 m 0
 794.7734375 95.7236328125 800.540039062 96.2724609375 804.932617188 95.4521484375 c 0
 814.751953125 93.619140625 816.560546875 92.4775390625 816.560546875 88.11328125 c 0
 816.560546875 86.224609375 818.370117188 83.2646484375 820.6953125 81.349609375 c 0
 825.685546875 77.240234375 823.518554688 67.18359375 815.862304688 58.9150390625 c 0
 811.387695312 54.08203125 808.163085938 53.1162109375 798.602539062 53.7470703125 c 0
 788.0078125 54.4453125 786.333984375 55.4677734375 781.676757812 64.0830078125 c 0
 776.649414062 73.384765625 776.638671875 73.884765625 781.290039062 82.55859375 c 0
 783.921875 87.4677734375 788.56640625 92.69140625 791.625976562 94.1865234375 c 0
165.010742188 93.927734375 m 0
 169.938476562 101.018554688 171.083007812 101.4296875 181.418945312 99.81640625 c 0
 198.731445312 97.115234375 206.7421875 90.552734375 206.7421875 79.0693359375 c 0
 206.7421875 73.384765625 204.674804688 66.6943359375 201.83203125 63.1787109375 c 0
 197.611328125 57.9580078125 194.85546875 57.16015625 182.194335938 57.4931640625 c 0
 174.18359375 57.7041015625 166.287109375 59.0595703125 164.881835938 60.46484375 c 0
 163.446289062 61.900390625 161.723632812 68.216796875 161.005859375 74.6767578125 c 0
 160.000976562 83.720703125 160.890625 87.9990234375 165.010742188 93.927734375 c 0
583.227539062 131.735351562 m 2
 595.114257812 140.310546875 l 1
 604.674804688 133.624023438 l 2
 619.662109375 123.142578125 620.82421875 105.479492188 607 98.296875 c 0
 596.147460938 92.658203125 582.689453125 93.5859375 574.700195312 100.5234375 c 0
 564.639648438 109.260742188 567.723632812 120.549804688 583.227539062 131.735351562 c 2
849.506835938 224.676757812 m 0
 854.932617188 228.51171875 859.9921875 231.524414062 861.005859375 231.524414062 c 0
 866.173828125 231.524414062 880.788085938 220.254882812 882.116210938 215.245117188 c 0
 886.953125 196.995117188 880.643554688 187.693359375 862.0390625 185.647460938 c 0
 846.8984375 183.982421875 839.81640625 190.697265625 839.81640625 206.71875 c 0
 839.81640625 216.537109375 840.943359375 218.625976562 849.506835938 224.676757812 c 0
115.116210938 236.17578125 m 0
 124.1015625 249.004882812 157.646484375 239.018554688 157.646484375 223.514648438 c 0
 157.646484375 216.279296875 151.537109375 203.8125 146.018554688 199.787109375 c 0
 141.3203125 196.360351562 126.379882812 197.731445312 118.627929688 202.30078125 c 0
 112.112304688 206.142578125 111.134765625 208.268554688 111.134765625 218.604492188 c 0
 111.134765625 225.064453125 112.952148438 233.0859375 115.116210938 236.17578125 c 0
864.364257812 365.6328125 m 0
 870.049804688 366.912109375 874.81640625 368.075195312 874.958984375 368.216796875 c 0
 875.104492188 368.362304688 878.834960938 366.689453125 883.486328125 364.393554688 c 0
 892.005859375 360.1875 895.043945312 353.229492188 893.666015625 341.084960938 c 0
 892.603515625 331.723632812 878.834960938 321.963867188 866.690429688 321.963867188 c 0
 859.455078125 321.963867188 856.977539062 323.46875 852.650390625 330.491210938 c 0
 846.759765625 340.051757812 845.909179688 352.541015625 850.715820312 358.915039062 c 0
 852.538085938 361.331054688 858.6796875 364.354492188 864.364257812 365.6328125 c 0
114.751953125 380.361328125 m 0
 124.3125 389.922851562 134.03515625 391.854492188 139.462890625 385.271484375 c 0
 141.145507812 383.231445312 144.984375 381.395507812 147.568359375 381.395507812 c 0
 158.262695312 381.395507812 149.89453125 349.581054688 138.0078125 345.05078125 c 0
 127.4140625 341.012695312 120.76953125 342.190429688 113.202148438 349.44921875 c 0
 103.1328125 359.107421875 103.640625 369.250976562 114.751953125 380.361328125 c 0
836.974609375 486.563476562 m 0
 841.883789062 489.884765625 847.583984375 492.506835938 849.89453125 492.506835938 c 0
 857.923828125 492.506835938 865.159179688 484.754882812 869.670898438 471.317382812 c 2
 874.18359375 457.880859375 l 1
 866.948242188 451.6796875 l 2
 861.038085938 446.61328125 858.034179688 445.809570312 850.540039062 447.287109375 c 0
 845.372070312 448.305664062 838.151367188 450.731445312 834.002929688 452.842773438 c 0
 827.3515625 456.2265625 826.713867188 457.751953125 827.4140625 468.604492188 c 0
 828.080078125 478.940429688 829.416992188 481.451171875 836.974609375 486.563476562 c 0
155.579101562 528.674804688 m 0
 160.23046875 529.806640625 167.27734375 530.865234375 171.083007812 531.002929688 c 0
 186.328125 531.55859375 192.017578125 497.196289062 177.80078125 490.421875 c 0
 166.690429688 485.126953125 150.334960938 485.665039062 145.817382812 491.47265625 c 0
 137.979492188 501.55078125 137.409179688 504.10546875 140.801757812 513.953125 c 0
 144.984375 526.098632812 144.984375 526.098632812 155.579101562 528.674804688 c 0
782.96875 600.502929688 m 0
 797.180664062 604.541992188 799.506835938 604.1171875 810.875976562 595.400390625 c 0
 821.470703125 587.278320312 821.630859375 586.926757812 817.62890625 580.620117188 c 0
 802.703125 557.10546875 787.28515625 552.744140625 774.700195312 568.475585938 c 0
 767.051757812 578.036132812 765.224609375 590.709960938 770.82421875 595.358398438 c 0
 772.5078125 596.755859375 778.059570312 599.107421875 782.96875 600.502929688 c 0
223.666992188 639.53515625 m 0
 231.392578125 648.805664062 237.232421875 649.409179688 252.478515625 642.510742188 c 0
 271.349609375 633.971679688 270.049804688 615.2734375 249.89453125 605.350585938 c 0
 241.625976562 601.280273438 238.891601562 601.00390625 232.58203125 603.599609375 c 0
 216.819335938 610.083007812 212.759765625 626.446289062 223.666992188 639.53515625 c 0
697.180664062 679.80859375 m 0
 706.483398438 684.890625 717.241210938 684.719726562 726.379882812 679.34375 c 0
 732.575195312 675.69921875 733.874023438 673.255859375 733.874023438 665.245117188 c 0
 733.874023438 659.819335938 731.428710938 651.405273438 728.318359375 646.124023438 c 0
 723.033203125 637.15234375 722.24609375 636.770507812 712.16796875 638.290039062 c 0
 700.282226562 640.08203125 689.08984375 647.174804688 687.775390625 653.747070312 c 0
 685.759765625 663.82421875 690.140625 675.962890625 697.180664062 679.80859375 c 0
336.059570312 716.279296875 m 0
 343.215820312 724.892578125 374.700195312 717.3125 374.700195312 706.9765625 c 0
 374.700195312 704.552734375 375.337890625 699.224609375 376.122070312 695.090820312 c 0
 377.33984375 688.666992188 376.250976562 686.779296875 368.499023438 681.872070312 c 0
 355.3203125 673.529296875 345.595703125 674.264648438 337.208984375 684.237304688 c 0
 331.4296875 691.110351562 330.474609375 694.186523438 331.547851562 702.455078125 c 0
 332.252929688 707.880859375 334.303710938 714.165039062 336.059570312 716.279296875 c 0
595.630859375 734.3671875 m 0
 602.905273438 741.641601562 609.326171875 741.771484375 628.447265625 735.029296875 c 0
 639.55859375 731.112304688 641.168945312 725.383789062 633.356445312 717.571289062 c 0
 630.678710938 714.893554688 627.630859375 710.077148438 626.65234375 706.9765625 c 0
 622.64453125 694.286132812 602.505859375 695.090820312 594.287109375 708.268554688 c 0
 587.356445312 719.379882812 587.720703125 726.45703125 595.630859375 734.3671875 c 0
476.896484375 758.65625 m 0
 482.58203125 762.685546875 487.447265625 766.005859375 487.87890625 766.149414062 c 0
 488.307617188 766.29296875 493.046875 762.87109375 498.47265625 758.500976562 c 0
 517.228515625 743.3984375 513.71875 722.452148438 491.754882812 718.412109375 c 0
 484.642578125 717.103515625 480.90234375 718.173828125 472.116210938 724.03125 c 0
 466.173828125 727.993164062 460.971679688 731.44140625 460.618164062 731.653320312 c 0
 460.255859375 731.87109375 461.450195312 736.3046875 463.331054688 741.731445312 c 0
 465.45703125 747.864257812 470.436523438 754.077148438 476.896484375 758.65625 c 0
EndSplineSet
EndChar

StartChar: R
Encoding: 82 82 17
Width: 1000
Flags: H
LayerCount: 2
Back
Fore
SplineSet
776.706054688 -136.080078125 m 0
 790.303710938 -130.146484375 798.82421875 -131.1328125 809.284179688 -139.848632812 c 2
 818.916015625 -147.875 l 1
 814.3828125 -163.59765625 l 2
 811.8515625 -172.379882812 807.974609375 -180.887695312 805.6015625 -182.872070312 c 0
 799.389648438 -188.063476562 777.272460938 -184.5 767.357421875 -176.709960938 c 0
 760.315429688 -171.176757812 759.380859375 -168.838867188 760.811523438 -160.33984375 c 0
 763.243164062 -145.892578125 766.85546875 -140.37890625 776.706054688 -136.080078125 c 0
190.083007812 -141.642578125 m 0
 198.137695312 -132.518554688 200.21875 -131.595703125 209.850585938 -132.879882812 c 0
 225.431640625 -134.95703125 234.131835938 -141.57421875 236.276367188 -152.974609375 c 0
 238.56640625 -165.15625 236.181640625 -171.600585938 226.564453125 -179.213867188 c 0
 219.493164062 -184.8125 217.782226562 -185.01171875 203.901367188 -181.856445312 c 0
 179.822265625 -176.383789062 174.104492188 -159.744140625 190.083007812 -141.642578125 c 0
699.0859375 -32.20703125 m 0
 709.673828125 -22.8408203125 715.516601562 -22.421875 730.247070312 -29.9716796875 c 0
 746.677734375 -38.392578125 749.666992188 -53.4404296875 737.798828125 -67.98828125 c 0
 731.515625 -75.6904296875 730.247070312 -76.087890625 717.499023438 -74.33984375 c 0
 701.634765625 -72.1650390625 694.916015625 -65.87109375 691.967773438 -50.4248046875 c 0
 690.236328125 -41.359375 691.02734375 -39.3359375 699.0859375 -32.20703125 c 0
195.119140625 15.72265625 m 0
 200.501953125 18.5673828125 206.458984375 20.962890625 208.150390625 20.962890625 c 0
 234.212890625 20.962890625 246.41015625 -1.966796875 229.397460938 -18.98046875 c 0
 222.716796875 -25.6611328125 218.774414062 -27.1953125 208.291992188 -27.1953125 c 0
 197.244140625 -27.1953125 194.552734375 -25.9814453125 189.454101562 -18.697265625 c 0
 185.37890625 -12.8759765625 183.772460938 -6.9404296875 184.354492188 0.1416015625 c 0
 185.052734375 8.640625 186.970703125 11.4150390625 195.119140625 15.72265625 c 0
631.946289062 83.7939453125 m 0
 647.244140625 86.1025390625 650.072265625 85.6123046875 656.592773438 79.521484375 c 0
 666.560546875 70.2099609375 668.85546875 61.7568359375 664.338867188 50.9912109375 c 0
 656.256835938 31.728515625 638.291992188 26.8486328125 622.881835938 39.73046875 c 0
 614.701171875 46.5693359375 613.993164062 48.4423828125 615.625 58.923828125 c 0
 617.919921875 73.654296875 623.762695312 82.55859375 631.946289062 83.7939453125 c 0
212.1171875 169.068359375 m 0
 224.690429688 170.483398438 228.888671875 167.705078125 233.87109375 154.673828125 c 2
 238.74609375 141.926757812 l 1
 227.555664062 132.436523438 l 2
 221.323242188 127.150390625 214.358398438 122.28125 211.833007812 121.444335938 c 0
 205.034179688 119.192382812 180.213867188 133.959960938 182.168945312 139.09375 c 0
 183.065429688 141.447265625 183.788085938 147.450195312 183.788085938 152.549804688 c 0
 183.788085938 160.651367188 185.0625 162.147460938 194.411132812 165.014648438 c 0
 200.360351562 166.838867188 208.150390625 168.622070312 212.1171875 169.068359375 c 0
554.04296875 195.7578125 m 0
 567.680664062 201.352539062 572.173828125 201.055664062 586.0546875 193.643554688 c 0
 592.899414062 189.989257812 593.504882812 173.37109375 587.331054688 158.640625 c 0
 583.294921875 149.008789062 582.203125 148.296875 573.873046875 149.858398438 c 0
 568.774414062 150.814453125 561.5859375 150.380859375 557.442382812 148.8671875 c 0
 550.35546875 146.27734375 549.899414062 146.7421875 545.373046875 161.189453125 c 0
 537.739257812 185.552734375 538.72265625 189.47265625 554.04296875 195.7578125 c 0
441.436523438 264.447265625 m 2
 447.134765625 275.704101562 447.52734375 275.920898438 462.258789062 275.920898438 c 0
 483.504882812 275.920898438 489.737304688 270.780273438 489.737304688 253.2578125 c 0
 489.737304688 233.549804688 480.388671875 226.115234375 458.291992188 228.248046875 c 0
 450.265625 229.0234375 447.575195312 231.161132812 442.145507812 241.076171875 c 2
 435.629882812 252.974609375 l 1
 441.436523438 264.447265625 l 2
319.765625 273.942382812 m 0
 328.263671875 277.21875 346.537109375 273.006835938 351.743164062 266.572265625 c 0
 357.954101562 258.895507812 356.657226562 241.359375 349.270507812 233.14453125 c 0
 341.8828125 224.928710938 325.147460938 226.00390625 315.799804688 235.294921875 c 0
 303.948242188 247.072265625 306.16796875 268.701171875 319.765625 273.942382812 c 0
590.7734375 298.016601562 m 0
 597.3515625 308.336914062 614.099609375 306.7890625 626.84765625 294.684570312 c 0
 635.913085938 286.076171875 636.533203125 284.443359375 634.086914062 275.637695312 c 0
 629.989257812 260.885742188 621.46484375 255.295898438 605.318359375 256.7734375 c 0
 586.337890625 258.508789062 582.362304688 262.69140625 584.694335938 278.470703125 c 0
 585.741210938 285.552734375 588.516601562 294.475585938 590.7734375 298.016601562 c 0
206.734375 321.771484375 m 0
 223.448242188 324.322265625 239.83984375 310.40234375 236.373046875 296.600585938 c 0
 232.040039062 279.345703125 213.25 271.262695312 194.26953125 278.489257812 c 0
 186.337890625 281.508789062 179.685546875 299.567382812 183.736328125 307.08203125 c 0
 187.1328125 313.3828125 198.235351562 320.474609375 206.734375 321.771484375 c 0
716.649414062 396.681640625 m 0
 729.963867188 401.495117188 730.842773438 401.40625 738.178710938 394.509765625 c 0
 743.736328125 389.286132812 744.694335938 385.552734375 744.694335938 369.122070312 c 2
 744.694335938 349.858398438 l 1
 729.397460938 348.016601562 l 2
 720.048828125 346.891601562 710.133789062 347.498046875 703.901367188 349.575195312 c 0
 694.166992188 352.8203125 693.703125 353.541015625 693.703125 365.439453125 c 0
 693.703125 379.88671875 702.202148438 391.458007812 716.649414062 396.681640625 c 0
190.563476562 463.739257812 m 0
 196.758789062 472.327148438 198.518554688 472.423828125 224.014648438 465.564453125 c 0
 240.526367188 461.122070312 242.254882812 445.04296875 228.048828125 428.044921875 c 0
 222.366210938 421.24609375 219.057617188 419.854492188 208.859375 419.971679688 c 0
 198.661132812 420.088867188 195.16796875 421.651367188 188.603515625 429.037109375 c 0
 182.056640625 436.40234375 181.018554688 439.494140625 182.655273438 446.7421875 c 0
 183.7421875 451.557617188 187.314453125 459.234375 190.563476562 463.739257812 c 0
743.645507812 516.147460938 m 0
 750.595703125 528.044921875 751.390625 528.525390625 761.125 526.71875 c 0
 780.671875 523.090820312 793.1171875 507.495117188 787.420898438 493.767578125 c 0
 782.456054688 481.803710938 777.272460938 477.364257812 765.090820312 474.64453125 c 0
 752.649414062 471.866210938 751.07421875 472.8046875 741.0625 488.952148438 c 0
 734.693359375 499.224609375 734.875 501.1328125 743.645507812 516.147460938 c 0
194.8359375 615.495117188 m 0
 215.232421875 622.931640625 233.140625 614.380859375 236.1875 595.750976562 c 0
 237.854492188 585.552734375 237.348632812 582.932617188 233.080078125 579.658203125 c 0
 225.998046875 574.224609375 210.700195312 567.705078125 205.034179688 567.705078125 c 0
 199.225585938 567.705078125 190.518554688 577.336914062 184.803710938 590.084960938 c 0
 179.59765625 601.700195312 183.397460938 611.325195312 194.8359375 615.495117188 c 0
727.697265625 656.798828125 m 0
 734.209960938 660.0546875 735.771484375 659.3828125 747.102539062 648.442382812 c 0
 758.43359375 637.500976562 759.271484375 635.74609375 757.506835938 626.62890625 c 0
 754.764648438 612.46484375 742.075195312 603.36328125 728.546875 605.859375 c 0
 713.15234375 608.700195312 705.034179688 618.4140625 705.034179688 633.994140625 c 0
 705.034179688 645.609375 705.881835938 647.364257812 712.825195312 650.141601562 c 0
 717.07421875 651.841796875 723.834960938 654.8671875 727.697265625 656.798828125 c 0
598.235351562 733.31640625 m 0
 610.498046875 741.862304688 635.89453125 736.260742188 642.6796875 723.512695312 c 0
 644.288085938 720.491210938 645.544921875 714.588867188 645.544921875 710.056640625 c 0
 645.544921875 703.638671875 643.278320312 700.69921875 634.49609375 695.725585938 c 0
 618.916015625 686.901367188 610.099609375 687.634765625 600.162109375 698.583984375 c 0
 589.619140625 710.198242188 588.706054688 726.673828125 598.235351562 733.31640625 c 0
188.36328125 741.359375 m 0
 192.7578125 750.509765625 193.13671875 750.66796875 206.16796875 748.8359375 c 0
 222.032226562 746.60546875 229.114257812 743.860351562 229.114257812 739.943359375 c 0
 229.114257812 738.190429688 230.848632812 734.84375 233.080078125 732.294921875 c 0
 235.529296875 729.495117188 236.4609375 724.079101562 235.515625 718.129882812 c 0
 233.633789062 706.284179688 219.765625 699.567382812 203.051757812 702.405273438 c 0
 184.887695312 705.489257812 178.83984375 721.529296875 188.36328125 741.359375 c 0
337.612304688 752.264648438 m 0
 351.209960938 756.103515625 358.182617188 754.448242188 368.490234375 744.93359375 c 0
 379.255859375 734.997070312 381.8046875 728.30078125 376.139648438 724.846679688 c 0
 374.408203125 723.791015625 373.609375 720.6796875 374.341796875 717.846679688 c 0
 376.106445312 711.026367188 365.658203125 706.515625 348.09375 706.515625 c 0
 333.080078125 706.515625 328.42578125 709.548828125 322.881835938 722.946289062 c 0
 319.982421875 729.953125 320.3359375 732.578125 325.2890625 740.79296875 c 0
 328.53515625 746.17578125 333.971679688 751.236328125 337.612304688 752.264648438 c 0
477.838867188 755.21875 m 0
 485.719726562 758.25 490.303710938 757.767578125 503.051757812 752.564453125 c 0
 512.966796875 748.516601562 515.544921875 745.905273438 516.909179688 738.52734375 c 0
 519.370117188 725.212890625 510.78515625 711.6171875 498.235351562 708.958007812 c 0
 483.221679688 705.776367188 476.448242188 708.756835938 469.024414062 721.813476562 c 0
 462.258789062 733.7109375 462.258789062 733.7109375 467.499023438 743.484375 c 0
 470.385742188 748.8671875 475.03125 754.138671875 477.838867188 755.21875 c 0
EndSplineSet
EndChar

StartChar: S
Encoding: 83 83 18
Width: 1000
Flags: H
LayerCount: 2
Back
Fore
SplineSet
484.69921875 -131.78515625 m 2
 499.454101562 -126.8671875 502.83984375 -127.59765625 514.208007812 -138.153320312 c 0
 523.4140625 -146.703125 523.692382812 -156.284179688 515.02734375 -166.393554688 c 0
 509.290039062 -173.087890625 506.557617188 -174.026367188 493.169921875 -173.907226562 c 0
 484.69921875 -173.831054688 476.344726562 -172.24609375 474.454101562 -170.35546875 c 0
 472.563476562 -168.46484375 471.038085938 -160.109375 471.038085938 -151.639648438 c 2
 471.038085938 -136.338867188 l 1
 484.69921875 -131.78515625 l 2
340.788085938 -111.749023438 m 0
 343.649414062 -108.443359375 348.907226562 -107.103515625 359.016601562 -107.103515625 c 0
 373.497070312 -107.103515625 377.888671875 -109.780273438 384.564453125 -122.677734375 c 0
 391.139648438 -135.37890625 375.13671875 -153.551757812 357.376953125 -153.551757812 c 0
 349.09375 -153.551757812 346.458984375 -151.912109375 340.686523438 -143.168945312 c 0
 333.110351562 -131.694335938 333.146484375 -120.576171875 340.788085938 -111.749023438 c 0
618.579101562 -100 m 0
 623.58984375 -94.990234375 628.005859375 -93.4423828125 637.294921875 -93.4423828125 c 0
 647.404296875 -93.4423828125 650.655273438 -94.8701171875 656.58203125 -101.912109375 c 0
 666.239257812 -113.387695312 666.229492188 -126.961914062 656.557617188 -135.846679688 c 0
 652.458984375 -139.611328125 646.508789062 -143.3046875 643.169921875 -144.157226562 c 0
 633.599609375 -146.6015625 618.1875 -138.797851562 613.15625 -128.961914062 c 0
 607.70703125 -118.305664062 609.418945312 -109.16015625 618.579101562 -100 c 0
222.951171875 -58.4697265625 m 2
 230.919921875 -48.9072265625 234.107421875 -46.994140625 242.076171875 -46.994140625 c 0
 261.749023438 -46.994140625 271.984375 -57.6650390625 269.859375 -75.9560546875 c 0
 268.176757812 -90.4375 243.3359375 -100.922851562 228.961914062 -93.2197265625 c 0
 226.0546875 -91.6611328125 221.486328125 -85.9287109375 218.579101562 -80.19140625 c 2
 213.387695312 -69.9453125 l 1
 222.951171875 -58.4697265625 l 2
729.235351562 -3.3388671875 m 0
 734.69921875 -0.1396484375 736.90625 -0.1259765625 738.797851562 -3.2783203125 c 0
 739.661132812 -4.716796875 742.896484375 -6.0107421875 745.62890625 -6.0107421875 c 0
 748.522460938 -6.0107421875 753.419921875 -9.69921875 756.694335938 -14.3447265625 c 0
 761.678710938 -21.4150390625 762.278320312 -24.7265625 760.65625 -36.2021484375 c 0
 758.87890625 -48.7705078125 758.047851562 -49.916015625 748.907226562 -52.40234375 c 0
 733.606445312 -56.5634765625 720.254882812 -51.0126953125 712.8984375 -37.431640625 c 0
 707.126953125 -26.7763671875 707.05078125 -25.7958984375 711.338867188 -17.349609375 c 0
 713.8359375 -12.431640625 717.918945312 -7.8603515625 720.4921875 -7.103515625 c 0
 722.951171875 -6.380859375 727.065429688 -4.6083984375 729.235351562 -3.3388671875 c 0
751.639648438 135.6953125 m 0
 764.208007812 139.344726562 764.208007812 139.344726562 771.858398438 134.306640625 c 0
 779.860351562 129.036132812 786.612304688 117.212890625 786.612304688 108.469726562 c 0
 786.612304688 98.685546875 776.229492188 89.6171875 765.02734375 89.6171875 c 0
 752.185546875 89.6171875 738.013671875 98.3369140625 735.717773438 107.650390625 c 0
 733.022460938 118.579101562 740.983398438 132.6015625 751.639648438 135.6953125 c 0
685.24609375 253.987304688 m 0
 689.071289062 254.9296875 693.106445312 255.868164062 693.989257812 256.020507812 c 0
 697.849609375 256.685546875 712.711914062 240.1640625 714.397460938 233.333007812 c 0
 717.16015625 222.130859375 713.981445312 214.571289062 703.551757812 207.540039062 c 0
 694.99609375 201.771484375 692.896484375 201.438476562 683.606445312 204.372070312 c 0
 677.869140625 206.18359375 670.413085938 210.215820312 666.940429688 213.383789062 c 0
 653.689453125 225.473632812 664.208007812 248.803710938 685.24609375 253.987304688 c 0
551.639648438 307.322265625 m 0
 556.831054688 309.131835938 562.888671875 310.09375 564.890625 309.42578125 c 0
 566.803710938 308.7890625 569.697265625 308.196289062 570.901367188 308.196289062 c 0
 572.192382812 308.196289062 576.264648438 304.91796875 580.064453125 300.819335938 c 0
 591.264648438 288.741210938 589.344726562 271.4375 575.956054688 263.796875 c 0
 558.793945312 254.001953125 543.462890625 259.290039062 538.325195312 276.776367188 c 0
 533.749023438 292.349609375 538.239257812 302.650390625 551.639648438 307.322265625 c 0
422.130859375 338.115234375 m 0
 426.502929688 339.396484375 430.421875 340.541015625 430.874023438 340.668945312 c 0
 433.91015625 341.528320312 453.756835938 327.322265625 456.391601562 322.404296875 c 0
 461.510742188 312.849609375 452.458984375 295.537109375 441.256835938 293.456054688 c 0
 431.420898438 291.62890625 415.069335938 295.719726562 411.823242188 300.819335938 c 0
 408.918945312 305.384765625 409.012695312 327.595703125 411.95703125 332.240234375 c 0
 413.198242188 334.200195312 417.759765625 336.833007812 422.130859375 338.115234375 c 0
283.985351562 383.333007812 m 0
 287.35546875 395.35546875 287.693359375 395.627929688 299.180664062 395.627929688 c 0
 314.75390625 395.627929688 330.328125 386.612304688 330.328125 377.595703125 c 0
 330.328125 366.666992188 323.442382812 353.489257812 315.57421875 349.358398438 c 0
 309.380859375 346.106445312 307.103515625 346.239257812 297.814453125 350.395507812 c 0
 283.446289062 356.823242188 279.313476562 366.666992188 283.985351562 383.333007812 c 0
229.78125 513.4375 m 0
 239.19140625 521.19921875 244.262695312 520.961914062 261.475585938 511.953125 c 0
 269.125976562 507.94921875 270.21875 506.010742188 270.21875 496.448242188 c 0
 270.21875 477.595703125 254.046875 467.797851562 236.612304688 476.0859375 c 0
 219.399414062 484.26953125 216.125 502.173828125 229.78125 513.4375 c 0
735.24609375 583.961914062 m 0
 750 591.092773438 761.077148438 589.301757812 771.245117188 578.141601562 c 0
 777.46875 571.311523438 778.65234375 568.0859375 777.360351562 561.475585938 c 0
 775.384765625 551.366210938 771.057617188 545.836914062 765.02734375 545.715820312 c 0
 762.598632812 545.666992188 756.284179688 544.110351562 750.819335938 542.212890625 c 0
 741.530273438 538.987304688 740.505859375 539.192382812 732.376953125 545.901367188 c 0
 724.973632812 552.012695312 723.770507812 554.78125 723.770507812 565.709960938 c 0
 723.770507812 578.005859375 724.140625 578.59375 735.24609375 583.961914062 c 0
254.91796875 645.901367188 m 0
 265.30078125 656.284179688 268.102539062 657.091796875 272.930664062 651.092773438 c 0
 274.698242188 648.897460938 279.78125 646.994140625 283.879882812 646.994140625 c 0
 293.541015625 646.994140625 294.788085938 645.08203125 297.236328125 626.502929688 c 2
 299.180664062 611.749023438 l 1
 287.431640625 608.788085938 l 2
 269.125976562 604.17578125 262.26953125 605.216796875 253.551757812 613.934570312 c 0
 242.766601562 624.719726562 243.169921875 634.153320312 254.91796875 645.901367188 c 0
660.79296875 650.819335938 m 0
 666.109375 659.326171875 668.305664062 660.655273438 677.049804688 660.655273438 c 0
 690.4375 660.655273438 707.376953125 649.209960938 707.376953125 640.1640625 c 0
 707.376953125 631.694335938 702.595703125 619.09375 698.360351562 616.403320312 c 0
 693.551757812 613.34765625 672.404296875 613.670898438 666.393554688 616.890625 c 0
 663.598632812 618.388671875 659.689453125 624.58984375 657.923828125 630.328125 c 0
 654.981445312 639.890625 655.275390625 641.9921875 660.79296875 650.819335938 c 0
357.650390625 710.799804688 m 0
 369.671875 720.922851562 382.619140625 720.649414062 390.239257812 710.109375 c 0
 396.759765625 701.092773438 397.677734375 687.418945312 392.076171875 682.762695312 c 0
 388.219726562 679.5546875 362.568359375 671.690429688 355.73828125 671.62109375 c 0
 353.764648438 671.600585938 352.185546875 673.770507812 352.185546875 676.502929688 c 0
 352.185546875 679.185546875 350.268554688 684.153320312 347.967773438 687.431640625 c 0
 342.934570312 694.603515625 345.35546875 700.4453125 357.650390625 710.799804688 c 0
587.158203125 716.310546875 m 0
 596.147460938 722.368164062 602.185546875 722.034179688 615.02734375 714.770507812 c 0
 625.13671875 709.052734375 625.600585938 708.252929688 624.076171875 699.180664062 c 0
 621.413085938 683.333007812 614.383789062 675.8046875 601.366210938 674.858398438 c 0
 594.80859375 674.381835938 586.708984375 675.856445312 581.831054688 678.415039062 c 0
 574.848632812 682.078125 573.497070312 684.42578125 573.497070312 692.896484375 c 0
 573.497070312 704.098632812 576.387695312 709.051757812 587.158203125 716.310546875 c 0
467.349609375 734.016601562 m 0
 473.931640625 738.240234375 479.91796875 739.69921875 488.661132812 739.208007812 c 0
 499.739257812 738.584960938 501.475585938 737.431640625 508.197265625 726.229492188 c 0
 512.294921875 719.3984375 515.6953125 713.206054688 515.846679688 712.294921875 c 0
 515.995117188 711.404296875 511.065429688 706.599609375 505.0546875 701.776367188 c 0
 494.874023438 693.606445312 492.896484375 693.046875 480.328125 694.776367188 c 0
 465.635742188 696.797851562 463.838867188 698.907226562 460.041992188 718.579101562 c 0
 458.35546875 727.322265625 458.981445312 728.645507812 467.349609375 734.016601562 c 0
EndSplineSet
EndChar

StartChar: T
Encoding: 84 84 19
Width: 1000
Flags: H
LayerCount: 2
Back
Fore
SplineSet
484.383789062 -133.524414062 m 0
 492.438476562 -125.081054688 495.970703125 -124.254882812 510.870117188 -127.325195312 c 0
 520.919921875 -129.396484375 531.213867188 -143.552734375 531.213867188 -155.30078125 c 0
 531.213867188 -162.943359375 519.752929688 -175.877929688 510.296875 -178.90625 c 0
 503.611328125 -181.047851562 486.924804688 -173.065429688 481.315429688 -165.04296875 c 0
 474.50390625 -155.30078125 475.7421875 -142.583007812 484.383789062 -133.524414062 c 0
486.514648438 18.310546875 m 0
 492.245117188 22.3330078125 510.296875 20.7529296875 516.600585938 15.677734375 c 0
 520.067382812 12.8857421875 524.065429688 5.4443359375 525.483398438 -0.859375 c 0
 527.674804688 -10.6015625 527.116210938 -13.7177734375 521.758789062 -21.6328125 c 0
 516.084960938 -30.0146484375 514.021484375 -30.9453125 501.127929688 -30.9453125 c 0
 488.234375 -30.9453125 486.013671875 -29.95703125 478.921875 -21.060546875 c 0
 474.58203125 -15.6162109375 471.041992188 -9.115234375 471.041992188 -6.58984375 c 0
 471.041992188 -1.650390625 481.0703125 14.4892578125 486.514648438 18.310546875 c 0
491.672851562 162.034179688 m 0
 496.830078125 164.61328125 502.560546875 166.76171875 504.280273438 166.76171875 c 0
 506.762695312 166.76171875 524.336914062 154.334960938 530.640625 148.12109375 c 0
 531.2578125 147.512695312 530.927734375 141.833984375 529.924804688 135.81640625 c 0
 528.396484375 126.647460938 526.26171875 123.787109375 518.033203125 119.877929688 c 0
 500.268554688 111.439453125 489.931640625 114.357421875 479.833007812 130.659179688 c 0
 474.153320312 139.828125 473.989257812 141.400390625 477.918945312 148.997070312 c 0
 480.262695312 153.529296875 486.514648438 159.456054688 491.672851562 162.034179688 c 0
496.830078125 314.326171875 m 0
 505.42578125 317.2734375 507.840820312 317.0078125 513.735351562 312.463867188 c 0
 517.459960938 309.592773438 522.122070312 307.163085938 523.907226562 307.163085938 c 0
 525.760742188 307.163085938 528.439453125 303.15234375 530.029296875 297.994140625 c 0
 533.65234375 286.24609375 525.8671875 268.217773438 515.455078125 264.23828125 c 0
 503.70703125 259.748046875 487.9765625 264.1328125 482.751953125 273.352539062 c 0
 480.31640625 277.650390625 477.140625 281.375 475.913085938 281.375 c 0
 471.721679688 281.375 474.143554688 292.263671875 480.375 301.432617188 c 0
 484.046875 306.8359375 491.099609375 312.362304688 496.830078125 314.326171875 c 0
488.806640625 459.598632812 m 0
 494.559570312 465.3515625 505.712890625 466.38671875 514.021484375 461.939453125 c 0
 516.967773438 460.362304688 523.278320312 453.438476562 527.775390625 446.84765625 c 0
 535.596679688 435.38671875 535.83984375 434.1484375 531.912109375 425.788085938 c 0
 523.431640625 407.736328125 501.203125 403.836914062 484.22265625 417.420898438 c 0
 475.9921875 424.005859375 475.948242188 424.211914062 479.637695312 439.111328125 c 0
 481.6953125 447.420898438 485.799804688 456.591796875 488.806640625 459.598632812 c 0
486.514648438 604.727539062 m 0
 489.857421875 606.399414062 498.262695312 607.481445312 505.42578125 607.163085938 c 0
 515.741210938 606.705078125 518.950195312 605.272460938 521.471679688 600 c 0
 523.252929688 596.275390625 526.866210938 591.790039062 529.78125 589.684570312 c 0
 534.66015625 586.161132812 534.584960938 585.38671875 528.390625 575.358398438 c 0
 520.778320312 563.033203125 510.296875 557.385742188 497.403320312 558.663085938 c 0
 490.129882812 559.3828125 486.26171875 562.177734375 480.640625 570.7734375 c 0
 473.896484375 581.088867188 473.609375 582.708984375 476.916015625 591.833984375 c 0
 478.888671875 597.278320312 483.201171875 603.071289062 486.514648438 604.727539062 c 0
858.720703125 748.493164062 m 0
 875.796875 759.024414062 892.266601562 753.294921875 896.80859375 735.243164062 c 0
 903.151367188 710.028320312 861.311523438 694.879882812 850.1171875 718.337890625 c 0
 844.237304688 730.659179688 847.319335938 741.4609375 858.720703125 748.493164062 c 0
730.498046875 748.567382812 m 0
 734.197265625 752.690429688 739.379882812 754.154296875 750.268554688 754.154296875 c 0
 763.162109375 754.154296875 765.822265625 753.069335938 771.342773438 745.55859375 c 0
 778.846679688 735.34765625 779.311523438 724.928710938 772.760742188 713.75390625 c 0
 768.325195312 706.186523438 766.45703125 705.444335938 751.844726562 705.444335938 c 0
 738.090820312 705.444335938 734.713867188 706.569335938 728.205078125 713.32421875 c 0
 721.411132812 720.374023438 720.868164062 722.349609375 723.047851562 732.091796875 c 0
 724.393554688 738.108398438 727.7265625 745.479492188 730.498046875 748.567382812 c 0
112.302734375 749.702148438 m 0
 116.493164062 751.958984375 126.342773438 753.93359375 133.79296875 754.01171875 c 0
 146.973632812 754.1484375 147.73046875 753.712890625 151.973632812 743.552734375 c 0
 160.350585938 723.49609375 151.196289062 705.444335938 132.646484375 705.444335938 c 0
 117.747070312 705.444335938 113.96875 707.388671875 107.040039062 718.625 c 0
 99.4423828125 730.9453125 101.646484375 743.96484375 112.302734375 749.702148438 c 0
621.471679688 754.4375 m 0
 629.208007812 757.592773438 629.208007812 757.592773438 639.5234375 754.012695312 c 0
 650.698242188 750.133789062 660.834960938 733.619140625 658.254882812 723.49609375 c 0
 657.25390625 719.567382812 652.416992188 713.876953125 647.545898438 710.89453125 c 0
 626.342773438 697.915039062 600.615234375 710.028320312 604.3515625 731.232421875 c 0
 606.321289062 742.407226562 612.495117188 750.776367188 621.471679688 754.4375 c 0
367.603515625 755.127929688 m 0
 386.514648438 760.296875 399.8046875 756.086914062 405.955078125 742.979492188 c 0
 412.677734375 728.653320312 412.303710938 723.543945312 403.713867188 712.321289062 c 0
 397.250976562 703.877929688 394.538085938 702.579101562 383.36328125 702.579101562 c 0
 367.890625 702.579101562 357.717773438 711.072265625 354.879882812 726.361328125 c 0
 352.8046875 737.536132812 359.622070312 752.947265625 367.603515625 755.127929688 c 0
487.661132812 750.276367188 m 0
 495.110351562 755.275390625 501.51171875 759.440429688 501.987304688 759.598632812 c 0
 502.467773438 759.758789062 507.145507812 758.061523438 512.588867188 755.751953125 c 0
 522.146484375 751.697265625 531.213867188 737.249023438 531.213867188 726.07421875 c 0
 531.213867188 719.000976562 520.0390625 707.163085938 510.296875 703.916015625 c 0
 502.303710938 701.250976562 499.6953125 701.784179688 489.953125 708.069335938 c 0
 469.323242188 721.37890625 468.453125 737.388671875 487.661132812 750.276367188 c 0
252.130859375 755.586914062 m 0
 263.305664062 759.598632812 263.305664062 759.598632812 272.560546875 749.283203125 c 0
 281.815429688 738.96875 287.123046875 723.0078125 283.328125 716.905273438 c 0
 280.057617188 711.646484375 263.01953125 705.444335938 251.844726562 705.444335938 c 0
 239.301757812 705.444335938 231.25 712.893554688 228.6171875 726.934570312 c 0
 226.952148438 735.81640625 227.791015625 738.673828125 233.79296875 744.555664062 c 0
 237.650390625 748.3359375 246.11328125 753.427734375 252.130859375 755.586914062 c 0
EndSplineSet
EndChar

